M48
; DRILL file {KiCad 8.0.0} date 2024-03-12T09:44:10+0100
; FORMAT={-:-/ absolute / inch / decimal}
; #@! TF.CreationDate,2024-03-12T09:44:10+01:00
; #@! TF.GenerationSoftware,Kicad,Pcbnew,8.0.0
; #@! TF.FileFunction,Plated,1,2,PTH
FMAT,2
INCH
; #@! TA.AperFunction,Plated,PTH,ViaDrill
T1C0.0276
; #@! TA.AperFunction,Plated,PTH,ComponentDrill
T2C0.0394
%
G90
G05
T1
X3.743Y-3.319
X4.142Y-3.32
T2
X3.4039Y-1.763
X3.4039Y-1.863
X3.4039Y-1.963
X3.4039Y-2.063
X3.4039Y-2.163
X3.4039Y-2.263
X3.4039Y-2.363
X3.4039Y-2.463
X3.4039Y-2.563
X3.4039Y-2.663
X3.4039Y-2.763
X3.4039Y-2.863
X3.4039Y-2.963
X3.4039Y-3.063
X3.4039Y-3.163
X3.4039Y-3.263
X3.4039Y-3.363
X3.4039Y-3.463
X3.4039Y-3.563
X3.4039Y-3.663
X3.5039Y-1.763
X3.5039Y-1.863
X3.5039Y-1.963
X3.5039Y-2.063
X3.5039Y-2.163
X3.5039Y-2.263
X3.5039Y-2.363
X3.5039Y-2.463
X3.5039Y-2.563
X3.5039Y-2.663
X3.5039Y-2.763
X3.5039Y-2.863
X3.5039Y-2.963
X3.5039Y-3.063
X3.5039Y-3.163
X3.5039Y-3.263
X3.5039Y-3.363
X3.5039Y-3.463
X3.5039Y-3.563
X3.5039Y-3.663
X5.2425Y-1.5236
X5.2425Y-1.6236
X5.2425Y-1.7236
X5.2425Y-1.8236
X5.2425Y-1.9236
X5.2425Y-2.0236
X5.2425Y-2.1236
X5.2425Y-2.2236
X5.2425Y-2.3236
X5.2425Y-2.4236
X5.2425Y-2.5236
X5.2425Y-2.6236
X5.2425Y-2.7236
X5.2425Y-2.8236
X5.2425Y-2.9236
X5.2425Y-3.0236
X5.2425Y-3.1236
X5.2425Y-3.2236
X5.2425Y-3.3236
X5.2425Y-3.4236
X5.2425Y-3.5236
X5.2425Y-3.6236
X5.2425Y-3.7236
X5.2425Y-3.8236
X5.2425Y-3.9236
X5.2425Y-4.0236
X5.3425Y-1.5236
X5.3425Y-1.6236
X5.3425Y-1.7236
X5.3425Y-1.8236
X5.3425Y-1.9236
X5.3425Y-2.0236
X5.3425Y-2.1236
X5.3425Y-2.2236
X5.3425Y-2.3236
X5.3425Y-2.4236
X5.3425Y-2.5236
X5.3425Y-2.6236
X5.3425Y-2.7236
X5.3425Y-2.8236
X5.3425Y-2.9236
X5.3425Y-3.0236
X5.3425Y-3.1236
X5.3425Y-3.2236
X5.3425Y-3.3236
X5.3425Y-3.4236
X5.3425Y-3.5236
X5.3425Y-3.6236
X5.3425Y-3.7236
X5.3425Y-3.8236
X5.3425Y-3.9236
X5.3425Y-4.0236
M30
