%TF.GenerationSoftware,KiCad,Pcbnew,8.0.0*%
%TF.CreationDate,2024-06-21T11:16:54+02:00*%
%TF.ProjectId,lora,6c6f7261-2e6b-4696-9361-645f70636258,rev?*%
%TF.SameCoordinates,Original*%
%TF.FileFunction,Drillmap*%
%TF.FilePolarity,Positive*%
%FSLAX45Y45*%
G04 Gerber Fmt 4.5, Leading zero omitted, Abs format (unit mm)*
G04 Created by KiCad (PCBNEW 8.0.0) date 2024-06-21 11:16:54*
%MOMM*%
%LPD*%
G01*
G04 APERTURE LIST*
%ADD10C,0.050000*%
%ADD11C,0.200000*%
%ADD12C,0.100000*%
G04 APERTURE END LIST*
D10*
X19850000Y-6400000D02*
G75*
G02*
X19530000Y-6400000I-160000J0D01*
G01*
X19530000Y-6400000D02*
G75*
G02*
X19850000Y-6400000I160000J0D01*
G01*
X13660000Y-14520000D02*
X11410000Y-14520000D01*
X16400000Y-5710000D02*
X16400000Y-5510000D01*
X19900000Y-13430000D02*
X20200000Y-13430000D01*
X19850000Y-13760000D02*
G75*
G02*
X19530000Y-13760000I-160000J0D01*
G01*
X19530000Y-13760000D02*
G75*
G02*
X19850000Y-13760000I160000J0D01*
G01*
X17600000Y-14320000D02*
X13660000Y-14320000D01*
X19900000Y-6760000D02*
X19900000Y-13430000D01*
X12410000Y-5510000D02*
X15310000Y-5510000D01*
X20200000Y-13430000D02*
X20200000Y-14430000D01*
X12410000Y-5610000D02*
X12410000Y-5510000D01*
X17600000Y-14520000D02*
X17600000Y-14320000D01*
X18500000Y-14520000D02*
X17600000Y-14520000D01*
X10910000Y-12170000D02*
X10910000Y-9110000D01*
X11280000Y-6020000D02*
G75*
G02*
X10960000Y-6020000I-160000J0D01*
G01*
X10960000Y-6020000D02*
G75*
G02*
X11280000Y-6020000I160000J0D01*
G01*
X20200000Y-5610000D02*
X20200000Y-6760000D01*
X15310000Y-5510000D02*
X15310000Y-5710000D01*
X20200000Y-14430000D02*
X18500000Y-14430000D01*
X20200000Y-6760000D02*
X19900000Y-6760000D01*
X10610000Y-9110000D02*
X10610000Y-5610000D01*
X16400000Y-5510000D02*
X19400000Y-5510000D01*
X12640000Y-7964000D02*
G75*
G02*
X12320000Y-7964000I-160000J0D01*
G01*
X12320000Y-7964000D02*
G75*
G02*
X12640000Y-7964000I160000J0D01*
G01*
X18500000Y-14430000D02*
X18500000Y-14520000D01*
X10610000Y-5610000D02*
X12410000Y-5610000D01*
X10910000Y-9110000D02*
X10610000Y-9110000D01*
X11410000Y-14520000D02*
X11410000Y-14420000D01*
X15310000Y-5710000D02*
X16400000Y-5710000D01*
X10610000Y-14420000D02*
X10610000Y-12170000D01*
X12640000Y-13884000D02*
G75*
G02*
X12320000Y-13884000I-160000J0D01*
G01*
X12320000Y-13884000D02*
G75*
G02*
X12640000Y-13884000I160000J0D01*
G01*
X13660000Y-14320000D02*
X13660000Y-14520000D01*
X19400000Y-5510000D02*
X19400000Y-5610000D01*
X10610000Y-12170000D02*
X10910000Y-12170000D01*
X19400000Y-5610000D02*
X20200000Y-5610000D01*
X11410000Y-14420000D02*
X10610000Y-14420000D01*
X11280000Y-14010000D02*
G75*
G02*
X10960000Y-14010000I-160000J0D01*
G01*
X10960000Y-14010000D02*
G75*
G02*
X11280000Y-14010000I160000J0D01*
G01*
D11*
D12*
X16115000Y-9355000D02*
X16185000Y-9425000D01*
X16185000Y-9355000D02*
X16115000Y-9425000D01*
X18025000Y-11699000D02*
X18095000Y-11769000D01*
X18095000Y-11699000D02*
X18025000Y-11769000D01*
X18313000Y-8393000D02*
X18383000Y-8463000D01*
X18383000Y-8393000D02*
X18313000Y-8463000D01*
X18755000Y-5935000D02*
X18825000Y-6005000D01*
X18825000Y-5935000D02*
X18755000Y-6005000D01*
X17400000Y-8518000D02*
G75*
G02*
X17300000Y-8518000I-50000J0D01*
G01*
X17300000Y-8518000D02*
G75*
G02*
X17400000Y-8518000I50000J0D01*
G01*
X17400000Y-8772000D02*
G75*
G02*
X17300000Y-8772000I-50000J0D01*
G01*
X17300000Y-8772000D02*
G75*
G02*
X17400000Y-8772000I50000J0D01*
G01*
X17400000Y-9026000D02*
G75*
G02*
X17300000Y-9026000I-50000J0D01*
G01*
X17300000Y-9026000D02*
G75*
G02*
X17400000Y-9026000I50000J0D01*
G01*
X17400000Y-9280000D02*
G75*
G02*
X17300000Y-9280000I-50000J0D01*
G01*
X17300000Y-9280000D02*
G75*
G02*
X17400000Y-9280000I50000J0D01*
G01*
X17400000Y-9534000D02*
G75*
G02*
X17300000Y-9534000I-50000J0D01*
G01*
X17300000Y-9534000D02*
G75*
G02*
X17400000Y-9534000I50000J0D01*
G01*
X17400000Y-9788000D02*
G75*
G02*
X17300000Y-9788000I-50000J0D01*
G01*
X17300000Y-9788000D02*
G75*
G02*
X17400000Y-9788000I50000J0D01*
G01*
X17400000Y-10042000D02*
G75*
G02*
X17300000Y-10042000I-50000J0D01*
G01*
X17300000Y-10042000D02*
G75*
G02*
X17400000Y-10042000I50000J0D01*
G01*
X17400000Y-10296000D02*
G75*
G02*
X17300000Y-10296000I-50000J0D01*
G01*
X17300000Y-10296000D02*
G75*
G02*
X17400000Y-10296000I50000J0D01*
G01*
X17400000Y-10550000D02*
G75*
G02*
X17300000Y-10550000I-50000J0D01*
G01*
X17300000Y-10550000D02*
G75*
G02*
X17400000Y-10550000I50000J0D01*
G01*
X17400000Y-10804000D02*
G75*
G02*
X17300000Y-10804000I-50000J0D01*
G01*
X17300000Y-10804000D02*
G75*
G02*
X17400000Y-10804000I50000J0D01*
G01*
X17400000Y-11058000D02*
G75*
G02*
X17300000Y-11058000I-50000J0D01*
G01*
X17300000Y-11058000D02*
G75*
G02*
X17400000Y-11058000I50000J0D01*
G01*
X17400000Y-11312000D02*
G75*
G02*
X17300000Y-11312000I-50000J0D01*
G01*
X17300000Y-11312000D02*
G75*
G02*
X17400000Y-11312000I50000J0D01*
G01*
X17400000Y-11566000D02*
G75*
G02*
X17300000Y-11566000I-50000J0D01*
G01*
X17300000Y-11566000D02*
G75*
G02*
X17400000Y-11566000I50000J0D01*
G01*
X17400000Y-11820000D02*
G75*
G02*
X17300000Y-11820000I-50000J0D01*
G01*
X17300000Y-11820000D02*
G75*
G02*
X17400000Y-11820000I50000J0D01*
G01*
X17400000Y-12074000D02*
G75*
G02*
X17300000Y-12074000I-50000J0D01*
G01*
X17300000Y-12074000D02*
G75*
G02*
X17400000Y-12074000I50000J0D01*
G01*
X17400000Y-12328000D02*
G75*
G02*
X17300000Y-12328000I-50000J0D01*
G01*
X17300000Y-12328000D02*
G75*
G02*
X17400000Y-12328000I50000J0D01*
G01*
X17400000Y-12582000D02*
G75*
G02*
X17300000Y-12582000I-50000J0D01*
G01*
X17300000Y-12582000D02*
G75*
G02*
X17400000Y-12582000I50000J0D01*
G01*
X17400000Y-12836000D02*
G75*
G02*
X17300000Y-12836000I-50000J0D01*
G01*
X17300000Y-12836000D02*
G75*
G02*
X17400000Y-12836000I50000J0D01*
G01*
X17400000Y-13090000D02*
G75*
G02*
X17300000Y-13090000I-50000J0D01*
G01*
X17300000Y-13090000D02*
G75*
G02*
X17400000Y-13090000I50000J0D01*
G01*
X17400000Y-13344000D02*
G75*
G02*
X17300000Y-13344000I-50000J0D01*
G01*
X17300000Y-13344000D02*
G75*
G02*
X17400000Y-13344000I50000J0D01*
G01*
X17654000Y-8518000D02*
G75*
G02*
X17554000Y-8518000I-50000J0D01*
G01*
X17554000Y-8518000D02*
G75*
G02*
X17654000Y-8518000I50000J0D01*
G01*
X17654000Y-8772000D02*
G75*
G02*
X17554000Y-8772000I-50000J0D01*
G01*
X17554000Y-8772000D02*
G75*
G02*
X17654000Y-8772000I50000J0D01*
G01*
X17654000Y-9026000D02*
G75*
G02*
X17554000Y-9026000I-50000J0D01*
G01*
X17554000Y-9026000D02*
G75*
G02*
X17654000Y-9026000I50000J0D01*
G01*
X17654000Y-9280000D02*
G75*
G02*
X17554000Y-9280000I-50000J0D01*
G01*
X17554000Y-9280000D02*
G75*
G02*
X17654000Y-9280000I50000J0D01*
G01*
X17654000Y-9534000D02*
G75*
G02*
X17554000Y-9534000I-50000J0D01*
G01*
X17554000Y-9534000D02*
G75*
G02*
X17654000Y-9534000I50000J0D01*
G01*
X17654000Y-9788000D02*
G75*
G02*
X17554000Y-9788000I-50000J0D01*
G01*
X17554000Y-9788000D02*
G75*
G02*
X17654000Y-9788000I50000J0D01*
G01*
X17654000Y-10042000D02*
G75*
G02*
X17554000Y-10042000I-50000J0D01*
G01*
X17554000Y-10042000D02*
G75*
G02*
X17654000Y-10042000I50000J0D01*
G01*
X17654000Y-10296000D02*
G75*
G02*
X17554000Y-10296000I-50000J0D01*
G01*
X17554000Y-10296000D02*
G75*
G02*
X17654000Y-10296000I50000J0D01*
G01*
X17654000Y-10550000D02*
G75*
G02*
X17554000Y-10550000I-50000J0D01*
G01*
X17554000Y-10550000D02*
G75*
G02*
X17654000Y-10550000I50000J0D01*
G01*
X17654000Y-10804000D02*
G75*
G02*
X17554000Y-10804000I-50000J0D01*
G01*
X17554000Y-10804000D02*
G75*
G02*
X17654000Y-10804000I50000J0D01*
G01*
X17654000Y-11058000D02*
G75*
G02*
X17554000Y-11058000I-50000J0D01*
G01*
X17554000Y-11058000D02*
G75*
G02*
X17654000Y-11058000I50000J0D01*
G01*
X17654000Y-11312000D02*
G75*
G02*
X17554000Y-11312000I-50000J0D01*
G01*
X17554000Y-11312000D02*
G75*
G02*
X17654000Y-11312000I50000J0D01*
G01*
X17654000Y-11566000D02*
G75*
G02*
X17554000Y-11566000I-50000J0D01*
G01*
X17554000Y-11566000D02*
G75*
G02*
X17654000Y-11566000I50000J0D01*
G01*
X17654000Y-11820000D02*
G75*
G02*
X17554000Y-11820000I-50000J0D01*
G01*
X17554000Y-11820000D02*
G75*
G02*
X17654000Y-11820000I50000J0D01*
G01*
X17654000Y-12074000D02*
G75*
G02*
X17554000Y-12074000I-50000J0D01*
G01*
X17554000Y-12074000D02*
G75*
G02*
X17654000Y-12074000I50000J0D01*
G01*
X17654000Y-12328000D02*
G75*
G02*
X17554000Y-12328000I-50000J0D01*
G01*
X17554000Y-12328000D02*
G75*
G02*
X17654000Y-12328000I50000J0D01*
G01*
X17654000Y-12582000D02*
G75*
G02*
X17554000Y-12582000I-50000J0D01*
G01*
X17554000Y-12582000D02*
G75*
G02*
X17654000Y-12582000I50000J0D01*
G01*
X17654000Y-12836000D02*
G75*
G02*
X17554000Y-12836000I-50000J0D01*
G01*
X17554000Y-12836000D02*
G75*
G02*
X17654000Y-12836000I50000J0D01*
G01*
X17654000Y-13090000D02*
G75*
G02*
X17554000Y-13090000I-50000J0D01*
G01*
X17554000Y-13090000D02*
G75*
G02*
X17654000Y-13090000I50000J0D01*
G01*
X17654000Y-13344000D02*
G75*
G02*
X17554000Y-13344000I-50000J0D01*
G01*
X17554000Y-13344000D02*
G75*
G02*
X17654000Y-13344000I50000J0D01*
G01*
X18980000Y-6910000D02*
G75*
G02*
X18880000Y-6910000I-50000J0D01*
G01*
X18880000Y-6910000D02*
G75*
G02*
X18980000Y-6910000I50000J0D01*
G01*
X18980000Y-7164000D02*
G75*
G02*
X18880000Y-7164000I-50000J0D01*
G01*
X18880000Y-7164000D02*
G75*
G02*
X18980000Y-7164000I50000J0D01*
G01*
X18980000Y-7418000D02*
G75*
G02*
X18880000Y-7418000I-50000J0D01*
G01*
X18880000Y-7418000D02*
G75*
G02*
X18980000Y-7418000I50000J0D01*
G01*
X18980000Y-7672000D02*
G75*
G02*
X18880000Y-7672000I-50000J0D01*
G01*
X18880000Y-7672000D02*
G75*
G02*
X18980000Y-7672000I50000J0D01*
G01*
X18980000Y-7926000D02*
G75*
G02*
X18880000Y-7926000I-50000J0D01*
G01*
X18880000Y-7926000D02*
G75*
G02*
X18980000Y-7926000I50000J0D01*
G01*
X18980000Y-8180000D02*
G75*
G02*
X18880000Y-8180000I-50000J0D01*
G01*
X18880000Y-8180000D02*
G75*
G02*
X18980000Y-8180000I50000J0D01*
G01*
X18980000Y-8434000D02*
G75*
G02*
X18880000Y-8434000I-50000J0D01*
G01*
X18880000Y-8434000D02*
G75*
G02*
X18980000Y-8434000I50000J0D01*
G01*
X18980000Y-8688000D02*
G75*
G02*
X18880000Y-8688000I-50000J0D01*
G01*
X18880000Y-8688000D02*
G75*
G02*
X18980000Y-8688000I50000J0D01*
G01*
X18980000Y-8942000D02*
G75*
G02*
X18880000Y-8942000I-50000J0D01*
G01*
X18880000Y-8942000D02*
G75*
G02*
X18980000Y-8942000I50000J0D01*
G01*
X18980000Y-9196000D02*
G75*
G02*
X18880000Y-9196000I-50000J0D01*
G01*
X18880000Y-9196000D02*
G75*
G02*
X18980000Y-9196000I50000J0D01*
G01*
X18980000Y-9450000D02*
G75*
G02*
X18880000Y-9450000I-50000J0D01*
G01*
X18880000Y-9450000D02*
G75*
G02*
X18980000Y-9450000I50000J0D01*
G01*
X18980000Y-9704000D02*
G75*
G02*
X18880000Y-9704000I-50000J0D01*
G01*
X18880000Y-9704000D02*
G75*
G02*
X18980000Y-9704000I50000J0D01*
G01*
X18980000Y-9958000D02*
G75*
G02*
X18880000Y-9958000I-50000J0D01*
G01*
X18880000Y-9958000D02*
G75*
G02*
X18980000Y-9958000I50000J0D01*
G01*
X18980000Y-10212000D02*
G75*
G02*
X18880000Y-10212000I-50000J0D01*
G01*
X18880000Y-10212000D02*
G75*
G02*
X18980000Y-10212000I50000J0D01*
G01*
X18980000Y-10466000D02*
G75*
G02*
X18880000Y-10466000I-50000J0D01*
G01*
X18880000Y-10466000D02*
G75*
G02*
X18980000Y-10466000I50000J0D01*
G01*
X18980000Y-10720000D02*
G75*
G02*
X18880000Y-10720000I-50000J0D01*
G01*
X18880000Y-10720000D02*
G75*
G02*
X18980000Y-10720000I50000J0D01*
G01*
X18980000Y-10974000D02*
G75*
G02*
X18880000Y-10974000I-50000J0D01*
G01*
X18880000Y-10974000D02*
G75*
G02*
X18980000Y-10974000I50000J0D01*
G01*
X18980000Y-11228000D02*
G75*
G02*
X18880000Y-11228000I-50000J0D01*
G01*
X18880000Y-11228000D02*
G75*
G02*
X18980000Y-11228000I50000J0D01*
G01*
X18980000Y-11482000D02*
G75*
G02*
X18880000Y-11482000I-50000J0D01*
G01*
X18880000Y-11482000D02*
G75*
G02*
X18980000Y-11482000I50000J0D01*
G01*
X18980000Y-11736000D02*
G75*
G02*
X18880000Y-11736000I-50000J0D01*
G01*
X18880000Y-11736000D02*
G75*
G02*
X18980000Y-11736000I50000J0D01*
G01*
X18980000Y-11990000D02*
G75*
G02*
X18880000Y-11990000I-50000J0D01*
G01*
X18880000Y-11990000D02*
G75*
G02*
X18980000Y-11990000I50000J0D01*
G01*
X18980000Y-12244000D02*
G75*
G02*
X18880000Y-12244000I-50000J0D01*
G01*
X18880000Y-12244000D02*
G75*
G02*
X18980000Y-12244000I50000J0D01*
G01*
X18980000Y-12498000D02*
G75*
G02*
X18880000Y-12498000I-50000J0D01*
G01*
X18880000Y-12498000D02*
G75*
G02*
X18980000Y-12498000I50000J0D01*
G01*
X18980000Y-12752000D02*
G75*
G02*
X18880000Y-12752000I-50000J0D01*
G01*
X18880000Y-12752000D02*
G75*
G02*
X18980000Y-12752000I50000J0D01*
G01*
X18980000Y-13006000D02*
G75*
G02*
X18880000Y-13006000I-50000J0D01*
G01*
X18880000Y-13006000D02*
G75*
G02*
X18980000Y-13006000I50000J0D01*
G01*
X18980000Y-13260000D02*
G75*
G02*
X18880000Y-13260000I-50000J0D01*
G01*
X18880000Y-13260000D02*
G75*
G02*
X18980000Y-13260000I50000J0D01*
G01*
X19234000Y-6910000D02*
G75*
G02*
X19134000Y-6910000I-50000J0D01*
G01*
X19134000Y-6910000D02*
G75*
G02*
X19234000Y-6910000I50000J0D01*
G01*
X19234000Y-7164000D02*
G75*
G02*
X19134000Y-7164000I-50000J0D01*
G01*
X19134000Y-7164000D02*
G75*
G02*
X19234000Y-7164000I50000J0D01*
G01*
X19234000Y-7418000D02*
G75*
G02*
X19134000Y-7418000I-50000J0D01*
G01*
X19134000Y-7418000D02*
G75*
G02*
X19234000Y-7418000I50000J0D01*
G01*
X19234000Y-7672000D02*
G75*
G02*
X19134000Y-7672000I-50000J0D01*
G01*
X19134000Y-7672000D02*
G75*
G02*
X19234000Y-7672000I50000J0D01*
G01*
X19234000Y-7926000D02*
G75*
G02*
X19134000Y-7926000I-50000J0D01*
G01*
X19134000Y-7926000D02*
G75*
G02*
X19234000Y-7926000I50000J0D01*
G01*
X19234000Y-8180000D02*
G75*
G02*
X19134000Y-8180000I-50000J0D01*
G01*
X19134000Y-8180000D02*
G75*
G02*
X19234000Y-8180000I50000J0D01*
G01*
X19234000Y-8434000D02*
G75*
G02*
X19134000Y-8434000I-50000J0D01*
G01*
X19134000Y-8434000D02*
G75*
G02*
X19234000Y-8434000I50000J0D01*
G01*
X19234000Y-8688000D02*
G75*
G02*
X19134000Y-8688000I-50000J0D01*
G01*
X19134000Y-8688000D02*
G75*
G02*
X19234000Y-8688000I50000J0D01*
G01*
X19234000Y-8942000D02*
G75*
G02*
X19134000Y-8942000I-50000J0D01*
G01*
X19134000Y-8942000D02*
G75*
G02*
X19234000Y-8942000I50000J0D01*
G01*
X19234000Y-9196000D02*
G75*
G02*
X19134000Y-9196000I-50000J0D01*
G01*
X19134000Y-9196000D02*
G75*
G02*
X19234000Y-9196000I50000J0D01*
G01*
X19234000Y-9450000D02*
G75*
G02*
X19134000Y-9450000I-50000J0D01*
G01*
X19134000Y-9450000D02*
G75*
G02*
X19234000Y-9450000I50000J0D01*
G01*
X19234000Y-9704000D02*
G75*
G02*
X19134000Y-9704000I-50000J0D01*
G01*
X19134000Y-9704000D02*
G75*
G02*
X19234000Y-9704000I50000J0D01*
G01*
X19234000Y-9958000D02*
G75*
G02*
X19134000Y-9958000I-50000J0D01*
G01*
X19134000Y-9958000D02*
G75*
G02*
X19234000Y-9958000I50000J0D01*
G01*
X19234000Y-10212000D02*
G75*
G02*
X19134000Y-10212000I-50000J0D01*
G01*
X19134000Y-10212000D02*
G75*
G02*
X19234000Y-10212000I50000J0D01*
G01*
X19234000Y-10466000D02*
G75*
G02*
X19134000Y-10466000I-50000J0D01*
G01*
X19134000Y-10466000D02*
G75*
G02*
X19234000Y-10466000I50000J0D01*
G01*
X19234000Y-10720000D02*
G75*
G02*
X19134000Y-10720000I-50000J0D01*
G01*
X19134000Y-10720000D02*
G75*
G02*
X19234000Y-10720000I50000J0D01*
G01*
X19234000Y-10974000D02*
G75*
G02*
X19134000Y-10974000I-50000J0D01*
G01*
X19134000Y-10974000D02*
G75*
G02*
X19234000Y-10974000I50000J0D01*
G01*
X19234000Y-11228000D02*
G75*
G02*
X19134000Y-11228000I-50000J0D01*
G01*
X19134000Y-11228000D02*
G75*
G02*
X19234000Y-11228000I50000J0D01*
G01*
X19234000Y-11482000D02*
G75*
G02*
X19134000Y-11482000I-50000J0D01*
G01*
X19134000Y-11482000D02*
G75*
G02*
X19234000Y-11482000I50000J0D01*
G01*
X19234000Y-11736000D02*
G75*
G02*
X19134000Y-11736000I-50000J0D01*
G01*
X19134000Y-11736000D02*
G75*
G02*
X19234000Y-11736000I50000J0D01*
G01*
X19234000Y-11990000D02*
G75*
G02*
X19134000Y-11990000I-50000J0D01*
G01*
X19134000Y-11990000D02*
G75*
G02*
X19234000Y-11990000I50000J0D01*
G01*
X19234000Y-12244000D02*
G75*
G02*
X19134000Y-12244000I-50000J0D01*
G01*
X19134000Y-12244000D02*
G75*
G02*
X19234000Y-12244000I50000J0D01*
G01*
X19234000Y-12498000D02*
G75*
G02*
X19134000Y-12498000I-50000J0D01*
G01*
X19134000Y-12498000D02*
G75*
G02*
X19234000Y-12498000I50000J0D01*
G01*
X19234000Y-12752000D02*
G75*
G02*
X19134000Y-12752000I-50000J0D01*
G01*
X19134000Y-12752000D02*
G75*
G02*
X19234000Y-12752000I50000J0D01*
G01*
X19234000Y-13006000D02*
G75*
G02*
X19134000Y-13006000I-50000J0D01*
G01*
X19134000Y-13006000D02*
G75*
G02*
X19234000Y-13006000I50000J0D01*
G01*
X19234000Y-13260000D02*
G75*
G02*
X19134000Y-13260000I-50000J0D01*
G01*
X19134000Y-13260000D02*
G75*
G02*
X19234000Y-13260000I50000J0D01*
G01*
D11*
X10868277Y-14833984D02*
X10868277Y-14633984D01*
X10868277Y-14633984D02*
X10915896Y-14633984D01*
X10915896Y-14633984D02*
X10944467Y-14643508D01*
X10944467Y-14643508D02*
X10963515Y-14662555D01*
X10963515Y-14662555D02*
X10973039Y-14681603D01*
X10973039Y-14681603D02*
X10982563Y-14719698D01*
X10982563Y-14719698D02*
X10982563Y-14748269D01*
X10982563Y-14748269D02*
X10973039Y-14786365D01*
X10973039Y-14786365D02*
X10963515Y-14805412D01*
X10963515Y-14805412D02*
X10944467Y-14824460D01*
X10944467Y-14824460D02*
X10915896Y-14833984D01*
X10915896Y-14833984D02*
X10868277Y-14833984D01*
X11068277Y-14833984D02*
X11068277Y-14700650D01*
X11068277Y-14738746D02*
X11077801Y-14719698D01*
X11077801Y-14719698D02*
X11087324Y-14710174D01*
X11087324Y-14710174D02*
X11106372Y-14700650D01*
X11106372Y-14700650D02*
X11125420Y-14700650D01*
X11192086Y-14833984D02*
X11192086Y-14700650D01*
X11192086Y-14633984D02*
X11182563Y-14643508D01*
X11182563Y-14643508D02*
X11192086Y-14653031D01*
X11192086Y-14653031D02*
X11201610Y-14643508D01*
X11201610Y-14643508D02*
X11192086Y-14633984D01*
X11192086Y-14633984D02*
X11192086Y-14653031D01*
X11315896Y-14833984D02*
X11296848Y-14824460D01*
X11296848Y-14824460D02*
X11287324Y-14805412D01*
X11287324Y-14805412D02*
X11287324Y-14633984D01*
X11420658Y-14833984D02*
X11401610Y-14824460D01*
X11401610Y-14824460D02*
X11392086Y-14805412D01*
X11392086Y-14805412D02*
X11392086Y-14633984D01*
X11649229Y-14833984D02*
X11649229Y-14633984D01*
X11649229Y-14633984D02*
X11715896Y-14776841D01*
X11715896Y-14776841D02*
X11782562Y-14633984D01*
X11782562Y-14633984D02*
X11782562Y-14833984D01*
X11963515Y-14833984D02*
X11963515Y-14729222D01*
X11963515Y-14729222D02*
X11953991Y-14710174D01*
X11953991Y-14710174D02*
X11934943Y-14700650D01*
X11934943Y-14700650D02*
X11896848Y-14700650D01*
X11896848Y-14700650D02*
X11877801Y-14710174D01*
X11963515Y-14824460D02*
X11944467Y-14833984D01*
X11944467Y-14833984D02*
X11896848Y-14833984D01*
X11896848Y-14833984D02*
X11877801Y-14824460D01*
X11877801Y-14824460D02*
X11868277Y-14805412D01*
X11868277Y-14805412D02*
X11868277Y-14786365D01*
X11868277Y-14786365D02*
X11877801Y-14767317D01*
X11877801Y-14767317D02*
X11896848Y-14757793D01*
X11896848Y-14757793D02*
X11944467Y-14757793D01*
X11944467Y-14757793D02*
X11963515Y-14748269D01*
X12058753Y-14700650D02*
X12058753Y-14900650D01*
X12058753Y-14710174D02*
X12077801Y-14700650D01*
X12077801Y-14700650D02*
X12115896Y-14700650D01*
X12115896Y-14700650D02*
X12134943Y-14710174D01*
X12134943Y-14710174D02*
X12144467Y-14719698D01*
X12144467Y-14719698D02*
X12153991Y-14738746D01*
X12153991Y-14738746D02*
X12153991Y-14795888D01*
X12153991Y-14795888D02*
X12144467Y-14814936D01*
X12144467Y-14814936D02*
X12134943Y-14824460D01*
X12134943Y-14824460D02*
X12115896Y-14833984D01*
X12115896Y-14833984D02*
X12077801Y-14833984D01*
X12077801Y-14833984D02*
X12058753Y-14824460D01*
X12239705Y-14814936D02*
X12249229Y-14824460D01*
X12249229Y-14824460D02*
X12239705Y-14833984D01*
X12239705Y-14833984D02*
X12230182Y-14824460D01*
X12230182Y-14824460D02*
X12239705Y-14814936D01*
X12239705Y-14814936D02*
X12239705Y-14833984D01*
X12239705Y-14710174D02*
X12249229Y-14719698D01*
X12249229Y-14719698D02*
X12239705Y-14729222D01*
X12239705Y-14729222D02*
X12230182Y-14719698D01*
X12230182Y-14719698D02*
X12239705Y-14710174D01*
X12239705Y-14710174D02*
X12239705Y-14729222D01*
D12*
X10537500Y-15127500D02*
X10607500Y-15197500D01*
X10607500Y-15127500D02*
X10537500Y-15197500D01*
D11*
X10906372Y-15053984D02*
X10925420Y-15053984D01*
X10925420Y-15053984D02*
X10944467Y-15063508D01*
X10944467Y-15063508D02*
X10953991Y-15073031D01*
X10953991Y-15073031D02*
X10963515Y-15092079D01*
X10963515Y-15092079D02*
X10973039Y-15130174D01*
X10973039Y-15130174D02*
X10973039Y-15177793D01*
X10973039Y-15177793D02*
X10963515Y-15215888D01*
X10963515Y-15215888D02*
X10953991Y-15234936D01*
X10953991Y-15234936D02*
X10944467Y-15244460D01*
X10944467Y-15244460D02*
X10925420Y-15253984D01*
X10925420Y-15253984D02*
X10906372Y-15253984D01*
X10906372Y-15253984D02*
X10887324Y-15244460D01*
X10887324Y-15244460D02*
X10877801Y-15234936D01*
X10877801Y-15234936D02*
X10868277Y-15215888D01*
X10868277Y-15215888D02*
X10858753Y-15177793D01*
X10858753Y-15177793D02*
X10858753Y-15130174D01*
X10858753Y-15130174D02*
X10868277Y-15092079D01*
X10868277Y-15092079D02*
X10877801Y-15073031D01*
X10877801Y-15073031D02*
X10887324Y-15063508D01*
X10887324Y-15063508D02*
X10906372Y-15053984D01*
X11058753Y-15234936D02*
X11068277Y-15244460D01*
X11068277Y-15244460D02*
X11058753Y-15253984D01*
X11058753Y-15253984D02*
X11049229Y-15244460D01*
X11049229Y-15244460D02*
X11058753Y-15234936D01*
X11058753Y-15234936D02*
X11058753Y-15253984D01*
X11134944Y-15053984D02*
X11268277Y-15053984D01*
X11268277Y-15053984D02*
X11182563Y-15253984D01*
X11382562Y-15053984D02*
X11401610Y-15053984D01*
X11401610Y-15053984D02*
X11420658Y-15063508D01*
X11420658Y-15063508D02*
X11430182Y-15073031D01*
X11430182Y-15073031D02*
X11439705Y-15092079D01*
X11439705Y-15092079D02*
X11449229Y-15130174D01*
X11449229Y-15130174D02*
X11449229Y-15177793D01*
X11449229Y-15177793D02*
X11439705Y-15215888D01*
X11439705Y-15215888D02*
X11430182Y-15234936D01*
X11430182Y-15234936D02*
X11420658Y-15244460D01*
X11420658Y-15244460D02*
X11401610Y-15253984D01*
X11401610Y-15253984D02*
X11382562Y-15253984D01*
X11382562Y-15253984D02*
X11363515Y-15244460D01*
X11363515Y-15244460D02*
X11353991Y-15234936D01*
X11353991Y-15234936D02*
X11344467Y-15215888D01*
X11344467Y-15215888D02*
X11334943Y-15177793D01*
X11334943Y-15177793D02*
X11334943Y-15130174D01*
X11334943Y-15130174D02*
X11344467Y-15092079D01*
X11344467Y-15092079D02*
X11353991Y-15073031D01*
X11353991Y-15073031D02*
X11363515Y-15063508D01*
X11363515Y-15063508D02*
X11382562Y-15053984D01*
X11573039Y-15053984D02*
X11592086Y-15053984D01*
X11592086Y-15053984D02*
X11611134Y-15063508D01*
X11611134Y-15063508D02*
X11620658Y-15073031D01*
X11620658Y-15073031D02*
X11630182Y-15092079D01*
X11630182Y-15092079D02*
X11639705Y-15130174D01*
X11639705Y-15130174D02*
X11639705Y-15177793D01*
X11639705Y-15177793D02*
X11630182Y-15215888D01*
X11630182Y-15215888D02*
X11620658Y-15234936D01*
X11620658Y-15234936D02*
X11611134Y-15244460D01*
X11611134Y-15244460D02*
X11592086Y-15253984D01*
X11592086Y-15253984D02*
X11573039Y-15253984D01*
X11573039Y-15253984D02*
X11553991Y-15244460D01*
X11553991Y-15244460D02*
X11544467Y-15234936D01*
X11544467Y-15234936D02*
X11534943Y-15215888D01*
X11534943Y-15215888D02*
X11525420Y-15177793D01*
X11525420Y-15177793D02*
X11525420Y-15130174D01*
X11525420Y-15130174D02*
X11534943Y-15092079D01*
X11534943Y-15092079D02*
X11544467Y-15073031D01*
X11544467Y-15073031D02*
X11553991Y-15063508D01*
X11553991Y-15063508D02*
X11573039Y-15053984D01*
X11725420Y-15253984D02*
X11725420Y-15120650D01*
X11725420Y-15139698D02*
X11734943Y-15130174D01*
X11734943Y-15130174D02*
X11753991Y-15120650D01*
X11753991Y-15120650D02*
X11782563Y-15120650D01*
X11782563Y-15120650D02*
X11801610Y-15130174D01*
X11801610Y-15130174D02*
X11811134Y-15149222D01*
X11811134Y-15149222D02*
X11811134Y-15253984D01*
X11811134Y-15149222D02*
X11820658Y-15130174D01*
X11820658Y-15130174D02*
X11839705Y-15120650D01*
X11839705Y-15120650D02*
X11868277Y-15120650D01*
X11868277Y-15120650D02*
X11887324Y-15130174D01*
X11887324Y-15130174D02*
X11896848Y-15149222D01*
X11896848Y-15149222D02*
X11896848Y-15253984D01*
X11992086Y-15253984D02*
X11992086Y-15120650D01*
X11992086Y-15139698D02*
X12001610Y-15130174D01*
X12001610Y-15130174D02*
X12020658Y-15120650D01*
X12020658Y-15120650D02*
X12049229Y-15120650D01*
X12049229Y-15120650D02*
X12068277Y-15130174D01*
X12068277Y-15130174D02*
X12077801Y-15149222D01*
X12077801Y-15149222D02*
X12077801Y-15253984D01*
X12077801Y-15149222D02*
X12087324Y-15130174D01*
X12087324Y-15130174D02*
X12106372Y-15120650D01*
X12106372Y-15120650D02*
X12134943Y-15120650D01*
X12134943Y-15120650D02*
X12153991Y-15130174D01*
X12153991Y-15130174D02*
X12163515Y-15149222D01*
X12163515Y-15149222D02*
X12163515Y-15253984D01*
X12553991Y-15044460D02*
X12382563Y-15301603D01*
X12811134Y-15053984D02*
X12830182Y-15053984D01*
X12830182Y-15053984D02*
X12849229Y-15063508D01*
X12849229Y-15063508D02*
X12858753Y-15073031D01*
X12858753Y-15073031D02*
X12868277Y-15092079D01*
X12868277Y-15092079D02*
X12877801Y-15130174D01*
X12877801Y-15130174D02*
X12877801Y-15177793D01*
X12877801Y-15177793D02*
X12868277Y-15215888D01*
X12868277Y-15215888D02*
X12858753Y-15234936D01*
X12858753Y-15234936D02*
X12849229Y-15244460D01*
X12849229Y-15244460D02*
X12830182Y-15253984D01*
X12830182Y-15253984D02*
X12811134Y-15253984D01*
X12811134Y-15253984D02*
X12792086Y-15244460D01*
X12792086Y-15244460D02*
X12782563Y-15234936D01*
X12782563Y-15234936D02*
X12773039Y-15215888D01*
X12773039Y-15215888D02*
X12763515Y-15177793D01*
X12763515Y-15177793D02*
X12763515Y-15130174D01*
X12763515Y-15130174D02*
X12773039Y-15092079D01*
X12773039Y-15092079D02*
X12782563Y-15073031D01*
X12782563Y-15073031D02*
X12792086Y-15063508D01*
X12792086Y-15063508D02*
X12811134Y-15053984D01*
X12963515Y-15234936D02*
X12973039Y-15244460D01*
X12973039Y-15244460D02*
X12963515Y-15253984D01*
X12963515Y-15253984D02*
X12953991Y-15244460D01*
X12953991Y-15244460D02*
X12963515Y-15234936D01*
X12963515Y-15234936D02*
X12963515Y-15253984D01*
X13096848Y-15053984D02*
X13115896Y-15053984D01*
X13115896Y-15053984D02*
X13134944Y-15063508D01*
X13134944Y-15063508D02*
X13144467Y-15073031D01*
X13144467Y-15073031D02*
X13153991Y-15092079D01*
X13153991Y-15092079D02*
X13163515Y-15130174D01*
X13163515Y-15130174D02*
X13163515Y-15177793D01*
X13163515Y-15177793D02*
X13153991Y-15215888D01*
X13153991Y-15215888D02*
X13144467Y-15234936D01*
X13144467Y-15234936D02*
X13134944Y-15244460D01*
X13134944Y-15244460D02*
X13115896Y-15253984D01*
X13115896Y-15253984D02*
X13096848Y-15253984D01*
X13096848Y-15253984D02*
X13077801Y-15244460D01*
X13077801Y-15244460D02*
X13068277Y-15234936D01*
X13068277Y-15234936D02*
X13058753Y-15215888D01*
X13058753Y-15215888D02*
X13049229Y-15177793D01*
X13049229Y-15177793D02*
X13049229Y-15130174D01*
X13049229Y-15130174D02*
X13058753Y-15092079D01*
X13058753Y-15092079D02*
X13068277Y-15073031D01*
X13068277Y-15073031D02*
X13077801Y-15063508D01*
X13077801Y-15063508D02*
X13096848Y-15053984D01*
X13239706Y-15073031D02*
X13249229Y-15063508D01*
X13249229Y-15063508D02*
X13268277Y-15053984D01*
X13268277Y-15053984D02*
X13315896Y-15053984D01*
X13315896Y-15053984D02*
X13334944Y-15063508D01*
X13334944Y-15063508D02*
X13344467Y-15073031D01*
X13344467Y-15073031D02*
X13353991Y-15092079D01*
X13353991Y-15092079D02*
X13353991Y-15111127D01*
X13353991Y-15111127D02*
X13344467Y-15139698D01*
X13344467Y-15139698D02*
X13230182Y-15253984D01*
X13230182Y-15253984D02*
X13353991Y-15253984D01*
X13420658Y-15053984D02*
X13553991Y-15053984D01*
X13553991Y-15053984D02*
X13468277Y-15253984D01*
X13715896Y-15053984D02*
X13677801Y-15053984D01*
X13677801Y-15053984D02*
X13658753Y-15063508D01*
X13658753Y-15063508D02*
X13649229Y-15073031D01*
X13649229Y-15073031D02*
X13630182Y-15101603D01*
X13630182Y-15101603D02*
X13620658Y-15139698D01*
X13620658Y-15139698D02*
X13620658Y-15215888D01*
X13620658Y-15215888D02*
X13630182Y-15234936D01*
X13630182Y-15234936D02*
X13639706Y-15244460D01*
X13639706Y-15244460D02*
X13658753Y-15253984D01*
X13658753Y-15253984D02*
X13696848Y-15253984D01*
X13696848Y-15253984D02*
X13715896Y-15244460D01*
X13715896Y-15244460D02*
X13725420Y-15234936D01*
X13725420Y-15234936D02*
X13734944Y-15215888D01*
X13734944Y-15215888D02*
X13734944Y-15168269D01*
X13734944Y-15168269D02*
X13725420Y-15149222D01*
X13725420Y-15149222D02*
X13715896Y-15139698D01*
X13715896Y-15139698D02*
X13696848Y-15130174D01*
X13696848Y-15130174D02*
X13658753Y-15130174D01*
X13658753Y-15130174D02*
X13639706Y-15139698D01*
X13639706Y-15139698D02*
X13630182Y-15149222D01*
X13630182Y-15149222D02*
X13620658Y-15168269D01*
X13811134Y-15053984D02*
X13811134Y-15092079D01*
X13887325Y-15053984D02*
X13887325Y-15092079D01*
X14182563Y-15330174D02*
X14173039Y-15320650D01*
X14173039Y-15320650D02*
X14153991Y-15292079D01*
X14153991Y-15292079D02*
X14144468Y-15273031D01*
X14144468Y-15273031D02*
X14134944Y-15244460D01*
X14134944Y-15244460D02*
X14125420Y-15196841D01*
X14125420Y-15196841D02*
X14125420Y-15158746D01*
X14125420Y-15158746D02*
X14134944Y-15111127D01*
X14134944Y-15111127D02*
X14144468Y-15082555D01*
X14144468Y-15082555D02*
X14153991Y-15063508D01*
X14153991Y-15063508D02*
X14173039Y-15034936D01*
X14173039Y-15034936D02*
X14182563Y-15025412D01*
X14344468Y-15120650D02*
X14344468Y-15253984D01*
X14296848Y-15044460D02*
X14249229Y-15187317D01*
X14249229Y-15187317D02*
X14373039Y-15187317D01*
X14601610Y-15253984D02*
X14601610Y-15053984D01*
X14687325Y-15253984D02*
X14687325Y-15149222D01*
X14687325Y-15149222D02*
X14677801Y-15130174D01*
X14677801Y-15130174D02*
X14658753Y-15120650D01*
X14658753Y-15120650D02*
X14630182Y-15120650D01*
X14630182Y-15120650D02*
X14611134Y-15130174D01*
X14611134Y-15130174D02*
X14601610Y-15139698D01*
X14811134Y-15253984D02*
X14792087Y-15244460D01*
X14792087Y-15244460D02*
X14782563Y-15234936D01*
X14782563Y-15234936D02*
X14773039Y-15215888D01*
X14773039Y-15215888D02*
X14773039Y-15158746D01*
X14773039Y-15158746D02*
X14782563Y-15139698D01*
X14782563Y-15139698D02*
X14792087Y-15130174D01*
X14792087Y-15130174D02*
X14811134Y-15120650D01*
X14811134Y-15120650D02*
X14839706Y-15120650D01*
X14839706Y-15120650D02*
X14858753Y-15130174D01*
X14858753Y-15130174D02*
X14868277Y-15139698D01*
X14868277Y-15139698D02*
X14877801Y-15158746D01*
X14877801Y-15158746D02*
X14877801Y-15215888D01*
X14877801Y-15215888D02*
X14868277Y-15234936D01*
X14868277Y-15234936D02*
X14858753Y-15244460D01*
X14858753Y-15244460D02*
X14839706Y-15253984D01*
X14839706Y-15253984D02*
X14811134Y-15253984D01*
X14992087Y-15253984D02*
X14973039Y-15244460D01*
X14973039Y-15244460D02*
X14963515Y-15225412D01*
X14963515Y-15225412D02*
X14963515Y-15053984D01*
X15144468Y-15244460D02*
X15125420Y-15253984D01*
X15125420Y-15253984D02*
X15087325Y-15253984D01*
X15087325Y-15253984D02*
X15068277Y-15244460D01*
X15068277Y-15244460D02*
X15058753Y-15225412D01*
X15058753Y-15225412D02*
X15058753Y-15149222D01*
X15058753Y-15149222D02*
X15068277Y-15130174D01*
X15068277Y-15130174D02*
X15087325Y-15120650D01*
X15087325Y-15120650D02*
X15125420Y-15120650D01*
X15125420Y-15120650D02*
X15144468Y-15130174D01*
X15144468Y-15130174D02*
X15153991Y-15149222D01*
X15153991Y-15149222D02*
X15153991Y-15168269D01*
X15153991Y-15168269D02*
X15058753Y-15187317D01*
X15230182Y-15244460D02*
X15249230Y-15253984D01*
X15249230Y-15253984D02*
X15287325Y-15253984D01*
X15287325Y-15253984D02*
X15306372Y-15244460D01*
X15306372Y-15244460D02*
X15315896Y-15225412D01*
X15315896Y-15225412D02*
X15315896Y-15215888D01*
X15315896Y-15215888D02*
X15306372Y-15196841D01*
X15306372Y-15196841D02*
X15287325Y-15187317D01*
X15287325Y-15187317D02*
X15258753Y-15187317D01*
X15258753Y-15187317D02*
X15239706Y-15177793D01*
X15239706Y-15177793D02*
X15230182Y-15158746D01*
X15230182Y-15158746D02*
X15230182Y-15149222D01*
X15230182Y-15149222D02*
X15239706Y-15130174D01*
X15239706Y-15130174D02*
X15258753Y-15120650D01*
X15258753Y-15120650D02*
X15287325Y-15120650D01*
X15287325Y-15120650D02*
X15306372Y-15130174D01*
X15382563Y-15330174D02*
X15392087Y-15320650D01*
X15392087Y-15320650D02*
X15411134Y-15292079D01*
X15411134Y-15292079D02*
X15420658Y-15273031D01*
X15420658Y-15273031D02*
X15430182Y-15244460D01*
X15430182Y-15244460D02*
X15439706Y-15196841D01*
X15439706Y-15196841D02*
X15439706Y-15158746D01*
X15439706Y-15158746D02*
X15430182Y-15111127D01*
X15430182Y-15111127D02*
X15420658Y-15082555D01*
X15420658Y-15082555D02*
X15411134Y-15063508D01*
X15411134Y-15063508D02*
X15392087Y-15034936D01*
X15392087Y-15034936D02*
X15382563Y-15025412D01*
D12*
X10607500Y-15426500D02*
G75*
G02*
X10507500Y-15426500I-50000J0D01*
G01*
X10507500Y-15426500D02*
G75*
G02*
X10607500Y-15426500I50000J0D01*
G01*
D11*
X10973039Y-15517984D02*
X10858753Y-15517984D01*
X10915896Y-15517984D02*
X10915896Y-15317984D01*
X10915896Y-15317984D02*
X10896848Y-15346555D01*
X10896848Y-15346555D02*
X10877801Y-15365603D01*
X10877801Y-15365603D02*
X10858753Y-15375127D01*
X11058753Y-15498936D02*
X11068277Y-15508460D01*
X11068277Y-15508460D02*
X11058753Y-15517984D01*
X11058753Y-15517984D02*
X11049229Y-15508460D01*
X11049229Y-15508460D02*
X11058753Y-15498936D01*
X11058753Y-15498936D02*
X11058753Y-15517984D01*
X11192086Y-15317984D02*
X11211134Y-15317984D01*
X11211134Y-15317984D02*
X11230182Y-15327508D01*
X11230182Y-15327508D02*
X11239705Y-15337031D01*
X11239705Y-15337031D02*
X11249229Y-15356079D01*
X11249229Y-15356079D02*
X11258753Y-15394174D01*
X11258753Y-15394174D02*
X11258753Y-15441793D01*
X11258753Y-15441793D02*
X11249229Y-15479888D01*
X11249229Y-15479888D02*
X11239705Y-15498936D01*
X11239705Y-15498936D02*
X11230182Y-15508460D01*
X11230182Y-15508460D02*
X11211134Y-15517984D01*
X11211134Y-15517984D02*
X11192086Y-15517984D01*
X11192086Y-15517984D02*
X11173039Y-15508460D01*
X11173039Y-15508460D02*
X11163515Y-15498936D01*
X11163515Y-15498936D02*
X11153991Y-15479888D01*
X11153991Y-15479888D02*
X11144467Y-15441793D01*
X11144467Y-15441793D02*
X11144467Y-15394174D01*
X11144467Y-15394174D02*
X11153991Y-15356079D01*
X11153991Y-15356079D02*
X11163515Y-15337031D01*
X11163515Y-15337031D02*
X11173039Y-15327508D01*
X11173039Y-15327508D02*
X11192086Y-15317984D01*
X11382562Y-15317984D02*
X11401610Y-15317984D01*
X11401610Y-15317984D02*
X11420658Y-15327508D01*
X11420658Y-15327508D02*
X11430182Y-15337031D01*
X11430182Y-15337031D02*
X11439705Y-15356079D01*
X11439705Y-15356079D02*
X11449229Y-15394174D01*
X11449229Y-15394174D02*
X11449229Y-15441793D01*
X11449229Y-15441793D02*
X11439705Y-15479888D01*
X11439705Y-15479888D02*
X11430182Y-15498936D01*
X11430182Y-15498936D02*
X11420658Y-15508460D01*
X11420658Y-15508460D02*
X11401610Y-15517984D01*
X11401610Y-15517984D02*
X11382562Y-15517984D01*
X11382562Y-15517984D02*
X11363515Y-15508460D01*
X11363515Y-15508460D02*
X11353991Y-15498936D01*
X11353991Y-15498936D02*
X11344467Y-15479888D01*
X11344467Y-15479888D02*
X11334943Y-15441793D01*
X11334943Y-15441793D02*
X11334943Y-15394174D01*
X11334943Y-15394174D02*
X11344467Y-15356079D01*
X11344467Y-15356079D02*
X11353991Y-15337031D01*
X11353991Y-15337031D02*
X11363515Y-15327508D01*
X11363515Y-15327508D02*
X11382562Y-15317984D01*
X11573039Y-15317984D02*
X11592086Y-15317984D01*
X11592086Y-15317984D02*
X11611134Y-15327508D01*
X11611134Y-15327508D02*
X11620658Y-15337031D01*
X11620658Y-15337031D02*
X11630182Y-15356079D01*
X11630182Y-15356079D02*
X11639705Y-15394174D01*
X11639705Y-15394174D02*
X11639705Y-15441793D01*
X11639705Y-15441793D02*
X11630182Y-15479888D01*
X11630182Y-15479888D02*
X11620658Y-15498936D01*
X11620658Y-15498936D02*
X11611134Y-15508460D01*
X11611134Y-15508460D02*
X11592086Y-15517984D01*
X11592086Y-15517984D02*
X11573039Y-15517984D01*
X11573039Y-15517984D02*
X11553991Y-15508460D01*
X11553991Y-15508460D02*
X11544467Y-15498936D01*
X11544467Y-15498936D02*
X11534943Y-15479888D01*
X11534943Y-15479888D02*
X11525420Y-15441793D01*
X11525420Y-15441793D02*
X11525420Y-15394174D01*
X11525420Y-15394174D02*
X11534943Y-15356079D01*
X11534943Y-15356079D02*
X11544467Y-15337031D01*
X11544467Y-15337031D02*
X11553991Y-15327508D01*
X11553991Y-15327508D02*
X11573039Y-15317984D01*
X11725420Y-15517984D02*
X11725420Y-15384650D01*
X11725420Y-15403698D02*
X11734943Y-15394174D01*
X11734943Y-15394174D02*
X11753991Y-15384650D01*
X11753991Y-15384650D02*
X11782563Y-15384650D01*
X11782563Y-15384650D02*
X11801610Y-15394174D01*
X11801610Y-15394174D02*
X11811134Y-15413222D01*
X11811134Y-15413222D02*
X11811134Y-15517984D01*
X11811134Y-15413222D02*
X11820658Y-15394174D01*
X11820658Y-15394174D02*
X11839705Y-15384650D01*
X11839705Y-15384650D02*
X11868277Y-15384650D01*
X11868277Y-15384650D02*
X11887324Y-15394174D01*
X11887324Y-15394174D02*
X11896848Y-15413222D01*
X11896848Y-15413222D02*
X11896848Y-15517984D01*
X11992086Y-15517984D02*
X11992086Y-15384650D01*
X11992086Y-15403698D02*
X12001610Y-15394174D01*
X12001610Y-15394174D02*
X12020658Y-15384650D01*
X12020658Y-15384650D02*
X12049229Y-15384650D01*
X12049229Y-15384650D02*
X12068277Y-15394174D01*
X12068277Y-15394174D02*
X12077801Y-15413222D01*
X12077801Y-15413222D02*
X12077801Y-15517984D01*
X12077801Y-15413222D02*
X12087324Y-15394174D01*
X12087324Y-15394174D02*
X12106372Y-15384650D01*
X12106372Y-15384650D02*
X12134943Y-15384650D01*
X12134943Y-15384650D02*
X12153991Y-15394174D01*
X12153991Y-15394174D02*
X12163515Y-15413222D01*
X12163515Y-15413222D02*
X12163515Y-15517984D01*
X12553991Y-15308460D02*
X12382563Y-15565603D01*
X12811134Y-15317984D02*
X12830182Y-15317984D01*
X12830182Y-15317984D02*
X12849229Y-15327508D01*
X12849229Y-15327508D02*
X12858753Y-15337031D01*
X12858753Y-15337031D02*
X12868277Y-15356079D01*
X12868277Y-15356079D02*
X12877801Y-15394174D01*
X12877801Y-15394174D02*
X12877801Y-15441793D01*
X12877801Y-15441793D02*
X12868277Y-15479888D01*
X12868277Y-15479888D02*
X12858753Y-15498936D01*
X12858753Y-15498936D02*
X12849229Y-15508460D01*
X12849229Y-15508460D02*
X12830182Y-15517984D01*
X12830182Y-15517984D02*
X12811134Y-15517984D01*
X12811134Y-15517984D02*
X12792086Y-15508460D01*
X12792086Y-15508460D02*
X12782563Y-15498936D01*
X12782563Y-15498936D02*
X12773039Y-15479888D01*
X12773039Y-15479888D02*
X12763515Y-15441793D01*
X12763515Y-15441793D02*
X12763515Y-15394174D01*
X12763515Y-15394174D02*
X12773039Y-15356079D01*
X12773039Y-15356079D02*
X12782563Y-15337031D01*
X12782563Y-15337031D02*
X12792086Y-15327508D01*
X12792086Y-15327508D02*
X12811134Y-15317984D01*
X12963515Y-15498936D02*
X12973039Y-15508460D01*
X12973039Y-15508460D02*
X12963515Y-15517984D01*
X12963515Y-15517984D02*
X12953991Y-15508460D01*
X12953991Y-15508460D02*
X12963515Y-15498936D01*
X12963515Y-15498936D02*
X12963515Y-15517984D01*
X13096848Y-15317984D02*
X13115896Y-15317984D01*
X13115896Y-15317984D02*
X13134944Y-15327508D01*
X13134944Y-15327508D02*
X13144467Y-15337031D01*
X13144467Y-15337031D02*
X13153991Y-15356079D01*
X13153991Y-15356079D02*
X13163515Y-15394174D01*
X13163515Y-15394174D02*
X13163515Y-15441793D01*
X13163515Y-15441793D02*
X13153991Y-15479888D01*
X13153991Y-15479888D02*
X13144467Y-15498936D01*
X13144467Y-15498936D02*
X13134944Y-15508460D01*
X13134944Y-15508460D02*
X13115896Y-15517984D01*
X13115896Y-15517984D02*
X13096848Y-15517984D01*
X13096848Y-15517984D02*
X13077801Y-15508460D01*
X13077801Y-15508460D02*
X13068277Y-15498936D01*
X13068277Y-15498936D02*
X13058753Y-15479888D01*
X13058753Y-15479888D02*
X13049229Y-15441793D01*
X13049229Y-15441793D02*
X13049229Y-15394174D01*
X13049229Y-15394174D02*
X13058753Y-15356079D01*
X13058753Y-15356079D02*
X13068277Y-15337031D01*
X13068277Y-15337031D02*
X13077801Y-15327508D01*
X13077801Y-15327508D02*
X13096848Y-15317984D01*
X13230182Y-15317984D02*
X13353991Y-15317984D01*
X13353991Y-15317984D02*
X13287325Y-15394174D01*
X13287325Y-15394174D02*
X13315896Y-15394174D01*
X13315896Y-15394174D02*
X13334944Y-15403698D01*
X13334944Y-15403698D02*
X13344467Y-15413222D01*
X13344467Y-15413222D02*
X13353991Y-15432269D01*
X13353991Y-15432269D02*
X13353991Y-15479888D01*
X13353991Y-15479888D02*
X13344467Y-15498936D01*
X13344467Y-15498936D02*
X13334944Y-15508460D01*
X13334944Y-15508460D02*
X13315896Y-15517984D01*
X13315896Y-15517984D02*
X13258753Y-15517984D01*
X13258753Y-15517984D02*
X13239706Y-15508460D01*
X13239706Y-15508460D02*
X13230182Y-15498936D01*
X13449229Y-15517984D02*
X13487325Y-15517984D01*
X13487325Y-15517984D02*
X13506372Y-15508460D01*
X13506372Y-15508460D02*
X13515896Y-15498936D01*
X13515896Y-15498936D02*
X13534944Y-15470365D01*
X13534944Y-15470365D02*
X13544467Y-15432269D01*
X13544467Y-15432269D02*
X13544467Y-15356079D01*
X13544467Y-15356079D02*
X13534944Y-15337031D01*
X13534944Y-15337031D02*
X13525420Y-15327508D01*
X13525420Y-15327508D02*
X13506372Y-15317984D01*
X13506372Y-15317984D02*
X13468277Y-15317984D01*
X13468277Y-15317984D02*
X13449229Y-15327508D01*
X13449229Y-15327508D02*
X13439706Y-15337031D01*
X13439706Y-15337031D02*
X13430182Y-15356079D01*
X13430182Y-15356079D02*
X13430182Y-15403698D01*
X13430182Y-15403698D02*
X13439706Y-15422746D01*
X13439706Y-15422746D02*
X13449229Y-15432269D01*
X13449229Y-15432269D02*
X13468277Y-15441793D01*
X13468277Y-15441793D02*
X13506372Y-15441793D01*
X13506372Y-15441793D02*
X13525420Y-15432269D01*
X13525420Y-15432269D02*
X13534944Y-15422746D01*
X13534944Y-15422746D02*
X13544467Y-15403698D01*
X13715896Y-15384650D02*
X13715896Y-15517984D01*
X13668277Y-15308460D02*
X13620658Y-15451317D01*
X13620658Y-15451317D02*
X13744467Y-15451317D01*
X13811134Y-15317984D02*
X13811134Y-15356079D01*
X13887325Y-15317984D02*
X13887325Y-15356079D01*
X14182563Y-15594174D02*
X14173039Y-15584650D01*
X14173039Y-15584650D02*
X14153991Y-15556079D01*
X14153991Y-15556079D02*
X14144468Y-15537031D01*
X14144468Y-15537031D02*
X14134944Y-15508460D01*
X14134944Y-15508460D02*
X14125420Y-15460841D01*
X14125420Y-15460841D02*
X14125420Y-15422746D01*
X14125420Y-15422746D02*
X14134944Y-15375127D01*
X14134944Y-15375127D02*
X14144468Y-15346555D01*
X14144468Y-15346555D02*
X14153991Y-15327508D01*
X14153991Y-15327508D02*
X14173039Y-15298936D01*
X14173039Y-15298936D02*
X14182563Y-15289412D01*
X14268277Y-15517984D02*
X14306372Y-15517984D01*
X14306372Y-15517984D02*
X14325420Y-15508460D01*
X14325420Y-15508460D02*
X14334944Y-15498936D01*
X14334944Y-15498936D02*
X14353991Y-15470365D01*
X14353991Y-15470365D02*
X14363515Y-15432269D01*
X14363515Y-15432269D02*
X14363515Y-15356079D01*
X14363515Y-15356079D02*
X14353991Y-15337031D01*
X14353991Y-15337031D02*
X14344468Y-15327508D01*
X14344468Y-15327508D02*
X14325420Y-15317984D01*
X14325420Y-15317984D02*
X14287325Y-15317984D01*
X14287325Y-15317984D02*
X14268277Y-15327508D01*
X14268277Y-15327508D02*
X14258753Y-15337031D01*
X14258753Y-15337031D02*
X14249229Y-15356079D01*
X14249229Y-15356079D02*
X14249229Y-15403698D01*
X14249229Y-15403698D02*
X14258753Y-15422746D01*
X14258753Y-15422746D02*
X14268277Y-15432269D01*
X14268277Y-15432269D02*
X14287325Y-15441793D01*
X14287325Y-15441793D02*
X14325420Y-15441793D01*
X14325420Y-15441793D02*
X14344468Y-15432269D01*
X14344468Y-15432269D02*
X14353991Y-15422746D01*
X14353991Y-15422746D02*
X14363515Y-15403698D01*
X14439706Y-15337031D02*
X14449229Y-15327508D01*
X14449229Y-15327508D02*
X14468277Y-15317984D01*
X14468277Y-15317984D02*
X14515896Y-15317984D01*
X14515896Y-15317984D02*
X14534944Y-15327508D01*
X14534944Y-15327508D02*
X14544468Y-15337031D01*
X14544468Y-15337031D02*
X14553991Y-15356079D01*
X14553991Y-15356079D02*
X14553991Y-15375127D01*
X14553991Y-15375127D02*
X14544468Y-15403698D01*
X14544468Y-15403698D02*
X14430182Y-15517984D01*
X14430182Y-15517984D02*
X14553991Y-15517984D01*
X14792087Y-15517984D02*
X14792087Y-15317984D01*
X14877801Y-15517984D02*
X14877801Y-15413222D01*
X14877801Y-15413222D02*
X14868277Y-15394174D01*
X14868277Y-15394174D02*
X14849230Y-15384650D01*
X14849230Y-15384650D02*
X14820658Y-15384650D01*
X14820658Y-15384650D02*
X14801610Y-15394174D01*
X14801610Y-15394174D02*
X14792087Y-15403698D01*
X15001610Y-15517984D02*
X14982563Y-15508460D01*
X14982563Y-15508460D02*
X14973039Y-15498936D01*
X14973039Y-15498936D02*
X14963515Y-15479888D01*
X14963515Y-15479888D02*
X14963515Y-15422746D01*
X14963515Y-15422746D02*
X14973039Y-15403698D01*
X14973039Y-15403698D02*
X14982563Y-15394174D01*
X14982563Y-15394174D02*
X15001610Y-15384650D01*
X15001610Y-15384650D02*
X15030182Y-15384650D01*
X15030182Y-15384650D02*
X15049230Y-15394174D01*
X15049230Y-15394174D02*
X15058753Y-15403698D01*
X15058753Y-15403698D02*
X15068277Y-15422746D01*
X15068277Y-15422746D02*
X15068277Y-15479888D01*
X15068277Y-15479888D02*
X15058753Y-15498936D01*
X15058753Y-15498936D02*
X15049230Y-15508460D01*
X15049230Y-15508460D02*
X15030182Y-15517984D01*
X15030182Y-15517984D02*
X15001610Y-15517984D01*
X15182563Y-15517984D02*
X15163515Y-15508460D01*
X15163515Y-15508460D02*
X15153991Y-15489412D01*
X15153991Y-15489412D02*
X15153991Y-15317984D01*
X15334944Y-15508460D02*
X15315896Y-15517984D01*
X15315896Y-15517984D02*
X15277801Y-15517984D01*
X15277801Y-15517984D02*
X15258753Y-15508460D01*
X15258753Y-15508460D02*
X15249230Y-15489412D01*
X15249230Y-15489412D02*
X15249230Y-15413222D01*
X15249230Y-15413222D02*
X15258753Y-15394174D01*
X15258753Y-15394174D02*
X15277801Y-15384650D01*
X15277801Y-15384650D02*
X15315896Y-15384650D01*
X15315896Y-15384650D02*
X15334944Y-15394174D01*
X15334944Y-15394174D02*
X15344468Y-15413222D01*
X15344468Y-15413222D02*
X15344468Y-15432269D01*
X15344468Y-15432269D02*
X15249230Y-15451317D01*
X15420658Y-15508460D02*
X15439706Y-15517984D01*
X15439706Y-15517984D02*
X15477801Y-15517984D01*
X15477801Y-15517984D02*
X15496849Y-15508460D01*
X15496849Y-15508460D02*
X15506372Y-15489412D01*
X15506372Y-15489412D02*
X15506372Y-15479888D01*
X15506372Y-15479888D02*
X15496849Y-15460841D01*
X15496849Y-15460841D02*
X15477801Y-15451317D01*
X15477801Y-15451317D02*
X15449230Y-15451317D01*
X15449230Y-15451317D02*
X15430182Y-15441793D01*
X15430182Y-15441793D02*
X15420658Y-15422746D01*
X15420658Y-15422746D02*
X15420658Y-15413222D01*
X15420658Y-15413222D02*
X15430182Y-15394174D01*
X15430182Y-15394174D02*
X15449230Y-15384650D01*
X15449230Y-15384650D02*
X15477801Y-15384650D01*
X15477801Y-15384650D02*
X15496849Y-15394174D01*
X15573039Y-15594174D02*
X15582563Y-15584650D01*
X15582563Y-15584650D02*
X15601611Y-15556079D01*
X15601611Y-15556079D02*
X15611134Y-15537031D01*
X15611134Y-15537031D02*
X15620658Y-15508460D01*
X15620658Y-15508460D02*
X15630182Y-15460841D01*
X15630182Y-15460841D02*
X15630182Y-15422746D01*
X15630182Y-15422746D02*
X15620658Y-15375127D01*
X15620658Y-15375127D02*
X15611134Y-15346555D01*
X15611134Y-15346555D02*
X15601611Y-15327508D01*
X15601611Y-15327508D02*
X15582563Y-15298936D01*
X15582563Y-15298936D02*
X15573039Y-15289412D01*
M02*
