%TF.GenerationSoftware,KiCad,Pcbnew,8.0.0*%
%TF.CreationDate,2024-06-21T11:16:54+02:00*%
%TF.ProjectId,lora,6c6f7261-2e6b-4696-9361-645f70636258,rev?*%
%TF.SameCoordinates,Original*%
%TF.FileFunction,Drillmap*%
%TF.FilePolarity,Positive*%
%FSLAX45Y45*%
G04 Gerber Fmt 4.5, Leading zero omitted, Abs format (unit mm)*
G04 Created by KiCad (PCBNEW 8.0.0) date 2024-06-21 11:16:54*
%MOMM*%
%LPD*%
G01*
G04 APERTURE LIST*
%ADD10C,0.050000*%
%ADD11C,0.200000*%
%ADD12C,0.275000*%
G04 APERTURE END LIST*
D10*
X19850000Y-6400000D02*
G75*
G02*
X19530000Y-6400000I-160000J0D01*
G01*
X19530000Y-6400000D02*
G75*
G02*
X19850000Y-6400000I160000J0D01*
G01*
X13660000Y-14520000D02*
X11410000Y-14520000D01*
X16400000Y-5710000D02*
X16400000Y-5510000D01*
X19900000Y-13430000D02*
X20200000Y-13430000D01*
X19850000Y-13760000D02*
G75*
G02*
X19530000Y-13760000I-160000J0D01*
G01*
X19530000Y-13760000D02*
G75*
G02*
X19850000Y-13760000I160000J0D01*
G01*
X17600000Y-14320000D02*
X13660000Y-14320000D01*
X19900000Y-6760000D02*
X19900000Y-13430000D01*
X12410000Y-5510000D02*
X15310000Y-5510000D01*
X20200000Y-13430000D02*
X20200000Y-14430000D01*
X12410000Y-5610000D02*
X12410000Y-5510000D01*
X17600000Y-14520000D02*
X17600000Y-14320000D01*
X18500000Y-14520000D02*
X17600000Y-14520000D01*
X10910000Y-12170000D02*
X10910000Y-9110000D01*
X11280000Y-6020000D02*
G75*
G02*
X10960000Y-6020000I-160000J0D01*
G01*
X10960000Y-6020000D02*
G75*
G02*
X11280000Y-6020000I160000J0D01*
G01*
X20200000Y-5610000D02*
X20200000Y-6760000D01*
X15310000Y-5510000D02*
X15310000Y-5710000D01*
X20200000Y-14430000D02*
X18500000Y-14430000D01*
X20200000Y-6760000D02*
X19900000Y-6760000D01*
X10610000Y-9110000D02*
X10610000Y-5610000D01*
X16400000Y-5510000D02*
X19400000Y-5510000D01*
X12640000Y-7964000D02*
G75*
G02*
X12320000Y-7964000I-160000J0D01*
G01*
X12320000Y-7964000D02*
G75*
G02*
X12640000Y-7964000I160000J0D01*
G01*
X18500000Y-14430000D02*
X18500000Y-14520000D01*
X10610000Y-5610000D02*
X12410000Y-5610000D01*
X10910000Y-9110000D02*
X10610000Y-9110000D01*
X11410000Y-14520000D02*
X11410000Y-14420000D01*
X15310000Y-5710000D02*
X16400000Y-5710000D01*
X10610000Y-14420000D02*
X10610000Y-12170000D01*
X12640000Y-13884000D02*
G75*
G02*
X12320000Y-13884000I-160000J0D01*
G01*
X12320000Y-13884000D02*
G75*
G02*
X12640000Y-13884000I160000J0D01*
G01*
X13660000Y-14320000D02*
X13660000Y-14520000D01*
X19400000Y-5510000D02*
X19400000Y-5610000D01*
X10610000Y-12170000D02*
X10910000Y-12170000D01*
X19400000Y-5610000D02*
X20200000Y-5610000D01*
X11410000Y-14420000D02*
X10610000Y-14420000D01*
X11280000Y-14010000D02*
G75*
G02*
X10960000Y-14010000I-160000J0D01*
G01*
X10960000Y-14010000D02*
G75*
G02*
X11280000Y-14010000I160000J0D01*
G01*
D11*
D12*
X15039500Y-7893500D02*
X15314500Y-8168500D01*
X15314500Y-7893500D02*
X15039500Y-8168500D01*
X15039500Y-13693500D02*
X15314500Y-13968500D01*
X15314500Y-13693500D02*
X15039500Y-13968500D01*
X17339500Y-7893500D02*
X17614500Y-8168500D01*
X17614500Y-7893500D02*
X17339500Y-8168500D01*
X17339500Y-13693500D02*
X17614500Y-13968500D01*
X17614500Y-13693500D02*
X17339500Y-13968500D01*
D11*
X10868277Y-14833984D02*
X10868277Y-14633984D01*
X10868277Y-14633984D02*
X10915896Y-14633984D01*
X10915896Y-14633984D02*
X10944467Y-14643508D01*
X10944467Y-14643508D02*
X10963515Y-14662555D01*
X10963515Y-14662555D02*
X10973039Y-14681603D01*
X10973039Y-14681603D02*
X10982563Y-14719698D01*
X10982563Y-14719698D02*
X10982563Y-14748269D01*
X10982563Y-14748269D02*
X10973039Y-14786365D01*
X10973039Y-14786365D02*
X10963515Y-14805412D01*
X10963515Y-14805412D02*
X10944467Y-14824460D01*
X10944467Y-14824460D02*
X10915896Y-14833984D01*
X10915896Y-14833984D02*
X10868277Y-14833984D01*
X11068277Y-14833984D02*
X11068277Y-14700650D01*
X11068277Y-14738746D02*
X11077801Y-14719698D01*
X11077801Y-14719698D02*
X11087324Y-14710174D01*
X11087324Y-14710174D02*
X11106372Y-14700650D01*
X11106372Y-14700650D02*
X11125420Y-14700650D01*
X11192086Y-14833984D02*
X11192086Y-14700650D01*
X11192086Y-14633984D02*
X11182563Y-14643508D01*
X11182563Y-14643508D02*
X11192086Y-14653031D01*
X11192086Y-14653031D02*
X11201610Y-14643508D01*
X11201610Y-14643508D02*
X11192086Y-14633984D01*
X11192086Y-14633984D02*
X11192086Y-14653031D01*
X11315896Y-14833984D02*
X11296848Y-14824460D01*
X11296848Y-14824460D02*
X11287324Y-14805412D01*
X11287324Y-14805412D02*
X11287324Y-14633984D01*
X11420658Y-14833984D02*
X11401610Y-14824460D01*
X11401610Y-14824460D02*
X11392086Y-14805412D01*
X11392086Y-14805412D02*
X11392086Y-14633984D01*
X11649229Y-14833984D02*
X11649229Y-14633984D01*
X11649229Y-14633984D02*
X11715896Y-14776841D01*
X11715896Y-14776841D02*
X11782562Y-14633984D01*
X11782562Y-14633984D02*
X11782562Y-14833984D01*
X11963515Y-14833984D02*
X11963515Y-14729222D01*
X11963515Y-14729222D02*
X11953991Y-14710174D01*
X11953991Y-14710174D02*
X11934943Y-14700650D01*
X11934943Y-14700650D02*
X11896848Y-14700650D01*
X11896848Y-14700650D02*
X11877801Y-14710174D01*
X11963515Y-14824460D02*
X11944467Y-14833984D01*
X11944467Y-14833984D02*
X11896848Y-14833984D01*
X11896848Y-14833984D02*
X11877801Y-14824460D01*
X11877801Y-14824460D02*
X11868277Y-14805412D01*
X11868277Y-14805412D02*
X11868277Y-14786365D01*
X11868277Y-14786365D02*
X11877801Y-14767317D01*
X11877801Y-14767317D02*
X11896848Y-14757793D01*
X11896848Y-14757793D02*
X11944467Y-14757793D01*
X11944467Y-14757793D02*
X11963515Y-14748269D01*
X12058753Y-14700650D02*
X12058753Y-14900650D01*
X12058753Y-14710174D02*
X12077801Y-14700650D01*
X12077801Y-14700650D02*
X12115896Y-14700650D01*
X12115896Y-14700650D02*
X12134943Y-14710174D01*
X12134943Y-14710174D02*
X12144467Y-14719698D01*
X12144467Y-14719698D02*
X12153991Y-14738746D01*
X12153991Y-14738746D02*
X12153991Y-14795888D01*
X12153991Y-14795888D02*
X12144467Y-14814936D01*
X12144467Y-14814936D02*
X12134943Y-14824460D01*
X12134943Y-14824460D02*
X12115896Y-14833984D01*
X12115896Y-14833984D02*
X12077801Y-14833984D01*
X12077801Y-14833984D02*
X12058753Y-14824460D01*
X12239705Y-14814936D02*
X12249229Y-14824460D01*
X12249229Y-14824460D02*
X12239705Y-14833984D01*
X12239705Y-14833984D02*
X12230182Y-14824460D01*
X12230182Y-14824460D02*
X12239705Y-14814936D01*
X12239705Y-14814936D02*
X12239705Y-14833984D01*
X12239705Y-14710174D02*
X12249229Y-14719698D01*
X12249229Y-14719698D02*
X12239705Y-14729222D01*
X12239705Y-14729222D02*
X12230182Y-14719698D01*
X12230182Y-14719698D02*
X12239705Y-14710174D01*
X12239705Y-14710174D02*
X12239705Y-14729222D01*
X10407500Y-15062500D02*
X10607500Y-15262500D01*
X10607500Y-15062500D02*
X10407500Y-15262500D01*
X10858753Y-15073031D02*
X10868277Y-15063508D01*
X10868277Y-15063508D02*
X10887324Y-15053984D01*
X10887324Y-15053984D02*
X10934944Y-15053984D01*
X10934944Y-15053984D02*
X10953991Y-15063508D01*
X10953991Y-15063508D02*
X10963515Y-15073031D01*
X10963515Y-15073031D02*
X10973039Y-15092079D01*
X10973039Y-15092079D02*
X10973039Y-15111127D01*
X10973039Y-15111127D02*
X10963515Y-15139698D01*
X10963515Y-15139698D02*
X10849229Y-15253984D01*
X10849229Y-15253984D02*
X10973039Y-15253984D01*
X11058753Y-15234936D02*
X11068277Y-15244460D01*
X11068277Y-15244460D02*
X11058753Y-15253984D01*
X11058753Y-15253984D02*
X11049229Y-15244460D01*
X11049229Y-15244460D02*
X11058753Y-15234936D01*
X11058753Y-15234936D02*
X11058753Y-15253984D01*
X11134944Y-15053984D02*
X11268277Y-15053984D01*
X11268277Y-15053984D02*
X11182563Y-15253984D01*
X11439705Y-15053984D02*
X11344467Y-15053984D01*
X11344467Y-15053984D02*
X11334943Y-15149222D01*
X11334943Y-15149222D02*
X11344467Y-15139698D01*
X11344467Y-15139698D02*
X11363515Y-15130174D01*
X11363515Y-15130174D02*
X11411134Y-15130174D01*
X11411134Y-15130174D02*
X11430182Y-15139698D01*
X11430182Y-15139698D02*
X11439705Y-15149222D01*
X11439705Y-15149222D02*
X11449229Y-15168269D01*
X11449229Y-15168269D02*
X11449229Y-15215888D01*
X11449229Y-15215888D02*
X11439705Y-15234936D01*
X11439705Y-15234936D02*
X11430182Y-15244460D01*
X11430182Y-15244460D02*
X11411134Y-15253984D01*
X11411134Y-15253984D02*
X11363515Y-15253984D01*
X11363515Y-15253984D02*
X11344467Y-15244460D01*
X11344467Y-15244460D02*
X11334943Y-15234936D01*
X11573039Y-15053984D02*
X11592086Y-15053984D01*
X11592086Y-15053984D02*
X11611134Y-15063508D01*
X11611134Y-15063508D02*
X11620658Y-15073031D01*
X11620658Y-15073031D02*
X11630182Y-15092079D01*
X11630182Y-15092079D02*
X11639705Y-15130174D01*
X11639705Y-15130174D02*
X11639705Y-15177793D01*
X11639705Y-15177793D02*
X11630182Y-15215888D01*
X11630182Y-15215888D02*
X11620658Y-15234936D01*
X11620658Y-15234936D02*
X11611134Y-15244460D01*
X11611134Y-15244460D02*
X11592086Y-15253984D01*
X11592086Y-15253984D02*
X11573039Y-15253984D01*
X11573039Y-15253984D02*
X11553991Y-15244460D01*
X11553991Y-15244460D02*
X11544467Y-15234936D01*
X11544467Y-15234936D02*
X11534943Y-15215888D01*
X11534943Y-15215888D02*
X11525420Y-15177793D01*
X11525420Y-15177793D02*
X11525420Y-15130174D01*
X11525420Y-15130174D02*
X11534943Y-15092079D01*
X11534943Y-15092079D02*
X11544467Y-15073031D01*
X11544467Y-15073031D02*
X11553991Y-15063508D01*
X11553991Y-15063508D02*
X11573039Y-15053984D01*
X11725420Y-15253984D02*
X11725420Y-15120650D01*
X11725420Y-15139698D02*
X11734943Y-15130174D01*
X11734943Y-15130174D02*
X11753991Y-15120650D01*
X11753991Y-15120650D02*
X11782563Y-15120650D01*
X11782563Y-15120650D02*
X11801610Y-15130174D01*
X11801610Y-15130174D02*
X11811134Y-15149222D01*
X11811134Y-15149222D02*
X11811134Y-15253984D01*
X11811134Y-15149222D02*
X11820658Y-15130174D01*
X11820658Y-15130174D02*
X11839705Y-15120650D01*
X11839705Y-15120650D02*
X11868277Y-15120650D01*
X11868277Y-15120650D02*
X11887324Y-15130174D01*
X11887324Y-15130174D02*
X11896848Y-15149222D01*
X11896848Y-15149222D02*
X11896848Y-15253984D01*
X11992086Y-15253984D02*
X11992086Y-15120650D01*
X11992086Y-15139698D02*
X12001610Y-15130174D01*
X12001610Y-15130174D02*
X12020658Y-15120650D01*
X12020658Y-15120650D02*
X12049229Y-15120650D01*
X12049229Y-15120650D02*
X12068277Y-15130174D01*
X12068277Y-15130174D02*
X12077801Y-15149222D01*
X12077801Y-15149222D02*
X12077801Y-15253984D01*
X12077801Y-15149222D02*
X12087324Y-15130174D01*
X12087324Y-15130174D02*
X12106372Y-15120650D01*
X12106372Y-15120650D02*
X12134943Y-15120650D01*
X12134943Y-15120650D02*
X12153991Y-15130174D01*
X12153991Y-15130174D02*
X12163515Y-15149222D01*
X12163515Y-15149222D02*
X12163515Y-15253984D01*
X12553991Y-15044460D02*
X12382563Y-15301603D01*
X12811134Y-15053984D02*
X12830182Y-15053984D01*
X12830182Y-15053984D02*
X12849229Y-15063508D01*
X12849229Y-15063508D02*
X12858753Y-15073031D01*
X12858753Y-15073031D02*
X12868277Y-15092079D01*
X12868277Y-15092079D02*
X12877801Y-15130174D01*
X12877801Y-15130174D02*
X12877801Y-15177793D01*
X12877801Y-15177793D02*
X12868277Y-15215888D01*
X12868277Y-15215888D02*
X12858753Y-15234936D01*
X12858753Y-15234936D02*
X12849229Y-15244460D01*
X12849229Y-15244460D02*
X12830182Y-15253984D01*
X12830182Y-15253984D02*
X12811134Y-15253984D01*
X12811134Y-15253984D02*
X12792086Y-15244460D01*
X12792086Y-15244460D02*
X12782563Y-15234936D01*
X12782563Y-15234936D02*
X12773039Y-15215888D01*
X12773039Y-15215888D02*
X12763515Y-15177793D01*
X12763515Y-15177793D02*
X12763515Y-15130174D01*
X12763515Y-15130174D02*
X12773039Y-15092079D01*
X12773039Y-15092079D02*
X12782563Y-15073031D01*
X12782563Y-15073031D02*
X12792086Y-15063508D01*
X12792086Y-15063508D02*
X12811134Y-15053984D01*
X12963515Y-15234936D02*
X12973039Y-15244460D01*
X12973039Y-15244460D02*
X12963515Y-15253984D01*
X12963515Y-15253984D02*
X12953991Y-15244460D01*
X12953991Y-15244460D02*
X12963515Y-15234936D01*
X12963515Y-15234936D02*
X12963515Y-15253984D01*
X13163515Y-15253984D02*
X13049229Y-15253984D01*
X13106372Y-15253984D02*
X13106372Y-15053984D01*
X13106372Y-15053984D02*
X13087325Y-15082555D01*
X13087325Y-15082555D02*
X13068277Y-15101603D01*
X13068277Y-15101603D02*
X13049229Y-15111127D01*
X13287325Y-15053984D02*
X13306372Y-15053984D01*
X13306372Y-15053984D02*
X13325420Y-15063508D01*
X13325420Y-15063508D02*
X13334944Y-15073031D01*
X13334944Y-15073031D02*
X13344467Y-15092079D01*
X13344467Y-15092079D02*
X13353991Y-15130174D01*
X13353991Y-15130174D02*
X13353991Y-15177793D01*
X13353991Y-15177793D02*
X13344467Y-15215888D01*
X13344467Y-15215888D02*
X13334944Y-15234936D01*
X13334944Y-15234936D02*
X13325420Y-15244460D01*
X13325420Y-15244460D02*
X13306372Y-15253984D01*
X13306372Y-15253984D02*
X13287325Y-15253984D01*
X13287325Y-15253984D02*
X13268277Y-15244460D01*
X13268277Y-15244460D02*
X13258753Y-15234936D01*
X13258753Y-15234936D02*
X13249229Y-15215888D01*
X13249229Y-15215888D02*
X13239706Y-15177793D01*
X13239706Y-15177793D02*
X13239706Y-15130174D01*
X13239706Y-15130174D02*
X13249229Y-15092079D01*
X13249229Y-15092079D02*
X13258753Y-15073031D01*
X13258753Y-15073031D02*
X13268277Y-15063508D01*
X13268277Y-15063508D02*
X13287325Y-15053984D01*
X13468277Y-15139698D02*
X13449229Y-15130174D01*
X13449229Y-15130174D02*
X13439706Y-15120650D01*
X13439706Y-15120650D02*
X13430182Y-15101603D01*
X13430182Y-15101603D02*
X13430182Y-15092079D01*
X13430182Y-15092079D02*
X13439706Y-15073031D01*
X13439706Y-15073031D02*
X13449229Y-15063508D01*
X13449229Y-15063508D02*
X13468277Y-15053984D01*
X13468277Y-15053984D02*
X13506372Y-15053984D01*
X13506372Y-15053984D02*
X13525420Y-15063508D01*
X13525420Y-15063508D02*
X13534944Y-15073031D01*
X13534944Y-15073031D02*
X13544467Y-15092079D01*
X13544467Y-15092079D02*
X13544467Y-15101603D01*
X13544467Y-15101603D02*
X13534944Y-15120650D01*
X13534944Y-15120650D02*
X13525420Y-15130174D01*
X13525420Y-15130174D02*
X13506372Y-15139698D01*
X13506372Y-15139698D02*
X13468277Y-15139698D01*
X13468277Y-15139698D02*
X13449229Y-15149222D01*
X13449229Y-15149222D02*
X13439706Y-15158746D01*
X13439706Y-15158746D02*
X13430182Y-15177793D01*
X13430182Y-15177793D02*
X13430182Y-15215888D01*
X13430182Y-15215888D02*
X13439706Y-15234936D01*
X13439706Y-15234936D02*
X13449229Y-15244460D01*
X13449229Y-15244460D02*
X13468277Y-15253984D01*
X13468277Y-15253984D02*
X13506372Y-15253984D01*
X13506372Y-15253984D02*
X13525420Y-15244460D01*
X13525420Y-15244460D02*
X13534944Y-15234936D01*
X13534944Y-15234936D02*
X13544467Y-15215888D01*
X13544467Y-15215888D02*
X13544467Y-15177793D01*
X13544467Y-15177793D02*
X13534944Y-15158746D01*
X13534944Y-15158746D02*
X13525420Y-15149222D01*
X13525420Y-15149222D02*
X13506372Y-15139698D01*
X13611134Y-15053984D02*
X13734944Y-15053984D01*
X13734944Y-15053984D02*
X13668277Y-15130174D01*
X13668277Y-15130174D02*
X13696848Y-15130174D01*
X13696848Y-15130174D02*
X13715896Y-15139698D01*
X13715896Y-15139698D02*
X13725420Y-15149222D01*
X13725420Y-15149222D02*
X13734944Y-15168269D01*
X13734944Y-15168269D02*
X13734944Y-15215888D01*
X13734944Y-15215888D02*
X13725420Y-15234936D01*
X13725420Y-15234936D02*
X13715896Y-15244460D01*
X13715896Y-15244460D02*
X13696848Y-15253984D01*
X13696848Y-15253984D02*
X13639706Y-15253984D01*
X13639706Y-15253984D02*
X13620658Y-15244460D01*
X13620658Y-15244460D02*
X13611134Y-15234936D01*
X13811134Y-15053984D02*
X13811134Y-15092079D01*
X13887325Y-15053984D02*
X13887325Y-15092079D01*
X14182563Y-15330174D02*
X14173039Y-15320650D01*
X14173039Y-15320650D02*
X14153991Y-15292079D01*
X14153991Y-15292079D02*
X14144468Y-15273031D01*
X14144468Y-15273031D02*
X14134944Y-15244460D01*
X14134944Y-15244460D02*
X14125420Y-15196841D01*
X14125420Y-15196841D02*
X14125420Y-15158746D01*
X14125420Y-15158746D02*
X14134944Y-15111127D01*
X14134944Y-15111127D02*
X14144468Y-15082555D01*
X14144468Y-15082555D02*
X14153991Y-15063508D01*
X14153991Y-15063508D02*
X14173039Y-15034936D01*
X14173039Y-15034936D02*
X14182563Y-15025412D01*
X14344468Y-15120650D02*
X14344468Y-15253984D01*
X14296848Y-15044460D02*
X14249229Y-15187317D01*
X14249229Y-15187317D02*
X14373039Y-15187317D01*
X14601610Y-15253984D02*
X14601610Y-15053984D01*
X14687325Y-15253984D02*
X14687325Y-15149222D01*
X14687325Y-15149222D02*
X14677801Y-15130174D01*
X14677801Y-15130174D02*
X14658753Y-15120650D01*
X14658753Y-15120650D02*
X14630182Y-15120650D01*
X14630182Y-15120650D02*
X14611134Y-15130174D01*
X14611134Y-15130174D02*
X14601610Y-15139698D01*
X14811134Y-15253984D02*
X14792087Y-15244460D01*
X14792087Y-15244460D02*
X14782563Y-15234936D01*
X14782563Y-15234936D02*
X14773039Y-15215888D01*
X14773039Y-15215888D02*
X14773039Y-15158746D01*
X14773039Y-15158746D02*
X14782563Y-15139698D01*
X14782563Y-15139698D02*
X14792087Y-15130174D01*
X14792087Y-15130174D02*
X14811134Y-15120650D01*
X14811134Y-15120650D02*
X14839706Y-15120650D01*
X14839706Y-15120650D02*
X14858753Y-15130174D01*
X14858753Y-15130174D02*
X14868277Y-15139698D01*
X14868277Y-15139698D02*
X14877801Y-15158746D01*
X14877801Y-15158746D02*
X14877801Y-15215888D01*
X14877801Y-15215888D02*
X14868277Y-15234936D01*
X14868277Y-15234936D02*
X14858753Y-15244460D01*
X14858753Y-15244460D02*
X14839706Y-15253984D01*
X14839706Y-15253984D02*
X14811134Y-15253984D01*
X14992087Y-15253984D02*
X14973039Y-15244460D01*
X14973039Y-15244460D02*
X14963515Y-15225412D01*
X14963515Y-15225412D02*
X14963515Y-15053984D01*
X15144468Y-15244460D02*
X15125420Y-15253984D01*
X15125420Y-15253984D02*
X15087325Y-15253984D01*
X15087325Y-15253984D02*
X15068277Y-15244460D01*
X15068277Y-15244460D02*
X15058753Y-15225412D01*
X15058753Y-15225412D02*
X15058753Y-15149222D01*
X15058753Y-15149222D02*
X15068277Y-15130174D01*
X15068277Y-15130174D02*
X15087325Y-15120650D01*
X15087325Y-15120650D02*
X15125420Y-15120650D01*
X15125420Y-15120650D02*
X15144468Y-15130174D01*
X15144468Y-15130174D02*
X15153991Y-15149222D01*
X15153991Y-15149222D02*
X15153991Y-15168269D01*
X15153991Y-15168269D02*
X15058753Y-15187317D01*
X15230182Y-15244460D02*
X15249230Y-15253984D01*
X15249230Y-15253984D02*
X15287325Y-15253984D01*
X15287325Y-15253984D02*
X15306372Y-15244460D01*
X15306372Y-15244460D02*
X15315896Y-15225412D01*
X15315896Y-15225412D02*
X15315896Y-15215888D01*
X15315896Y-15215888D02*
X15306372Y-15196841D01*
X15306372Y-15196841D02*
X15287325Y-15187317D01*
X15287325Y-15187317D02*
X15258753Y-15187317D01*
X15258753Y-15187317D02*
X15239706Y-15177793D01*
X15239706Y-15177793D02*
X15230182Y-15158746D01*
X15230182Y-15158746D02*
X15230182Y-15149222D01*
X15230182Y-15149222D02*
X15239706Y-15130174D01*
X15239706Y-15130174D02*
X15258753Y-15120650D01*
X15258753Y-15120650D02*
X15287325Y-15120650D01*
X15287325Y-15120650D02*
X15306372Y-15130174D01*
X15382563Y-15330174D02*
X15392087Y-15320650D01*
X15392087Y-15320650D02*
X15411134Y-15292079D01*
X15411134Y-15292079D02*
X15420658Y-15273031D01*
X15420658Y-15273031D02*
X15430182Y-15244460D01*
X15430182Y-15244460D02*
X15439706Y-15196841D01*
X15439706Y-15196841D02*
X15439706Y-15158746D01*
X15439706Y-15158746D02*
X15430182Y-15111127D01*
X15430182Y-15111127D02*
X15420658Y-15082555D01*
X15420658Y-15082555D02*
X15411134Y-15063508D01*
X15411134Y-15063508D02*
X15392087Y-15034936D01*
X15392087Y-15034936D02*
X15382563Y-15025412D01*
X15744468Y-15330174D02*
X15734944Y-15320650D01*
X15734944Y-15320650D02*
X15715896Y-15292079D01*
X15715896Y-15292079D02*
X15706372Y-15273031D01*
X15706372Y-15273031D02*
X15696849Y-15244460D01*
X15696849Y-15244460D02*
X15687325Y-15196841D01*
X15687325Y-15196841D02*
X15687325Y-15158746D01*
X15687325Y-15158746D02*
X15696849Y-15111127D01*
X15696849Y-15111127D02*
X15706372Y-15082555D01*
X15706372Y-15082555D02*
X15715896Y-15063508D01*
X15715896Y-15063508D02*
X15734944Y-15034936D01*
X15734944Y-15034936D02*
X15744468Y-15025412D01*
X15820658Y-15120650D02*
X15820658Y-15253984D01*
X15820658Y-15139698D02*
X15830182Y-15130174D01*
X15830182Y-15130174D02*
X15849230Y-15120650D01*
X15849230Y-15120650D02*
X15877801Y-15120650D01*
X15877801Y-15120650D02*
X15896849Y-15130174D01*
X15896849Y-15130174D02*
X15906372Y-15149222D01*
X15906372Y-15149222D02*
X15906372Y-15253984D01*
X16030182Y-15253984D02*
X16011134Y-15244460D01*
X16011134Y-15244460D02*
X16001611Y-15234936D01*
X16001611Y-15234936D02*
X15992087Y-15215888D01*
X15992087Y-15215888D02*
X15992087Y-15158746D01*
X15992087Y-15158746D02*
X16001611Y-15139698D01*
X16001611Y-15139698D02*
X16011134Y-15130174D01*
X16011134Y-15130174D02*
X16030182Y-15120650D01*
X16030182Y-15120650D02*
X16058753Y-15120650D01*
X16058753Y-15120650D02*
X16077801Y-15130174D01*
X16077801Y-15130174D02*
X16087325Y-15139698D01*
X16087325Y-15139698D02*
X16096849Y-15158746D01*
X16096849Y-15158746D02*
X16096849Y-15215888D01*
X16096849Y-15215888D02*
X16087325Y-15234936D01*
X16087325Y-15234936D02*
X16077801Y-15244460D01*
X16077801Y-15244460D02*
X16058753Y-15253984D01*
X16058753Y-15253984D02*
X16030182Y-15253984D01*
X16153992Y-15120650D02*
X16230182Y-15120650D01*
X16182563Y-15053984D02*
X16182563Y-15225412D01*
X16182563Y-15225412D02*
X16192087Y-15244460D01*
X16192087Y-15244460D02*
X16211134Y-15253984D01*
X16211134Y-15253984D02*
X16230182Y-15253984D01*
X16449230Y-15120650D02*
X16449230Y-15320650D01*
X16449230Y-15130174D02*
X16468277Y-15120650D01*
X16468277Y-15120650D02*
X16506373Y-15120650D01*
X16506373Y-15120650D02*
X16525420Y-15130174D01*
X16525420Y-15130174D02*
X16534944Y-15139698D01*
X16534944Y-15139698D02*
X16544468Y-15158746D01*
X16544468Y-15158746D02*
X16544468Y-15215888D01*
X16544468Y-15215888D02*
X16534944Y-15234936D01*
X16534944Y-15234936D02*
X16525420Y-15244460D01*
X16525420Y-15244460D02*
X16506373Y-15253984D01*
X16506373Y-15253984D02*
X16468277Y-15253984D01*
X16468277Y-15253984D02*
X16449230Y-15244460D01*
X16658753Y-15253984D02*
X16639706Y-15244460D01*
X16639706Y-15244460D02*
X16630182Y-15225412D01*
X16630182Y-15225412D02*
X16630182Y-15053984D01*
X16820658Y-15253984D02*
X16820658Y-15149222D01*
X16820658Y-15149222D02*
X16811135Y-15130174D01*
X16811135Y-15130174D02*
X16792087Y-15120650D01*
X16792087Y-15120650D02*
X16753992Y-15120650D01*
X16753992Y-15120650D02*
X16734944Y-15130174D01*
X16820658Y-15244460D02*
X16801611Y-15253984D01*
X16801611Y-15253984D02*
X16753992Y-15253984D01*
X16753992Y-15253984D02*
X16734944Y-15244460D01*
X16734944Y-15244460D02*
X16725420Y-15225412D01*
X16725420Y-15225412D02*
X16725420Y-15206365D01*
X16725420Y-15206365D02*
X16734944Y-15187317D01*
X16734944Y-15187317D02*
X16753992Y-15177793D01*
X16753992Y-15177793D02*
X16801611Y-15177793D01*
X16801611Y-15177793D02*
X16820658Y-15168269D01*
X16887325Y-15120650D02*
X16963515Y-15120650D01*
X16915896Y-15053984D02*
X16915896Y-15225412D01*
X16915896Y-15225412D02*
X16925420Y-15244460D01*
X16925420Y-15244460D02*
X16944468Y-15253984D01*
X16944468Y-15253984D02*
X16963515Y-15253984D01*
X17106373Y-15244460D02*
X17087325Y-15253984D01*
X17087325Y-15253984D02*
X17049230Y-15253984D01*
X17049230Y-15253984D02*
X17030182Y-15244460D01*
X17030182Y-15244460D02*
X17020658Y-15225412D01*
X17020658Y-15225412D02*
X17020658Y-15149222D01*
X17020658Y-15149222D02*
X17030182Y-15130174D01*
X17030182Y-15130174D02*
X17049230Y-15120650D01*
X17049230Y-15120650D02*
X17087325Y-15120650D01*
X17087325Y-15120650D02*
X17106373Y-15130174D01*
X17106373Y-15130174D02*
X17115896Y-15149222D01*
X17115896Y-15149222D02*
X17115896Y-15168269D01*
X17115896Y-15168269D02*
X17020658Y-15187317D01*
X17287325Y-15253984D02*
X17287325Y-15053984D01*
X17287325Y-15244460D02*
X17268277Y-15253984D01*
X17268277Y-15253984D02*
X17230182Y-15253984D01*
X17230182Y-15253984D02*
X17211135Y-15244460D01*
X17211135Y-15244460D02*
X17201611Y-15234936D01*
X17201611Y-15234936D02*
X17192087Y-15215888D01*
X17192087Y-15215888D02*
X17192087Y-15158746D01*
X17192087Y-15158746D02*
X17201611Y-15139698D01*
X17201611Y-15139698D02*
X17211135Y-15130174D01*
X17211135Y-15130174D02*
X17230182Y-15120650D01*
X17230182Y-15120650D02*
X17268277Y-15120650D01*
X17268277Y-15120650D02*
X17287325Y-15130174D01*
X17363516Y-15330174D02*
X17373039Y-15320650D01*
X17373039Y-15320650D02*
X17392087Y-15292079D01*
X17392087Y-15292079D02*
X17401611Y-15273031D01*
X17401611Y-15273031D02*
X17411135Y-15244460D01*
X17411135Y-15244460D02*
X17420658Y-15196841D01*
X17420658Y-15196841D02*
X17420658Y-15158746D01*
X17420658Y-15158746D02*
X17411135Y-15111127D01*
X17411135Y-15111127D02*
X17401611Y-15082555D01*
X17401611Y-15082555D02*
X17392087Y-15063508D01*
X17392087Y-15063508D02*
X17373039Y-15034936D01*
X17373039Y-15034936D02*
X17363516Y-15025412D01*
M02*
