M48
; DRILL file {KiCad 8.0.0} date 2024-05-30T15:57:28+0100
; FORMAT={-:-/ absolute / inch / decimal}
; #@! TF.CreationDate,2024-05-30T15:57:28+01:00
; #@! TF.GenerationSoftware,Kicad,Pcbnew,8.0.0
; #@! TF.FileFunction,Plated,1,2,PTH
FMAT,2
INCH
; #@! TA.AperFunction,Plated,PTH,ViaDrill
T1C0.0276
; #@! TA.AperFunction,Plated,PTH,ComponentDrill
T2C0.0394
%
G90
G05
T1
X6.3583Y-3.6969
X7.1102Y-4.6197
X7.2236Y-3.3181
X7.3976Y-2.3504
T2
X6.8307Y-3.3535
X6.8307Y-3.4535
X6.8307Y-3.5535
X6.8307Y-3.6535
X6.8307Y-3.7535
X6.8307Y-3.8535
X6.8307Y-3.9535
X6.8307Y-4.0535
X6.8307Y-4.1535
X6.8307Y-4.2535
X6.8307Y-4.3535
X6.8307Y-4.4535
X6.8307Y-4.5535
X6.8307Y-4.6535
X6.8307Y-4.7535
X6.8307Y-4.8535
X6.8307Y-4.9535
X6.8307Y-5.0535
X6.8307Y-5.1535
X6.8307Y-5.2535
X6.9307Y-3.3535
X6.9307Y-3.4535
X6.9307Y-3.5535
X6.9307Y-3.6535
X6.9307Y-3.7535
X6.9307Y-3.8535
X6.9307Y-3.9535
X6.9307Y-4.0535
X6.9307Y-4.1535
X6.9307Y-4.2535
X6.9307Y-4.3535
X6.9307Y-4.4535
X6.9307Y-4.5535
X6.9307Y-4.6535
X6.9307Y-4.7535
X6.9307Y-4.8535
X6.9307Y-4.9535
X6.9307Y-5.0535
X6.9307Y-5.1535
X6.9307Y-5.2535
X7.4528Y-2.7205
X7.4528Y-2.8205
X7.4528Y-2.9205
X7.4528Y-3.0205
X7.4528Y-3.1205
X7.4528Y-3.2205
X7.4528Y-3.3205
X7.4528Y-3.4205
X7.4528Y-3.5205
X7.4528Y-3.6205
X7.4528Y-3.7205
X7.4528Y-3.8205
X7.4528Y-3.9205
X7.4528Y-4.0205
X7.4528Y-4.1205
X7.4528Y-4.2205
X7.4528Y-4.3205
X7.4528Y-4.4205
X7.4528Y-4.5205
X7.4528Y-4.6205
X7.4528Y-4.7205
X7.4528Y-4.8205
X7.4528Y-4.9205
X7.4528Y-5.0205
X7.4528Y-5.1205
X7.4528Y-5.2205
X7.5528Y-2.7205
X7.5528Y-2.8205
X7.5528Y-2.9205
X7.5528Y-3.0205
X7.5528Y-3.1205
X7.5528Y-3.2205
X7.5528Y-3.3205
X7.5528Y-3.4205
X7.5528Y-3.5205
X7.5528Y-3.6205
X7.5528Y-3.7205
X7.5528Y-3.8205
X7.5528Y-3.9205
X7.5528Y-4.0205
X7.5528Y-4.1205
X7.5528Y-4.2205
X7.5528Y-4.3205
X7.5528Y-4.4205
X7.5528Y-4.5205
X7.5528Y-4.6205
X7.5528Y-4.7205
X7.5528Y-4.8205
X7.5528Y-4.9205
X7.5528Y-5.0205
X7.5528Y-5.1205
X7.5528Y-5.2205
M30
