%TF.GenerationSoftware,KiCad,Pcbnew,8.0.0*%
%TF.CreationDate,2024-06-21T11:16:24+02:00*%
%TF.ProjectId,lora,6c6f7261-2e6b-4696-9361-645f70636258,rev?*%
%TF.SameCoordinates,Original*%
%TF.FileFunction,Profile,NP*%
%FSLAX46Y46*%
G04 Gerber Fmt 4.6, Leading zero omitted, Abs format (unit mm)*
G04 Created by KiCad (PCBNEW 8.0.0) date 2024-06-21 11:16:24*
%MOMM*%
%LPD*%
G01*
G04 APERTURE LIST*
%TA.AperFunction,Profile*%
%ADD10C,0.050000*%
%TD*%
%ADD11C,0.150000*%
%ADD12C,0.300000*%
G04 APERTURE END LIST*
D10*
X198500000Y-64000000D02*
G75*
G02*
X195300000Y-64000000I-1600000J0D01*
G01*
X195300000Y-64000000D02*
G75*
G02*
X198500000Y-64000000I1600000J0D01*
G01*
X136600000Y-145200000D02*
X114100000Y-145200000D01*
X164000000Y-57100000D02*
X164000000Y-55100000D01*
X199000000Y-134300000D02*
X202000000Y-134300000D01*
X198500000Y-137600000D02*
G75*
G02*
X195300000Y-137600000I-1600000J0D01*
G01*
X195300000Y-137600000D02*
G75*
G02*
X198500000Y-137600000I1600000J0D01*
G01*
X176000000Y-143200000D02*
X136600000Y-143200000D01*
X199000000Y-67600000D02*
X199000000Y-134300000D01*
X124100000Y-55100000D02*
X153100000Y-55100000D01*
X202000000Y-134300000D02*
X202000000Y-144300000D01*
X124100000Y-56100000D02*
X124100000Y-55100000D01*
X176000000Y-145200000D02*
X176000000Y-143200000D01*
X185000000Y-145200000D02*
X176000000Y-145200000D01*
X109100000Y-121700000D02*
X109100000Y-91100000D01*
X112800000Y-60200000D02*
G75*
G02*
X109600000Y-60200000I-1600000J0D01*
G01*
X109600000Y-60200000D02*
G75*
G02*
X112800000Y-60200000I1600000J0D01*
G01*
X202000000Y-56100000D02*
X202000000Y-67600000D01*
X153100000Y-55100000D02*
X153100000Y-57100000D01*
X202000000Y-144300000D02*
X185000000Y-144300000D01*
X202000000Y-67600000D02*
X199000000Y-67600000D01*
X106100000Y-91100000D02*
X106100000Y-56100000D01*
X164000000Y-55100000D02*
X194000000Y-55100000D01*
X126400000Y-79640000D02*
G75*
G02*
X123200000Y-79640000I-1600000J0D01*
G01*
X123200000Y-79640000D02*
G75*
G02*
X126400000Y-79640000I1600000J0D01*
G01*
X185000000Y-144300000D02*
X185000000Y-145200000D01*
X106100000Y-56100000D02*
X124100000Y-56100000D01*
X109100000Y-91100000D02*
X106100000Y-91100000D01*
X114100000Y-145200000D02*
X114100000Y-144200000D01*
X153100000Y-57100000D02*
X164000000Y-57100000D01*
X106100000Y-144200000D02*
X106100000Y-121700000D01*
X126400000Y-138840000D02*
G75*
G02*
X123200000Y-138840000I-1600000J0D01*
G01*
X123200000Y-138840000D02*
G75*
G02*
X126400000Y-138840000I1600000J0D01*
G01*
X136600000Y-143200000D02*
X136600000Y-145200000D01*
X194000000Y-55100000D02*
X194000000Y-56100000D01*
X106100000Y-121700000D02*
X109100000Y-121700000D01*
X194000000Y-56100000D02*
X202000000Y-56100000D01*
X114100000Y-144200000D02*
X106100000Y-144200000D01*
X112800000Y-140100000D02*
G75*
G02*
X109600000Y-140100000I-1600000J0D01*
G01*
X109600000Y-140100000D02*
G75*
G02*
X112800000Y-140100000I1600000J0D01*
G01*
D11*
X98242857Y-155815771D02*
X97957142Y-155672914D01*
X97957142Y-155672914D02*
X97814285Y-155530057D01*
X97814285Y-155530057D02*
X97671428Y-155244342D01*
X97671428Y-155244342D02*
X97671428Y-155101485D01*
X97671428Y-155101485D02*
X97814285Y-154815771D01*
X97814285Y-154815771D02*
X97957142Y-154672914D01*
X97957142Y-154672914D02*
X98242857Y-154530057D01*
X98242857Y-154530057D02*
X98814285Y-154530057D01*
X98814285Y-154530057D02*
X99100000Y-154672914D01*
X99100000Y-154672914D02*
X99242857Y-154815771D01*
X99242857Y-154815771D02*
X99385714Y-155101485D01*
X99385714Y-155101485D02*
X99385714Y-155244342D01*
X99385714Y-155244342D02*
X99242857Y-155530057D01*
X99242857Y-155530057D02*
X99100000Y-155672914D01*
X99100000Y-155672914D02*
X98814285Y-155815771D01*
X98814285Y-155815771D02*
X98242857Y-155815771D01*
X98242857Y-155815771D02*
X97957142Y-155958628D01*
X97957142Y-155958628D02*
X97814285Y-156101485D01*
X97814285Y-156101485D02*
X97671428Y-156387200D01*
X97671428Y-156387200D02*
X97671428Y-156958628D01*
X97671428Y-156958628D02*
X97814285Y-157244342D01*
X97814285Y-157244342D02*
X97957142Y-157387200D01*
X97957142Y-157387200D02*
X98242857Y-157530057D01*
X98242857Y-157530057D02*
X98814285Y-157530057D01*
X98814285Y-157530057D02*
X99100000Y-157387200D01*
X99100000Y-157387200D02*
X99242857Y-157244342D01*
X99242857Y-157244342D02*
X99385714Y-156958628D01*
X99385714Y-156958628D02*
X99385714Y-156387200D01*
X99385714Y-156387200D02*
X99242857Y-156101485D01*
X99242857Y-156101485D02*
X99100000Y-155958628D01*
X99100000Y-155958628D02*
X98814285Y-155815771D01*
X100671428Y-157244342D02*
X100814285Y-157387200D01*
X100814285Y-157387200D02*
X100671428Y-157530057D01*
X100671428Y-157530057D02*
X100528571Y-157387200D01*
X100528571Y-157387200D02*
X100671428Y-157244342D01*
X100671428Y-157244342D02*
X100671428Y-157530057D01*
X102671428Y-154530057D02*
X102957142Y-154530057D01*
X102957142Y-154530057D02*
X103242856Y-154672914D01*
X103242856Y-154672914D02*
X103385714Y-154815771D01*
X103385714Y-154815771D02*
X103528571Y-155101485D01*
X103528571Y-155101485D02*
X103671428Y-155672914D01*
X103671428Y-155672914D02*
X103671428Y-156387200D01*
X103671428Y-156387200D02*
X103528571Y-156958628D01*
X103528571Y-156958628D02*
X103385714Y-157244342D01*
X103385714Y-157244342D02*
X103242856Y-157387200D01*
X103242856Y-157387200D02*
X102957142Y-157530057D01*
X102957142Y-157530057D02*
X102671428Y-157530057D01*
X102671428Y-157530057D02*
X102385714Y-157387200D01*
X102385714Y-157387200D02*
X102242856Y-157244342D01*
X102242856Y-157244342D02*
X102099999Y-156958628D01*
X102099999Y-156958628D02*
X101957142Y-156387200D01*
X101957142Y-156387200D02*
X101957142Y-155672914D01*
X101957142Y-155672914D02*
X102099999Y-155101485D01*
X102099999Y-155101485D02*
X102242856Y-154815771D01*
X102242856Y-154815771D02*
X102385714Y-154672914D01*
X102385714Y-154672914D02*
X102671428Y-154530057D01*
X105528571Y-154530057D02*
X105814285Y-154530057D01*
X105814285Y-154530057D02*
X106099999Y-154672914D01*
X106099999Y-154672914D02*
X106242857Y-154815771D01*
X106242857Y-154815771D02*
X106385714Y-155101485D01*
X106385714Y-155101485D02*
X106528571Y-155672914D01*
X106528571Y-155672914D02*
X106528571Y-156387200D01*
X106528571Y-156387200D02*
X106385714Y-156958628D01*
X106385714Y-156958628D02*
X106242857Y-157244342D01*
X106242857Y-157244342D02*
X106099999Y-157387200D01*
X106099999Y-157387200D02*
X105814285Y-157530057D01*
X105814285Y-157530057D02*
X105528571Y-157530057D01*
X105528571Y-157530057D02*
X105242857Y-157387200D01*
X105242857Y-157387200D02*
X105099999Y-157244342D01*
X105099999Y-157244342D02*
X104957142Y-156958628D01*
X104957142Y-156958628D02*
X104814285Y-156387200D01*
X104814285Y-156387200D02*
X104814285Y-155672914D01*
X104814285Y-155672914D02*
X104957142Y-155101485D01*
X104957142Y-155101485D02*
X105099999Y-154815771D01*
X105099999Y-154815771D02*
X105242857Y-154672914D01*
X105242857Y-154672914D02*
X105528571Y-154530057D01*
X108385714Y-154530057D02*
X108671428Y-154530057D01*
X108671428Y-154530057D02*
X108957142Y-154672914D01*
X108957142Y-154672914D02*
X109100000Y-154815771D01*
X109100000Y-154815771D02*
X109242857Y-155101485D01*
X109242857Y-155101485D02*
X109385714Y-155672914D01*
X109385714Y-155672914D02*
X109385714Y-156387200D01*
X109385714Y-156387200D02*
X109242857Y-156958628D01*
X109242857Y-156958628D02*
X109100000Y-157244342D01*
X109100000Y-157244342D02*
X108957142Y-157387200D01*
X108957142Y-157387200D02*
X108671428Y-157530057D01*
X108671428Y-157530057D02*
X108385714Y-157530057D01*
X108385714Y-157530057D02*
X108100000Y-157387200D01*
X108100000Y-157387200D02*
X107957142Y-157244342D01*
X107957142Y-157244342D02*
X107814285Y-156958628D01*
X107814285Y-156958628D02*
X107671428Y-156387200D01*
X107671428Y-156387200D02*
X107671428Y-155672914D01*
X107671428Y-155672914D02*
X107814285Y-155101485D01*
X107814285Y-155101485D02*
X107957142Y-154815771D01*
X107957142Y-154815771D02*
X108100000Y-154672914D01*
X108100000Y-154672914D02*
X108385714Y-154530057D01*
X111242857Y-154530057D02*
X111528571Y-154530057D01*
X111528571Y-154530057D02*
X111814285Y-154672914D01*
X111814285Y-154672914D02*
X111957143Y-154815771D01*
X111957143Y-154815771D02*
X112100000Y-155101485D01*
X112100000Y-155101485D02*
X112242857Y-155672914D01*
X112242857Y-155672914D02*
X112242857Y-156387200D01*
X112242857Y-156387200D02*
X112100000Y-156958628D01*
X112100000Y-156958628D02*
X111957143Y-157244342D01*
X111957143Y-157244342D02*
X111814285Y-157387200D01*
X111814285Y-157387200D02*
X111528571Y-157530057D01*
X111528571Y-157530057D02*
X111242857Y-157530057D01*
X111242857Y-157530057D02*
X110957143Y-157387200D01*
X110957143Y-157387200D02*
X110814285Y-157244342D01*
X110814285Y-157244342D02*
X110671428Y-156958628D01*
X110671428Y-156958628D02*
X110528571Y-156387200D01*
X110528571Y-156387200D02*
X110528571Y-155672914D01*
X110528571Y-155672914D02*
X110671428Y-155101485D01*
X110671428Y-155101485D02*
X110814285Y-154815771D01*
X110814285Y-154815771D02*
X110957143Y-154672914D01*
X110957143Y-154672914D02*
X111242857Y-154530057D01*
X115814285Y-157530057D02*
X115814285Y-155530057D01*
X115814285Y-155815771D02*
X115957142Y-155672914D01*
X115957142Y-155672914D02*
X116242857Y-155530057D01*
X116242857Y-155530057D02*
X116671428Y-155530057D01*
X116671428Y-155530057D02*
X116957142Y-155672914D01*
X116957142Y-155672914D02*
X117100000Y-155958628D01*
X117100000Y-155958628D02*
X117100000Y-157530057D01*
X117100000Y-155958628D02*
X117242857Y-155672914D01*
X117242857Y-155672914D02*
X117528571Y-155530057D01*
X117528571Y-155530057D02*
X117957142Y-155530057D01*
X117957142Y-155530057D02*
X118242857Y-155672914D01*
X118242857Y-155672914D02*
X118385714Y-155958628D01*
X118385714Y-155958628D02*
X118385714Y-157530057D01*
X119814285Y-157530057D02*
X119814285Y-155530057D01*
X119814285Y-155815771D02*
X119957142Y-155672914D01*
X119957142Y-155672914D02*
X120242857Y-155530057D01*
X120242857Y-155530057D02*
X120671428Y-155530057D01*
X120671428Y-155530057D02*
X120957142Y-155672914D01*
X120957142Y-155672914D02*
X121100000Y-155958628D01*
X121100000Y-155958628D02*
X121100000Y-157530057D01*
X121100000Y-155958628D02*
X121242857Y-155672914D01*
X121242857Y-155672914D02*
X121528571Y-155530057D01*
X121528571Y-155530057D02*
X121957142Y-155530057D01*
X121957142Y-155530057D02*
X122242857Y-155672914D01*
X122242857Y-155672914D02*
X122385714Y-155958628D01*
X122385714Y-155958628D02*
X122385714Y-157530057D01*
D10*
X114100000Y-144700000D02*
X114100000Y-159886420D01*
X106100000Y-144700000D02*
X106100000Y-159886420D01*
X114100000Y-159300000D02*
X106100000Y-159300000D01*
X114100000Y-159300000D02*
X106100000Y-159300000D01*
X114100000Y-159300000D02*
X112973496Y-159886421D01*
X114100000Y-159300000D02*
X112973496Y-158713579D01*
X106100000Y-159300000D02*
X107226504Y-158713579D01*
X106100000Y-159300000D02*
X107226504Y-159886421D01*
D11*
X111492857Y-163515771D02*
X111635714Y-163372914D01*
X111635714Y-163372914D02*
X111921429Y-163230057D01*
X111921429Y-163230057D02*
X112635714Y-163230057D01*
X112635714Y-163230057D02*
X112921429Y-163372914D01*
X112921429Y-163372914D02*
X113064286Y-163515771D01*
X113064286Y-163515771D02*
X113207143Y-163801485D01*
X113207143Y-163801485D02*
X113207143Y-164087200D01*
X113207143Y-164087200D02*
X113064286Y-164515771D01*
X113064286Y-164515771D02*
X111350000Y-166230057D01*
X111350000Y-166230057D02*
X113207143Y-166230057D01*
X114350000Y-163515771D02*
X114492857Y-163372914D01*
X114492857Y-163372914D02*
X114778572Y-163230057D01*
X114778572Y-163230057D02*
X115492857Y-163230057D01*
X115492857Y-163230057D02*
X115778572Y-163372914D01*
X115778572Y-163372914D02*
X115921429Y-163515771D01*
X115921429Y-163515771D02*
X116064286Y-163801485D01*
X116064286Y-163801485D02*
X116064286Y-164087200D01*
X116064286Y-164087200D02*
X115921429Y-164515771D01*
X115921429Y-164515771D02*
X114207143Y-166230057D01*
X114207143Y-166230057D02*
X116064286Y-166230057D01*
X117350000Y-165944342D02*
X117492857Y-166087200D01*
X117492857Y-166087200D02*
X117350000Y-166230057D01*
X117350000Y-166230057D02*
X117207143Y-166087200D01*
X117207143Y-166087200D02*
X117350000Y-165944342D01*
X117350000Y-165944342D02*
X117350000Y-166230057D01*
X120207143Y-163230057D02*
X118778571Y-163230057D01*
X118778571Y-163230057D02*
X118635714Y-164658628D01*
X118635714Y-164658628D02*
X118778571Y-164515771D01*
X118778571Y-164515771D02*
X119064286Y-164372914D01*
X119064286Y-164372914D02*
X119778571Y-164372914D01*
X119778571Y-164372914D02*
X120064286Y-164515771D01*
X120064286Y-164515771D02*
X120207143Y-164658628D01*
X120207143Y-164658628D02*
X120350000Y-164944342D01*
X120350000Y-164944342D02*
X120350000Y-165658628D01*
X120350000Y-165658628D02*
X120207143Y-165944342D01*
X120207143Y-165944342D02*
X120064286Y-166087200D01*
X120064286Y-166087200D02*
X119778571Y-166230057D01*
X119778571Y-166230057D02*
X119064286Y-166230057D01*
X119064286Y-166230057D02*
X118778571Y-166087200D01*
X118778571Y-166087200D02*
X118635714Y-165944342D01*
X122207143Y-163230057D02*
X122492857Y-163230057D01*
X122492857Y-163230057D02*
X122778571Y-163372914D01*
X122778571Y-163372914D02*
X122921429Y-163515771D01*
X122921429Y-163515771D02*
X123064286Y-163801485D01*
X123064286Y-163801485D02*
X123207143Y-164372914D01*
X123207143Y-164372914D02*
X123207143Y-165087200D01*
X123207143Y-165087200D02*
X123064286Y-165658628D01*
X123064286Y-165658628D02*
X122921429Y-165944342D01*
X122921429Y-165944342D02*
X122778571Y-166087200D01*
X122778571Y-166087200D02*
X122492857Y-166230057D01*
X122492857Y-166230057D02*
X122207143Y-166230057D01*
X122207143Y-166230057D02*
X121921429Y-166087200D01*
X121921429Y-166087200D02*
X121778571Y-165944342D01*
X121778571Y-165944342D02*
X121635714Y-165658628D01*
X121635714Y-165658628D02*
X121492857Y-165087200D01*
X121492857Y-165087200D02*
X121492857Y-164372914D01*
X121492857Y-164372914D02*
X121635714Y-163801485D01*
X121635714Y-163801485D02*
X121778571Y-163515771D01*
X121778571Y-163515771D02*
X121921429Y-163372914D01*
X121921429Y-163372914D02*
X122207143Y-163230057D01*
X125064286Y-163230057D02*
X125350000Y-163230057D01*
X125350000Y-163230057D02*
X125635714Y-163372914D01*
X125635714Y-163372914D02*
X125778572Y-163515771D01*
X125778572Y-163515771D02*
X125921429Y-163801485D01*
X125921429Y-163801485D02*
X126064286Y-164372914D01*
X126064286Y-164372914D02*
X126064286Y-165087200D01*
X126064286Y-165087200D02*
X125921429Y-165658628D01*
X125921429Y-165658628D02*
X125778572Y-165944342D01*
X125778572Y-165944342D02*
X125635714Y-166087200D01*
X125635714Y-166087200D02*
X125350000Y-166230057D01*
X125350000Y-166230057D02*
X125064286Y-166230057D01*
X125064286Y-166230057D02*
X124778572Y-166087200D01*
X124778572Y-166087200D02*
X124635714Y-165944342D01*
X124635714Y-165944342D02*
X124492857Y-165658628D01*
X124492857Y-165658628D02*
X124350000Y-165087200D01*
X124350000Y-165087200D02*
X124350000Y-164372914D01*
X124350000Y-164372914D02*
X124492857Y-163801485D01*
X124492857Y-163801485D02*
X124635714Y-163515771D01*
X124635714Y-163515771D02*
X124778572Y-163372914D01*
X124778572Y-163372914D02*
X125064286Y-163230057D01*
X127921429Y-163230057D02*
X128207143Y-163230057D01*
X128207143Y-163230057D02*
X128492857Y-163372914D01*
X128492857Y-163372914D02*
X128635715Y-163515771D01*
X128635715Y-163515771D02*
X128778572Y-163801485D01*
X128778572Y-163801485D02*
X128921429Y-164372914D01*
X128921429Y-164372914D02*
X128921429Y-165087200D01*
X128921429Y-165087200D02*
X128778572Y-165658628D01*
X128778572Y-165658628D02*
X128635715Y-165944342D01*
X128635715Y-165944342D02*
X128492857Y-166087200D01*
X128492857Y-166087200D02*
X128207143Y-166230057D01*
X128207143Y-166230057D02*
X127921429Y-166230057D01*
X127921429Y-166230057D02*
X127635715Y-166087200D01*
X127635715Y-166087200D02*
X127492857Y-165944342D01*
X127492857Y-165944342D02*
X127350000Y-165658628D01*
X127350000Y-165658628D02*
X127207143Y-165087200D01*
X127207143Y-165087200D02*
X127207143Y-164372914D01*
X127207143Y-164372914D02*
X127350000Y-163801485D01*
X127350000Y-163801485D02*
X127492857Y-163515771D01*
X127492857Y-163515771D02*
X127635715Y-163372914D01*
X127635715Y-163372914D02*
X127921429Y-163230057D01*
X132492857Y-166230057D02*
X132492857Y-164230057D01*
X132492857Y-164515771D02*
X132635714Y-164372914D01*
X132635714Y-164372914D02*
X132921429Y-164230057D01*
X132921429Y-164230057D02*
X133350000Y-164230057D01*
X133350000Y-164230057D02*
X133635714Y-164372914D01*
X133635714Y-164372914D02*
X133778572Y-164658628D01*
X133778572Y-164658628D02*
X133778572Y-166230057D01*
X133778572Y-164658628D02*
X133921429Y-164372914D01*
X133921429Y-164372914D02*
X134207143Y-164230057D01*
X134207143Y-164230057D02*
X134635714Y-164230057D01*
X134635714Y-164230057D02*
X134921429Y-164372914D01*
X134921429Y-164372914D02*
X135064286Y-164658628D01*
X135064286Y-164658628D02*
X135064286Y-166230057D01*
X136492857Y-166230057D02*
X136492857Y-164230057D01*
X136492857Y-164515771D02*
X136635714Y-164372914D01*
X136635714Y-164372914D02*
X136921429Y-164230057D01*
X136921429Y-164230057D02*
X137350000Y-164230057D01*
X137350000Y-164230057D02*
X137635714Y-164372914D01*
X137635714Y-164372914D02*
X137778572Y-164658628D01*
X137778572Y-164658628D02*
X137778572Y-166230057D01*
X137778572Y-164658628D02*
X137921429Y-164372914D01*
X137921429Y-164372914D02*
X138207143Y-164230057D01*
X138207143Y-164230057D02*
X138635714Y-164230057D01*
X138635714Y-164230057D02*
X138921429Y-164372914D01*
X138921429Y-164372914D02*
X139064286Y-164658628D01*
X139064286Y-164658628D02*
X139064286Y-166230057D01*
D10*
X136600000Y-154400000D02*
X136600000Y-168586420D01*
X114100000Y-154400000D02*
X114100000Y-168586420D01*
X136600000Y-168000000D02*
X114100000Y-168000000D01*
X136600000Y-168000000D02*
X114100000Y-168000000D01*
X136600000Y-168000000D02*
X135473496Y-168586421D01*
X136600000Y-168000000D02*
X135473496Y-167413579D01*
X114100000Y-168000000D02*
X115226504Y-167413579D01*
X114100000Y-168000000D02*
X115226504Y-168586421D01*
D11*
X95004819Y-148271428D02*
X95004819Y-148842856D01*
X95004819Y-148557142D02*
X94004819Y-148557142D01*
X94004819Y-148557142D02*
X94147676Y-148652380D01*
X94147676Y-148652380D02*
X94242914Y-148747618D01*
X94242914Y-148747618D02*
X94290533Y-148842856D01*
X94909580Y-147842856D02*
X94957200Y-147795237D01*
X94957200Y-147795237D02*
X95004819Y-147842856D01*
X95004819Y-147842856D02*
X94957200Y-147890475D01*
X94957200Y-147890475D02*
X94909580Y-147842856D01*
X94909580Y-147842856D02*
X95004819Y-147842856D01*
X94004819Y-147176190D02*
X94004819Y-147080952D01*
X94004819Y-147080952D02*
X94052438Y-146985714D01*
X94052438Y-146985714D02*
X94100057Y-146938095D01*
X94100057Y-146938095D02*
X94195295Y-146890476D01*
X94195295Y-146890476D02*
X94385771Y-146842857D01*
X94385771Y-146842857D02*
X94623866Y-146842857D01*
X94623866Y-146842857D02*
X94814342Y-146890476D01*
X94814342Y-146890476D02*
X94909580Y-146938095D01*
X94909580Y-146938095D02*
X94957200Y-146985714D01*
X94957200Y-146985714D02*
X95004819Y-147080952D01*
X95004819Y-147080952D02*
X95004819Y-147176190D01*
X95004819Y-147176190D02*
X94957200Y-147271428D01*
X94957200Y-147271428D02*
X94909580Y-147319047D01*
X94909580Y-147319047D02*
X94814342Y-147366666D01*
X94814342Y-147366666D02*
X94623866Y-147414285D01*
X94623866Y-147414285D02*
X94385771Y-147414285D01*
X94385771Y-147414285D02*
X94195295Y-147366666D01*
X94195295Y-147366666D02*
X94100057Y-147319047D01*
X94100057Y-147319047D02*
X94052438Y-147271428D01*
X94052438Y-147271428D02*
X94004819Y-147176190D01*
X94004819Y-146223809D02*
X94004819Y-146128571D01*
X94004819Y-146128571D02*
X94052438Y-146033333D01*
X94052438Y-146033333D02*
X94100057Y-145985714D01*
X94100057Y-145985714D02*
X94195295Y-145938095D01*
X94195295Y-145938095D02*
X94385771Y-145890476D01*
X94385771Y-145890476D02*
X94623866Y-145890476D01*
X94623866Y-145890476D02*
X94814342Y-145938095D01*
X94814342Y-145938095D02*
X94909580Y-145985714D01*
X94909580Y-145985714D02*
X94957200Y-146033333D01*
X94957200Y-146033333D02*
X95004819Y-146128571D01*
X95004819Y-146128571D02*
X95004819Y-146223809D01*
X95004819Y-146223809D02*
X94957200Y-146319047D01*
X94957200Y-146319047D02*
X94909580Y-146366666D01*
X94909580Y-146366666D02*
X94814342Y-146414285D01*
X94814342Y-146414285D02*
X94623866Y-146461904D01*
X94623866Y-146461904D02*
X94385771Y-146461904D01*
X94385771Y-146461904D02*
X94195295Y-146414285D01*
X94195295Y-146414285D02*
X94100057Y-146366666D01*
X94100057Y-146366666D02*
X94052438Y-146319047D01*
X94052438Y-146319047D02*
X94004819Y-146223809D01*
X94004819Y-145271428D02*
X94004819Y-145176190D01*
X94004819Y-145176190D02*
X94052438Y-145080952D01*
X94052438Y-145080952D02*
X94100057Y-145033333D01*
X94100057Y-145033333D02*
X94195295Y-144985714D01*
X94195295Y-144985714D02*
X94385771Y-144938095D01*
X94385771Y-144938095D02*
X94623866Y-144938095D01*
X94623866Y-144938095D02*
X94814342Y-144985714D01*
X94814342Y-144985714D02*
X94909580Y-145033333D01*
X94909580Y-145033333D02*
X94957200Y-145080952D01*
X94957200Y-145080952D02*
X95004819Y-145176190D01*
X95004819Y-145176190D02*
X95004819Y-145271428D01*
X95004819Y-145271428D02*
X94957200Y-145366666D01*
X94957200Y-145366666D02*
X94909580Y-145414285D01*
X94909580Y-145414285D02*
X94814342Y-145461904D01*
X94814342Y-145461904D02*
X94623866Y-145509523D01*
X94623866Y-145509523D02*
X94385771Y-145509523D01*
X94385771Y-145509523D02*
X94195295Y-145461904D01*
X94195295Y-145461904D02*
X94100057Y-145414285D01*
X94100057Y-145414285D02*
X94052438Y-145366666D01*
X94052438Y-145366666D02*
X94004819Y-145271428D01*
X94004819Y-144319047D02*
X94004819Y-144223809D01*
X94004819Y-144223809D02*
X94052438Y-144128571D01*
X94052438Y-144128571D02*
X94100057Y-144080952D01*
X94100057Y-144080952D02*
X94195295Y-144033333D01*
X94195295Y-144033333D02*
X94385771Y-143985714D01*
X94385771Y-143985714D02*
X94623866Y-143985714D01*
X94623866Y-143985714D02*
X94814342Y-144033333D01*
X94814342Y-144033333D02*
X94909580Y-144080952D01*
X94909580Y-144080952D02*
X94957200Y-144128571D01*
X94957200Y-144128571D02*
X95004819Y-144223809D01*
X95004819Y-144223809D02*
X95004819Y-144319047D01*
X95004819Y-144319047D02*
X94957200Y-144414285D01*
X94957200Y-144414285D02*
X94909580Y-144461904D01*
X94909580Y-144461904D02*
X94814342Y-144509523D01*
X94814342Y-144509523D02*
X94623866Y-144557142D01*
X94623866Y-144557142D02*
X94385771Y-144557142D01*
X94385771Y-144557142D02*
X94195295Y-144509523D01*
X94195295Y-144509523D02*
X94100057Y-144461904D01*
X94100057Y-144461904D02*
X94052438Y-144414285D01*
X94052438Y-144414285D02*
X94004819Y-144319047D01*
X95004819Y-142795237D02*
X94338152Y-142795237D01*
X94433390Y-142795237D02*
X94385771Y-142747618D01*
X94385771Y-142747618D02*
X94338152Y-142652380D01*
X94338152Y-142652380D02*
X94338152Y-142509523D01*
X94338152Y-142509523D02*
X94385771Y-142414285D01*
X94385771Y-142414285D02*
X94481009Y-142366666D01*
X94481009Y-142366666D02*
X95004819Y-142366666D01*
X94481009Y-142366666D02*
X94385771Y-142319047D01*
X94385771Y-142319047D02*
X94338152Y-142223809D01*
X94338152Y-142223809D02*
X94338152Y-142080952D01*
X94338152Y-142080952D02*
X94385771Y-141985713D01*
X94385771Y-141985713D02*
X94481009Y-141938094D01*
X94481009Y-141938094D02*
X95004819Y-141938094D01*
X95004819Y-141461904D02*
X94338152Y-141461904D01*
X94433390Y-141461904D02*
X94385771Y-141414285D01*
X94385771Y-141414285D02*
X94338152Y-141319047D01*
X94338152Y-141319047D02*
X94338152Y-141176190D01*
X94338152Y-141176190D02*
X94385771Y-141080952D01*
X94385771Y-141080952D02*
X94481009Y-141033333D01*
X94481009Y-141033333D02*
X95004819Y-141033333D01*
X94481009Y-141033333D02*
X94385771Y-140985714D01*
X94385771Y-140985714D02*
X94338152Y-140890476D01*
X94338152Y-140890476D02*
X94338152Y-140747619D01*
X94338152Y-140747619D02*
X94385771Y-140652380D01*
X94385771Y-140652380D02*
X94481009Y-140604761D01*
X94481009Y-140604761D02*
X95004819Y-140604761D01*
D10*
X113600000Y-145200000D02*
X95113580Y-145200000D01*
X113600000Y-144200000D02*
X95113580Y-144200000D01*
X95700000Y-145200000D02*
X95700000Y-144200000D01*
X95700000Y-145200000D02*
X95700000Y-144200000D01*
X95700000Y-145200000D02*
X95113579Y-144073496D01*
X95700000Y-145200000D02*
X96286421Y-144073496D01*
X95700000Y-144200000D02*
X96286421Y-145326504D01*
X95700000Y-144200000D02*
X95113579Y-145326504D01*
D11*
X91215771Y-146807142D02*
X91072914Y-146664285D01*
X91072914Y-146664285D02*
X90930057Y-146378571D01*
X90930057Y-146378571D02*
X90930057Y-145664285D01*
X90930057Y-145664285D02*
X91072914Y-145378571D01*
X91072914Y-145378571D02*
X91215771Y-145235713D01*
X91215771Y-145235713D02*
X91501485Y-145092856D01*
X91501485Y-145092856D02*
X91787200Y-145092856D01*
X91787200Y-145092856D02*
X92215771Y-145235713D01*
X92215771Y-145235713D02*
X93930057Y-146949999D01*
X93930057Y-146949999D02*
X93930057Y-145092856D01*
X91215771Y-143949999D02*
X91072914Y-143807142D01*
X91072914Y-143807142D02*
X90930057Y-143521428D01*
X90930057Y-143521428D02*
X90930057Y-142807142D01*
X90930057Y-142807142D02*
X91072914Y-142521428D01*
X91072914Y-142521428D02*
X91215771Y-142378570D01*
X91215771Y-142378570D02*
X91501485Y-142235713D01*
X91501485Y-142235713D02*
X91787200Y-142235713D01*
X91787200Y-142235713D02*
X92215771Y-142378570D01*
X92215771Y-142378570D02*
X93930057Y-144092856D01*
X93930057Y-144092856D02*
X93930057Y-142235713D01*
X93644342Y-140949999D02*
X93787200Y-140807142D01*
X93787200Y-140807142D02*
X93930057Y-140949999D01*
X93930057Y-140949999D02*
X93787200Y-141092856D01*
X93787200Y-141092856D02*
X93644342Y-140949999D01*
X93644342Y-140949999D02*
X93930057Y-140949999D01*
X90930057Y-138092856D02*
X90930057Y-139521428D01*
X90930057Y-139521428D02*
X92358628Y-139664285D01*
X92358628Y-139664285D02*
X92215771Y-139521428D01*
X92215771Y-139521428D02*
X92072914Y-139235714D01*
X92072914Y-139235714D02*
X92072914Y-138521428D01*
X92072914Y-138521428D02*
X92215771Y-138235714D01*
X92215771Y-138235714D02*
X92358628Y-138092856D01*
X92358628Y-138092856D02*
X92644342Y-137949999D01*
X92644342Y-137949999D02*
X93358628Y-137949999D01*
X93358628Y-137949999D02*
X93644342Y-138092856D01*
X93644342Y-138092856D02*
X93787200Y-138235714D01*
X93787200Y-138235714D02*
X93930057Y-138521428D01*
X93930057Y-138521428D02*
X93930057Y-139235714D01*
X93930057Y-139235714D02*
X93787200Y-139521428D01*
X93787200Y-139521428D02*
X93644342Y-139664285D01*
X90930057Y-136092856D02*
X90930057Y-135807142D01*
X90930057Y-135807142D02*
X91072914Y-135521428D01*
X91072914Y-135521428D02*
X91215771Y-135378571D01*
X91215771Y-135378571D02*
X91501485Y-135235713D01*
X91501485Y-135235713D02*
X92072914Y-135092856D01*
X92072914Y-135092856D02*
X92787200Y-135092856D01*
X92787200Y-135092856D02*
X93358628Y-135235713D01*
X93358628Y-135235713D02*
X93644342Y-135378571D01*
X93644342Y-135378571D02*
X93787200Y-135521428D01*
X93787200Y-135521428D02*
X93930057Y-135807142D01*
X93930057Y-135807142D02*
X93930057Y-136092856D01*
X93930057Y-136092856D02*
X93787200Y-136378571D01*
X93787200Y-136378571D02*
X93644342Y-136521428D01*
X93644342Y-136521428D02*
X93358628Y-136664285D01*
X93358628Y-136664285D02*
X92787200Y-136807142D01*
X92787200Y-136807142D02*
X92072914Y-136807142D01*
X92072914Y-136807142D02*
X91501485Y-136664285D01*
X91501485Y-136664285D02*
X91215771Y-136521428D01*
X91215771Y-136521428D02*
X91072914Y-136378571D01*
X91072914Y-136378571D02*
X90930057Y-136092856D01*
X90930057Y-133235713D02*
X90930057Y-132949999D01*
X90930057Y-132949999D02*
X91072914Y-132664285D01*
X91072914Y-132664285D02*
X91215771Y-132521428D01*
X91215771Y-132521428D02*
X91501485Y-132378570D01*
X91501485Y-132378570D02*
X92072914Y-132235713D01*
X92072914Y-132235713D02*
X92787200Y-132235713D01*
X92787200Y-132235713D02*
X93358628Y-132378570D01*
X93358628Y-132378570D02*
X93644342Y-132521428D01*
X93644342Y-132521428D02*
X93787200Y-132664285D01*
X93787200Y-132664285D02*
X93930057Y-132949999D01*
X93930057Y-132949999D02*
X93930057Y-133235713D01*
X93930057Y-133235713D02*
X93787200Y-133521428D01*
X93787200Y-133521428D02*
X93644342Y-133664285D01*
X93644342Y-133664285D02*
X93358628Y-133807142D01*
X93358628Y-133807142D02*
X92787200Y-133949999D01*
X92787200Y-133949999D02*
X92072914Y-133949999D01*
X92072914Y-133949999D02*
X91501485Y-133807142D01*
X91501485Y-133807142D02*
X91215771Y-133664285D01*
X91215771Y-133664285D02*
X91072914Y-133521428D01*
X91072914Y-133521428D02*
X90930057Y-133235713D01*
X90930057Y-130378570D02*
X90930057Y-130092856D01*
X90930057Y-130092856D02*
X91072914Y-129807142D01*
X91072914Y-129807142D02*
X91215771Y-129664285D01*
X91215771Y-129664285D02*
X91501485Y-129521427D01*
X91501485Y-129521427D02*
X92072914Y-129378570D01*
X92072914Y-129378570D02*
X92787200Y-129378570D01*
X92787200Y-129378570D02*
X93358628Y-129521427D01*
X93358628Y-129521427D02*
X93644342Y-129664285D01*
X93644342Y-129664285D02*
X93787200Y-129807142D01*
X93787200Y-129807142D02*
X93930057Y-130092856D01*
X93930057Y-130092856D02*
X93930057Y-130378570D01*
X93930057Y-130378570D02*
X93787200Y-130664285D01*
X93787200Y-130664285D02*
X93644342Y-130807142D01*
X93644342Y-130807142D02*
X93358628Y-130949999D01*
X93358628Y-130949999D02*
X92787200Y-131092856D01*
X92787200Y-131092856D02*
X92072914Y-131092856D01*
X92072914Y-131092856D02*
X91501485Y-130949999D01*
X91501485Y-130949999D02*
X91215771Y-130807142D01*
X91215771Y-130807142D02*
X91072914Y-130664285D01*
X91072914Y-130664285D02*
X90930057Y-130378570D01*
X93930057Y-125807142D02*
X91930057Y-125807142D01*
X92215771Y-125807142D02*
X92072914Y-125664285D01*
X92072914Y-125664285D02*
X91930057Y-125378570D01*
X91930057Y-125378570D02*
X91930057Y-124949999D01*
X91930057Y-124949999D02*
X92072914Y-124664285D01*
X92072914Y-124664285D02*
X92358628Y-124521428D01*
X92358628Y-124521428D02*
X93930057Y-124521428D01*
X92358628Y-124521428D02*
X92072914Y-124378570D01*
X92072914Y-124378570D02*
X91930057Y-124092856D01*
X91930057Y-124092856D02*
X91930057Y-123664285D01*
X91930057Y-123664285D02*
X92072914Y-123378570D01*
X92072914Y-123378570D02*
X92358628Y-123235713D01*
X92358628Y-123235713D02*
X93930057Y-123235713D01*
X93930057Y-121807142D02*
X91930057Y-121807142D01*
X92215771Y-121807142D02*
X92072914Y-121664285D01*
X92072914Y-121664285D02*
X91930057Y-121378570D01*
X91930057Y-121378570D02*
X91930057Y-120949999D01*
X91930057Y-120949999D02*
X92072914Y-120664285D01*
X92072914Y-120664285D02*
X92358628Y-120521428D01*
X92358628Y-120521428D02*
X93930057Y-120521428D01*
X92358628Y-120521428D02*
X92072914Y-120378570D01*
X92072914Y-120378570D02*
X91930057Y-120092856D01*
X91930057Y-120092856D02*
X91930057Y-119664285D01*
X91930057Y-119664285D02*
X92072914Y-119378570D01*
X92072914Y-119378570D02*
X92358628Y-119235713D01*
X92358628Y-119235713D02*
X93930057Y-119235713D01*
D10*
X105600000Y-144200000D02*
X95113580Y-144200000D01*
X105600000Y-121700000D02*
X95113580Y-121700000D01*
X95700000Y-144200000D02*
X95700000Y-121700000D01*
X95700000Y-144200000D02*
X95700000Y-121700000D01*
X95700000Y-144200000D02*
X95113579Y-143073496D01*
X95700000Y-144200000D02*
X96286421Y-143073496D01*
X95700000Y-121700000D02*
X96286421Y-122826504D01*
X95700000Y-121700000D02*
X95113579Y-122826504D01*
D11*
X162230057Y-151042856D02*
X162230057Y-152757142D01*
X162230057Y-151899999D02*
X159230057Y-151899999D01*
X159230057Y-151899999D02*
X159658628Y-152185713D01*
X159658628Y-152185713D02*
X159944342Y-152471428D01*
X159944342Y-152471428D02*
X160087200Y-152757142D01*
X159515771Y-149899999D02*
X159372914Y-149757142D01*
X159372914Y-149757142D02*
X159230057Y-149471428D01*
X159230057Y-149471428D02*
X159230057Y-148757142D01*
X159230057Y-148757142D02*
X159372914Y-148471428D01*
X159372914Y-148471428D02*
X159515771Y-148328570D01*
X159515771Y-148328570D02*
X159801485Y-148185713D01*
X159801485Y-148185713D02*
X160087200Y-148185713D01*
X160087200Y-148185713D02*
X160515771Y-148328570D01*
X160515771Y-148328570D02*
X162230057Y-150042856D01*
X162230057Y-150042856D02*
X162230057Y-148185713D01*
X161944342Y-146899999D02*
X162087200Y-146757142D01*
X162087200Y-146757142D02*
X162230057Y-146899999D01*
X162230057Y-146899999D02*
X162087200Y-147042856D01*
X162087200Y-147042856D02*
X161944342Y-146899999D01*
X161944342Y-146899999D02*
X162230057Y-146899999D01*
X159230057Y-144185714D02*
X159230057Y-144757142D01*
X159230057Y-144757142D02*
X159372914Y-145042856D01*
X159372914Y-145042856D02*
X159515771Y-145185714D01*
X159515771Y-145185714D02*
X159944342Y-145471428D01*
X159944342Y-145471428D02*
X160515771Y-145614285D01*
X160515771Y-145614285D02*
X161658628Y-145614285D01*
X161658628Y-145614285D02*
X161944342Y-145471428D01*
X161944342Y-145471428D02*
X162087200Y-145328571D01*
X162087200Y-145328571D02*
X162230057Y-145042856D01*
X162230057Y-145042856D02*
X162230057Y-144471428D01*
X162230057Y-144471428D02*
X162087200Y-144185714D01*
X162087200Y-144185714D02*
X161944342Y-144042856D01*
X161944342Y-144042856D02*
X161658628Y-143899999D01*
X161658628Y-143899999D02*
X160944342Y-143899999D01*
X160944342Y-143899999D02*
X160658628Y-144042856D01*
X160658628Y-144042856D02*
X160515771Y-144185714D01*
X160515771Y-144185714D02*
X160372914Y-144471428D01*
X160372914Y-144471428D02*
X160372914Y-145042856D01*
X160372914Y-145042856D02*
X160515771Y-145328571D01*
X160515771Y-145328571D02*
X160658628Y-145471428D01*
X160658628Y-145471428D02*
X160944342Y-145614285D01*
X159230057Y-142042856D02*
X159230057Y-141757142D01*
X159230057Y-141757142D02*
X159372914Y-141471428D01*
X159372914Y-141471428D02*
X159515771Y-141328571D01*
X159515771Y-141328571D02*
X159801485Y-141185713D01*
X159801485Y-141185713D02*
X160372914Y-141042856D01*
X160372914Y-141042856D02*
X161087200Y-141042856D01*
X161087200Y-141042856D02*
X161658628Y-141185713D01*
X161658628Y-141185713D02*
X161944342Y-141328571D01*
X161944342Y-141328571D02*
X162087200Y-141471428D01*
X162087200Y-141471428D02*
X162230057Y-141757142D01*
X162230057Y-141757142D02*
X162230057Y-142042856D01*
X162230057Y-142042856D02*
X162087200Y-142328571D01*
X162087200Y-142328571D02*
X161944342Y-142471428D01*
X161944342Y-142471428D02*
X161658628Y-142614285D01*
X161658628Y-142614285D02*
X161087200Y-142757142D01*
X161087200Y-142757142D02*
X160372914Y-142757142D01*
X160372914Y-142757142D02*
X159801485Y-142614285D01*
X159801485Y-142614285D02*
X159515771Y-142471428D01*
X159515771Y-142471428D02*
X159372914Y-142328571D01*
X159372914Y-142328571D02*
X159230057Y-142042856D01*
X159230057Y-139185713D02*
X159230057Y-138899999D01*
X159230057Y-138899999D02*
X159372914Y-138614285D01*
X159372914Y-138614285D02*
X159515771Y-138471428D01*
X159515771Y-138471428D02*
X159801485Y-138328570D01*
X159801485Y-138328570D02*
X160372914Y-138185713D01*
X160372914Y-138185713D02*
X161087200Y-138185713D01*
X161087200Y-138185713D02*
X161658628Y-138328570D01*
X161658628Y-138328570D02*
X161944342Y-138471428D01*
X161944342Y-138471428D02*
X162087200Y-138614285D01*
X162087200Y-138614285D02*
X162230057Y-138899999D01*
X162230057Y-138899999D02*
X162230057Y-139185713D01*
X162230057Y-139185713D02*
X162087200Y-139471428D01*
X162087200Y-139471428D02*
X161944342Y-139614285D01*
X161944342Y-139614285D02*
X161658628Y-139757142D01*
X161658628Y-139757142D02*
X161087200Y-139899999D01*
X161087200Y-139899999D02*
X160372914Y-139899999D01*
X160372914Y-139899999D02*
X159801485Y-139757142D01*
X159801485Y-139757142D02*
X159515771Y-139614285D01*
X159515771Y-139614285D02*
X159372914Y-139471428D01*
X159372914Y-139471428D02*
X159230057Y-139185713D01*
X159230057Y-136328570D02*
X159230057Y-136042856D01*
X159230057Y-136042856D02*
X159372914Y-135757142D01*
X159372914Y-135757142D02*
X159515771Y-135614285D01*
X159515771Y-135614285D02*
X159801485Y-135471427D01*
X159801485Y-135471427D02*
X160372914Y-135328570D01*
X160372914Y-135328570D02*
X161087200Y-135328570D01*
X161087200Y-135328570D02*
X161658628Y-135471427D01*
X161658628Y-135471427D02*
X161944342Y-135614285D01*
X161944342Y-135614285D02*
X162087200Y-135757142D01*
X162087200Y-135757142D02*
X162230057Y-136042856D01*
X162230057Y-136042856D02*
X162230057Y-136328570D01*
X162230057Y-136328570D02*
X162087200Y-136614285D01*
X162087200Y-136614285D02*
X161944342Y-136757142D01*
X161944342Y-136757142D02*
X161658628Y-136899999D01*
X161658628Y-136899999D02*
X161087200Y-137042856D01*
X161087200Y-137042856D02*
X160372914Y-137042856D01*
X160372914Y-137042856D02*
X159801485Y-136899999D01*
X159801485Y-136899999D02*
X159515771Y-136757142D01*
X159515771Y-136757142D02*
X159372914Y-136614285D01*
X159372914Y-136614285D02*
X159230057Y-136328570D01*
X162230057Y-131757142D02*
X160230057Y-131757142D01*
X160515771Y-131757142D02*
X160372914Y-131614285D01*
X160372914Y-131614285D02*
X160230057Y-131328570D01*
X160230057Y-131328570D02*
X160230057Y-130899999D01*
X160230057Y-130899999D02*
X160372914Y-130614285D01*
X160372914Y-130614285D02*
X160658628Y-130471428D01*
X160658628Y-130471428D02*
X162230057Y-130471428D01*
X160658628Y-130471428D02*
X160372914Y-130328570D01*
X160372914Y-130328570D02*
X160230057Y-130042856D01*
X160230057Y-130042856D02*
X160230057Y-129614285D01*
X160230057Y-129614285D02*
X160372914Y-129328570D01*
X160372914Y-129328570D02*
X160658628Y-129185713D01*
X160658628Y-129185713D02*
X162230057Y-129185713D01*
X162230057Y-127757142D02*
X160230057Y-127757142D01*
X160515771Y-127757142D02*
X160372914Y-127614285D01*
X160372914Y-127614285D02*
X160230057Y-127328570D01*
X160230057Y-127328570D02*
X160230057Y-126899999D01*
X160230057Y-126899999D02*
X160372914Y-126614285D01*
X160372914Y-126614285D02*
X160658628Y-126471428D01*
X160658628Y-126471428D02*
X162230057Y-126471428D01*
X160658628Y-126471428D02*
X160372914Y-126328570D01*
X160372914Y-126328570D02*
X160230057Y-126042856D01*
X160230057Y-126042856D02*
X160230057Y-125614285D01*
X160230057Y-125614285D02*
X160372914Y-125328570D01*
X160372914Y-125328570D02*
X160658628Y-125185713D01*
X160658628Y-125185713D02*
X162230057Y-125185713D01*
D10*
X169000000Y-132600000D02*
X163413580Y-132600000D01*
X169000000Y-145200000D02*
X163413580Y-145200000D01*
X164000000Y-132600000D02*
X164000000Y-145200000D01*
X164000000Y-132600000D02*
X164000000Y-145200000D01*
X164000000Y-132600000D02*
X164586421Y-133726504D01*
X164000000Y-132600000D02*
X163413579Y-133726504D01*
X164000000Y-145200000D02*
X163413579Y-144073496D01*
X164000000Y-145200000D02*
X164586421Y-144073496D01*
D11*
X169765771Y-160928571D02*
X169622914Y-160785714D01*
X169622914Y-160785714D02*
X169480057Y-160500000D01*
X169480057Y-160500000D02*
X169480057Y-159785714D01*
X169480057Y-159785714D02*
X169622914Y-159500000D01*
X169622914Y-159500000D02*
X169765771Y-159357142D01*
X169765771Y-159357142D02*
X170051485Y-159214285D01*
X170051485Y-159214285D02*
X170337200Y-159214285D01*
X170337200Y-159214285D02*
X170765771Y-159357142D01*
X170765771Y-159357142D02*
X172480057Y-161071428D01*
X172480057Y-161071428D02*
X172480057Y-159214285D01*
X172194342Y-157928571D02*
X172337200Y-157785714D01*
X172337200Y-157785714D02*
X172480057Y-157928571D01*
X172480057Y-157928571D02*
X172337200Y-158071428D01*
X172337200Y-158071428D02*
X172194342Y-157928571D01*
X172194342Y-157928571D02*
X172480057Y-157928571D01*
X169480057Y-155928571D02*
X169480057Y-155642857D01*
X169480057Y-155642857D02*
X169622914Y-155357143D01*
X169622914Y-155357143D02*
X169765771Y-155214286D01*
X169765771Y-155214286D02*
X170051485Y-155071428D01*
X170051485Y-155071428D02*
X170622914Y-154928571D01*
X170622914Y-154928571D02*
X171337200Y-154928571D01*
X171337200Y-154928571D02*
X171908628Y-155071428D01*
X171908628Y-155071428D02*
X172194342Y-155214286D01*
X172194342Y-155214286D02*
X172337200Y-155357143D01*
X172337200Y-155357143D02*
X172480057Y-155642857D01*
X172480057Y-155642857D02*
X172480057Y-155928571D01*
X172480057Y-155928571D02*
X172337200Y-156214286D01*
X172337200Y-156214286D02*
X172194342Y-156357143D01*
X172194342Y-156357143D02*
X171908628Y-156500000D01*
X171908628Y-156500000D02*
X171337200Y-156642857D01*
X171337200Y-156642857D02*
X170622914Y-156642857D01*
X170622914Y-156642857D02*
X170051485Y-156500000D01*
X170051485Y-156500000D02*
X169765771Y-156357143D01*
X169765771Y-156357143D02*
X169622914Y-156214286D01*
X169622914Y-156214286D02*
X169480057Y-155928571D01*
X169480057Y-153071428D02*
X169480057Y-152785714D01*
X169480057Y-152785714D02*
X169622914Y-152500000D01*
X169622914Y-152500000D02*
X169765771Y-152357143D01*
X169765771Y-152357143D02*
X170051485Y-152214285D01*
X170051485Y-152214285D02*
X170622914Y-152071428D01*
X170622914Y-152071428D02*
X171337200Y-152071428D01*
X171337200Y-152071428D02*
X171908628Y-152214285D01*
X171908628Y-152214285D02*
X172194342Y-152357143D01*
X172194342Y-152357143D02*
X172337200Y-152500000D01*
X172337200Y-152500000D02*
X172480057Y-152785714D01*
X172480057Y-152785714D02*
X172480057Y-153071428D01*
X172480057Y-153071428D02*
X172337200Y-153357143D01*
X172337200Y-153357143D02*
X172194342Y-153500000D01*
X172194342Y-153500000D02*
X171908628Y-153642857D01*
X171908628Y-153642857D02*
X171337200Y-153785714D01*
X171337200Y-153785714D02*
X170622914Y-153785714D01*
X170622914Y-153785714D02*
X170051485Y-153642857D01*
X170051485Y-153642857D02*
X169765771Y-153500000D01*
X169765771Y-153500000D02*
X169622914Y-153357143D01*
X169622914Y-153357143D02*
X169480057Y-153071428D01*
X169480057Y-150214285D02*
X169480057Y-149928571D01*
X169480057Y-149928571D02*
X169622914Y-149642857D01*
X169622914Y-149642857D02*
X169765771Y-149500000D01*
X169765771Y-149500000D02*
X170051485Y-149357142D01*
X170051485Y-149357142D02*
X170622914Y-149214285D01*
X170622914Y-149214285D02*
X171337200Y-149214285D01*
X171337200Y-149214285D02*
X171908628Y-149357142D01*
X171908628Y-149357142D02*
X172194342Y-149500000D01*
X172194342Y-149500000D02*
X172337200Y-149642857D01*
X172337200Y-149642857D02*
X172480057Y-149928571D01*
X172480057Y-149928571D02*
X172480057Y-150214285D01*
X172480057Y-150214285D02*
X172337200Y-150500000D01*
X172337200Y-150500000D02*
X172194342Y-150642857D01*
X172194342Y-150642857D02*
X171908628Y-150785714D01*
X171908628Y-150785714D02*
X171337200Y-150928571D01*
X171337200Y-150928571D02*
X170622914Y-150928571D01*
X170622914Y-150928571D02*
X170051485Y-150785714D01*
X170051485Y-150785714D02*
X169765771Y-150642857D01*
X169765771Y-150642857D02*
X169622914Y-150500000D01*
X169622914Y-150500000D02*
X169480057Y-150214285D01*
X169480057Y-147357142D02*
X169480057Y-147071428D01*
X169480057Y-147071428D02*
X169622914Y-146785714D01*
X169622914Y-146785714D02*
X169765771Y-146642857D01*
X169765771Y-146642857D02*
X170051485Y-146499999D01*
X170051485Y-146499999D02*
X170622914Y-146357142D01*
X170622914Y-146357142D02*
X171337200Y-146357142D01*
X171337200Y-146357142D02*
X171908628Y-146499999D01*
X171908628Y-146499999D02*
X172194342Y-146642857D01*
X172194342Y-146642857D02*
X172337200Y-146785714D01*
X172337200Y-146785714D02*
X172480057Y-147071428D01*
X172480057Y-147071428D02*
X172480057Y-147357142D01*
X172480057Y-147357142D02*
X172337200Y-147642857D01*
X172337200Y-147642857D02*
X172194342Y-147785714D01*
X172194342Y-147785714D02*
X171908628Y-147928571D01*
X171908628Y-147928571D02*
X171337200Y-148071428D01*
X171337200Y-148071428D02*
X170622914Y-148071428D01*
X170622914Y-148071428D02*
X170051485Y-147928571D01*
X170051485Y-147928571D02*
X169765771Y-147785714D01*
X169765771Y-147785714D02*
X169622914Y-147642857D01*
X169622914Y-147642857D02*
X169480057Y-147357142D01*
X172480057Y-142785714D02*
X170480057Y-142785714D01*
X170765771Y-142785714D02*
X170622914Y-142642857D01*
X170622914Y-142642857D02*
X170480057Y-142357142D01*
X170480057Y-142357142D02*
X170480057Y-141928571D01*
X170480057Y-141928571D02*
X170622914Y-141642857D01*
X170622914Y-141642857D02*
X170908628Y-141500000D01*
X170908628Y-141500000D02*
X172480057Y-141500000D01*
X170908628Y-141500000D02*
X170622914Y-141357142D01*
X170622914Y-141357142D02*
X170480057Y-141071428D01*
X170480057Y-141071428D02*
X170480057Y-140642857D01*
X170480057Y-140642857D02*
X170622914Y-140357142D01*
X170622914Y-140357142D02*
X170908628Y-140214285D01*
X170908628Y-140214285D02*
X172480057Y-140214285D01*
X172480057Y-138785714D02*
X170480057Y-138785714D01*
X170765771Y-138785714D02*
X170622914Y-138642857D01*
X170622914Y-138642857D02*
X170480057Y-138357142D01*
X170480057Y-138357142D02*
X170480057Y-137928571D01*
X170480057Y-137928571D02*
X170622914Y-137642857D01*
X170622914Y-137642857D02*
X170908628Y-137500000D01*
X170908628Y-137500000D02*
X172480057Y-137500000D01*
X170908628Y-137500000D02*
X170622914Y-137357142D01*
X170622914Y-137357142D02*
X170480057Y-137071428D01*
X170480057Y-137071428D02*
X170480057Y-136642857D01*
X170480057Y-136642857D02*
X170622914Y-136357142D01*
X170622914Y-136357142D02*
X170908628Y-136214285D01*
X170908628Y-136214285D02*
X172480057Y-136214285D01*
D10*
X175500000Y-145200000D02*
X171713580Y-145200000D01*
X175500000Y-143200000D02*
X171713580Y-143200000D01*
X172300000Y-145200000D02*
X171713579Y-144073496D01*
X172300000Y-145200000D02*
X172886421Y-144073496D01*
X172300000Y-143200000D02*
X172886421Y-144326504D01*
X172300000Y-143200000D02*
X171713579Y-144326504D01*
D11*
X199942857Y-150180057D02*
X198514285Y-150180057D01*
X198514285Y-150180057D02*
X198371428Y-151608628D01*
X198371428Y-151608628D02*
X198514285Y-151465771D01*
X198514285Y-151465771D02*
X198800000Y-151322914D01*
X198800000Y-151322914D02*
X199514285Y-151322914D01*
X199514285Y-151322914D02*
X199800000Y-151465771D01*
X199800000Y-151465771D02*
X199942857Y-151608628D01*
X199942857Y-151608628D02*
X200085714Y-151894342D01*
X200085714Y-151894342D02*
X200085714Y-152608628D01*
X200085714Y-152608628D02*
X199942857Y-152894342D01*
X199942857Y-152894342D02*
X199800000Y-153037200D01*
X199800000Y-153037200D02*
X199514285Y-153180057D01*
X199514285Y-153180057D02*
X198800000Y-153180057D01*
X198800000Y-153180057D02*
X198514285Y-153037200D01*
X198514285Y-153037200D02*
X198371428Y-152894342D01*
X201371428Y-152894342D02*
X201514285Y-153037200D01*
X201514285Y-153037200D02*
X201371428Y-153180057D01*
X201371428Y-153180057D02*
X201228571Y-153037200D01*
X201228571Y-153037200D02*
X201371428Y-152894342D01*
X201371428Y-152894342D02*
X201371428Y-153180057D01*
X204371428Y-153180057D02*
X202657142Y-153180057D01*
X203514285Y-153180057D02*
X203514285Y-150180057D01*
X203514285Y-150180057D02*
X203228571Y-150608628D01*
X203228571Y-150608628D02*
X202942856Y-150894342D01*
X202942856Y-150894342D02*
X202657142Y-151037200D01*
X206228571Y-150180057D02*
X206514285Y-150180057D01*
X206514285Y-150180057D02*
X206799999Y-150322914D01*
X206799999Y-150322914D02*
X206942857Y-150465771D01*
X206942857Y-150465771D02*
X207085714Y-150751485D01*
X207085714Y-150751485D02*
X207228571Y-151322914D01*
X207228571Y-151322914D02*
X207228571Y-152037200D01*
X207228571Y-152037200D02*
X207085714Y-152608628D01*
X207085714Y-152608628D02*
X206942857Y-152894342D01*
X206942857Y-152894342D02*
X206799999Y-153037200D01*
X206799999Y-153037200D02*
X206514285Y-153180057D01*
X206514285Y-153180057D02*
X206228571Y-153180057D01*
X206228571Y-153180057D02*
X205942857Y-153037200D01*
X205942857Y-153037200D02*
X205799999Y-152894342D01*
X205799999Y-152894342D02*
X205657142Y-152608628D01*
X205657142Y-152608628D02*
X205514285Y-152037200D01*
X205514285Y-152037200D02*
X205514285Y-151322914D01*
X205514285Y-151322914D02*
X205657142Y-150751485D01*
X205657142Y-150751485D02*
X205799999Y-150465771D01*
X205799999Y-150465771D02*
X205942857Y-150322914D01*
X205942857Y-150322914D02*
X206228571Y-150180057D01*
X209085714Y-150180057D02*
X209371428Y-150180057D01*
X209371428Y-150180057D02*
X209657142Y-150322914D01*
X209657142Y-150322914D02*
X209800000Y-150465771D01*
X209800000Y-150465771D02*
X209942857Y-150751485D01*
X209942857Y-150751485D02*
X210085714Y-151322914D01*
X210085714Y-151322914D02*
X210085714Y-152037200D01*
X210085714Y-152037200D02*
X209942857Y-152608628D01*
X209942857Y-152608628D02*
X209800000Y-152894342D01*
X209800000Y-152894342D02*
X209657142Y-153037200D01*
X209657142Y-153037200D02*
X209371428Y-153180057D01*
X209371428Y-153180057D02*
X209085714Y-153180057D01*
X209085714Y-153180057D02*
X208800000Y-153037200D01*
X208800000Y-153037200D02*
X208657142Y-152894342D01*
X208657142Y-152894342D02*
X208514285Y-152608628D01*
X208514285Y-152608628D02*
X208371428Y-152037200D01*
X208371428Y-152037200D02*
X208371428Y-151322914D01*
X208371428Y-151322914D02*
X208514285Y-150751485D01*
X208514285Y-150751485D02*
X208657142Y-150465771D01*
X208657142Y-150465771D02*
X208800000Y-150322914D01*
X208800000Y-150322914D02*
X209085714Y-150180057D01*
X211942857Y-150180057D02*
X212228571Y-150180057D01*
X212228571Y-150180057D02*
X212514285Y-150322914D01*
X212514285Y-150322914D02*
X212657143Y-150465771D01*
X212657143Y-150465771D02*
X212800000Y-150751485D01*
X212800000Y-150751485D02*
X212942857Y-151322914D01*
X212942857Y-151322914D02*
X212942857Y-152037200D01*
X212942857Y-152037200D02*
X212800000Y-152608628D01*
X212800000Y-152608628D02*
X212657143Y-152894342D01*
X212657143Y-152894342D02*
X212514285Y-153037200D01*
X212514285Y-153037200D02*
X212228571Y-153180057D01*
X212228571Y-153180057D02*
X211942857Y-153180057D01*
X211942857Y-153180057D02*
X211657143Y-153037200D01*
X211657143Y-153037200D02*
X211514285Y-152894342D01*
X211514285Y-152894342D02*
X211371428Y-152608628D01*
X211371428Y-152608628D02*
X211228571Y-152037200D01*
X211228571Y-152037200D02*
X211228571Y-151322914D01*
X211228571Y-151322914D02*
X211371428Y-150751485D01*
X211371428Y-150751485D02*
X211514285Y-150465771D01*
X211514285Y-150465771D02*
X211657143Y-150322914D01*
X211657143Y-150322914D02*
X211942857Y-150180057D01*
X216514285Y-153180057D02*
X216514285Y-151180057D01*
X216514285Y-151465771D02*
X216657142Y-151322914D01*
X216657142Y-151322914D02*
X216942857Y-151180057D01*
X216942857Y-151180057D02*
X217371428Y-151180057D01*
X217371428Y-151180057D02*
X217657142Y-151322914D01*
X217657142Y-151322914D02*
X217800000Y-151608628D01*
X217800000Y-151608628D02*
X217800000Y-153180057D01*
X217800000Y-151608628D02*
X217942857Y-151322914D01*
X217942857Y-151322914D02*
X218228571Y-151180057D01*
X218228571Y-151180057D02*
X218657142Y-151180057D01*
X218657142Y-151180057D02*
X218942857Y-151322914D01*
X218942857Y-151322914D02*
X219085714Y-151608628D01*
X219085714Y-151608628D02*
X219085714Y-153180057D01*
X220514285Y-153180057D02*
X220514285Y-151180057D01*
X220514285Y-151465771D02*
X220657142Y-151322914D01*
X220657142Y-151322914D02*
X220942857Y-151180057D01*
X220942857Y-151180057D02*
X221371428Y-151180057D01*
X221371428Y-151180057D02*
X221657142Y-151322914D01*
X221657142Y-151322914D02*
X221800000Y-151608628D01*
X221800000Y-151608628D02*
X221800000Y-153180057D01*
X221800000Y-151608628D02*
X221942857Y-151322914D01*
X221942857Y-151322914D02*
X222228571Y-151180057D01*
X222228571Y-151180057D02*
X222657142Y-151180057D01*
X222657142Y-151180057D02*
X222942857Y-151322914D01*
X222942857Y-151322914D02*
X223085714Y-151608628D01*
X223085714Y-151608628D02*
X223085714Y-153180057D01*
D10*
X196900000Y-138100000D02*
X196900000Y-149786420D01*
X202000000Y-138100000D02*
X202000000Y-149786420D01*
X196900000Y-149200000D02*
X202000000Y-149200000D01*
X196900000Y-149200000D02*
X202000000Y-149200000D01*
X196900000Y-149200000D02*
X198026504Y-148613579D01*
X196900000Y-149200000D02*
X198026504Y-149786421D01*
X202000000Y-149200000D02*
X200873496Y-149786421D01*
X202000000Y-149200000D02*
X200873496Y-148613579D01*
D11*
X95028571Y-101930057D02*
X96885714Y-101930057D01*
X96885714Y-101930057D02*
X95885714Y-103072914D01*
X95885714Y-103072914D02*
X96314285Y-103072914D01*
X96314285Y-103072914D02*
X96600000Y-103215771D01*
X96600000Y-103215771D02*
X96742857Y-103358628D01*
X96742857Y-103358628D02*
X96885714Y-103644342D01*
X96885714Y-103644342D02*
X96885714Y-104358628D01*
X96885714Y-104358628D02*
X96742857Y-104644342D01*
X96742857Y-104644342D02*
X96600000Y-104787200D01*
X96600000Y-104787200D02*
X96314285Y-104930057D01*
X96314285Y-104930057D02*
X95457142Y-104930057D01*
X95457142Y-104930057D02*
X95171428Y-104787200D01*
X95171428Y-104787200D02*
X95028571Y-104644342D01*
X98171428Y-104644342D02*
X98314285Y-104787200D01*
X98314285Y-104787200D02*
X98171428Y-104930057D01*
X98171428Y-104930057D02*
X98028571Y-104787200D01*
X98028571Y-104787200D02*
X98171428Y-104644342D01*
X98171428Y-104644342D02*
X98171428Y-104930057D01*
X100171428Y-101930057D02*
X100457142Y-101930057D01*
X100457142Y-101930057D02*
X100742856Y-102072914D01*
X100742856Y-102072914D02*
X100885714Y-102215771D01*
X100885714Y-102215771D02*
X101028571Y-102501485D01*
X101028571Y-102501485D02*
X101171428Y-103072914D01*
X101171428Y-103072914D02*
X101171428Y-103787200D01*
X101171428Y-103787200D02*
X101028571Y-104358628D01*
X101028571Y-104358628D02*
X100885714Y-104644342D01*
X100885714Y-104644342D02*
X100742856Y-104787200D01*
X100742856Y-104787200D02*
X100457142Y-104930057D01*
X100457142Y-104930057D02*
X100171428Y-104930057D01*
X100171428Y-104930057D02*
X99885714Y-104787200D01*
X99885714Y-104787200D02*
X99742856Y-104644342D01*
X99742856Y-104644342D02*
X99599999Y-104358628D01*
X99599999Y-104358628D02*
X99457142Y-103787200D01*
X99457142Y-103787200D02*
X99457142Y-103072914D01*
X99457142Y-103072914D02*
X99599999Y-102501485D01*
X99599999Y-102501485D02*
X99742856Y-102215771D01*
X99742856Y-102215771D02*
X99885714Y-102072914D01*
X99885714Y-102072914D02*
X100171428Y-101930057D01*
X103028571Y-101930057D02*
X103314285Y-101930057D01*
X103314285Y-101930057D02*
X103599999Y-102072914D01*
X103599999Y-102072914D02*
X103742857Y-102215771D01*
X103742857Y-102215771D02*
X103885714Y-102501485D01*
X103885714Y-102501485D02*
X104028571Y-103072914D01*
X104028571Y-103072914D02*
X104028571Y-103787200D01*
X104028571Y-103787200D02*
X103885714Y-104358628D01*
X103885714Y-104358628D02*
X103742857Y-104644342D01*
X103742857Y-104644342D02*
X103599999Y-104787200D01*
X103599999Y-104787200D02*
X103314285Y-104930057D01*
X103314285Y-104930057D02*
X103028571Y-104930057D01*
X103028571Y-104930057D02*
X102742857Y-104787200D01*
X102742857Y-104787200D02*
X102599999Y-104644342D01*
X102599999Y-104644342D02*
X102457142Y-104358628D01*
X102457142Y-104358628D02*
X102314285Y-103787200D01*
X102314285Y-103787200D02*
X102314285Y-103072914D01*
X102314285Y-103072914D02*
X102457142Y-102501485D01*
X102457142Y-102501485D02*
X102599999Y-102215771D01*
X102599999Y-102215771D02*
X102742857Y-102072914D01*
X102742857Y-102072914D02*
X103028571Y-101930057D01*
X105885714Y-101930057D02*
X106171428Y-101930057D01*
X106171428Y-101930057D02*
X106457142Y-102072914D01*
X106457142Y-102072914D02*
X106600000Y-102215771D01*
X106600000Y-102215771D02*
X106742857Y-102501485D01*
X106742857Y-102501485D02*
X106885714Y-103072914D01*
X106885714Y-103072914D02*
X106885714Y-103787200D01*
X106885714Y-103787200D02*
X106742857Y-104358628D01*
X106742857Y-104358628D02*
X106600000Y-104644342D01*
X106600000Y-104644342D02*
X106457142Y-104787200D01*
X106457142Y-104787200D02*
X106171428Y-104930057D01*
X106171428Y-104930057D02*
X105885714Y-104930057D01*
X105885714Y-104930057D02*
X105600000Y-104787200D01*
X105600000Y-104787200D02*
X105457142Y-104644342D01*
X105457142Y-104644342D02*
X105314285Y-104358628D01*
X105314285Y-104358628D02*
X105171428Y-103787200D01*
X105171428Y-103787200D02*
X105171428Y-103072914D01*
X105171428Y-103072914D02*
X105314285Y-102501485D01*
X105314285Y-102501485D02*
X105457142Y-102215771D01*
X105457142Y-102215771D02*
X105600000Y-102072914D01*
X105600000Y-102072914D02*
X105885714Y-101930057D01*
X108742857Y-101930057D02*
X109028571Y-101930057D01*
X109028571Y-101930057D02*
X109314285Y-102072914D01*
X109314285Y-102072914D02*
X109457143Y-102215771D01*
X109457143Y-102215771D02*
X109600000Y-102501485D01*
X109600000Y-102501485D02*
X109742857Y-103072914D01*
X109742857Y-103072914D02*
X109742857Y-103787200D01*
X109742857Y-103787200D02*
X109600000Y-104358628D01*
X109600000Y-104358628D02*
X109457143Y-104644342D01*
X109457143Y-104644342D02*
X109314285Y-104787200D01*
X109314285Y-104787200D02*
X109028571Y-104930057D01*
X109028571Y-104930057D02*
X108742857Y-104930057D01*
X108742857Y-104930057D02*
X108457143Y-104787200D01*
X108457143Y-104787200D02*
X108314285Y-104644342D01*
X108314285Y-104644342D02*
X108171428Y-104358628D01*
X108171428Y-104358628D02*
X108028571Y-103787200D01*
X108028571Y-103787200D02*
X108028571Y-103072914D01*
X108028571Y-103072914D02*
X108171428Y-102501485D01*
X108171428Y-102501485D02*
X108314285Y-102215771D01*
X108314285Y-102215771D02*
X108457143Y-102072914D01*
X108457143Y-102072914D02*
X108742857Y-101930057D01*
X113314285Y-104930057D02*
X113314285Y-102930057D01*
X113314285Y-103215771D02*
X113457142Y-103072914D01*
X113457142Y-103072914D02*
X113742857Y-102930057D01*
X113742857Y-102930057D02*
X114171428Y-102930057D01*
X114171428Y-102930057D02*
X114457142Y-103072914D01*
X114457142Y-103072914D02*
X114600000Y-103358628D01*
X114600000Y-103358628D02*
X114600000Y-104930057D01*
X114600000Y-103358628D02*
X114742857Y-103072914D01*
X114742857Y-103072914D02*
X115028571Y-102930057D01*
X115028571Y-102930057D02*
X115457142Y-102930057D01*
X115457142Y-102930057D02*
X115742857Y-103072914D01*
X115742857Y-103072914D02*
X115885714Y-103358628D01*
X115885714Y-103358628D02*
X115885714Y-104930057D01*
X117314285Y-104930057D02*
X117314285Y-102930057D01*
X117314285Y-103215771D02*
X117457142Y-103072914D01*
X117457142Y-103072914D02*
X117742857Y-102930057D01*
X117742857Y-102930057D02*
X118171428Y-102930057D01*
X118171428Y-102930057D02*
X118457142Y-103072914D01*
X118457142Y-103072914D02*
X118600000Y-103358628D01*
X118600000Y-103358628D02*
X118600000Y-104930057D01*
X118600000Y-103358628D02*
X118742857Y-103072914D01*
X118742857Y-103072914D02*
X119028571Y-102930057D01*
X119028571Y-102930057D02*
X119457142Y-102930057D01*
X119457142Y-102930057D02*
X119742857Y-103072914D01*
X119742857Y-103072914D02*
X119885714Y-103358628D01*
X119885714Y-103358628D02*
X119885714Y-104930057D01*
D10*
X109100000Y-121200000D02*
X109100000Y-106113580D01*
X106100000Y-121200000D02*
X106100000Y-106113580D01*
X109100000Y-106700000D02*
X106100000Y-106700000D01*
X109100000Y-106700000D02*
X106100000Y-106700000D01*
X109100000Y-106700000D02*
X107973496Y-107286421D01*
X109100000Y-106700000D02*
X107973496Y-106113579D01*
X106100000Y-106700000D02*
X107226504Y-106113579D01*
X106100000Y-106700000D02*
X107226504Y-107286421D01*
D11*
X124742857Y-21815771D02*
X124885714Y-21672914D01*
X124885714Y-21672914D02*
X125171429Y-21530057D01*
X125171429Y-21530057D02*
X125885714Y-21530057D01*
X125885714Y-21530057D02*
X126171429Y-21672914D01*
X126171429Y-21672914D02*
X126314286Y-21815771D01*
X126314286Y-21815771D02*
X126457143Y-22101485D01*
X126457143Y-22101485D02*
X126457143Y-22387200D01*
X126457143Y-22387200D02*
X126314286Y-22815771D01*
X126314286Y-22815771D02*
X124600000Y-24530057D01*
X124600000Y-24530057D02*
X126457143Y-24530057D01*
X127885714Y-24530057D02*
X128457143Y-24530057D01*
X128457143Y-24530057D02*
X128742857Y-24387200D01*
X128742857Y-24387200D02*
X128885714Y-24244342D01*
X128885714Y-24244342D02*
X129171429Y-23815771D01*
X129171429Y-23815771D02*
X129314286Y-23244342D01*
X129314286Y-23244342D02*
X129314286Y-22101485D01*
X129314286Y-22101485D02*
X129171429Y-21815771D01*
X129171429Y-21815771D02*
X129028572Y-21672914D01*
X129028572Y-21672914D02*
X128742857Y-21530057D01*
X128742857Y-21530057D02*
X128171429Y-21530057D01*
X128171429Y-21530057D02*
X127885714Y-21672914D01*
X127885714Y-21672914D02*
X127742857Y-21815771D01*
X127742857Y-21815771D02*
X127600000Y-22101485D01*
X127600000Y-22101485D02*
X127600000Y-22815771D01*
X127600000Y-22815771D02*
X127742857Y-23101485D01*
X127742857Y-23101485D02*
X127885714Y-23244342D01*
X127885714Y-23244342D02*
X128171429Y-23387200D01*
X128171429Y-23387200D02*
X128742857Y-23387200D01*
X128742857Y-23387200D02*
X129028572Y-23244342D01*
X129028572Y-23244342D02*
X129171429Y-23101485D01*
X129171429Y-23101485D02*
X129314286Y-22815771D01*
X130600000Y-24244342D02*
X130742857Y-24387200D01*
X130742857Y-24387200D02*
X130600000Y-24530057D01*
X130600000Y-24530057D02*
X130457143Y-24387200D01*
X130457143Y-24387200D02*
X130600000Y-24244342D01*
X130600000Y-24244342D02*
X130600000Y-24530057D01*
X132600000Y-21530057D02*
X132885714Y-21530057D01*
X132885714Y-21530057D02*
X133171428Y-21672914D01*
X133171428Y-21672914D02*
X133314286Y-21815771D01*
X133314286Y-21815771D02*
X133457143Y-22101485D01*
X133457143Y-22101485D02*
X133600000Y-22672914D01*
X133600000Y-22672914D02*
X133600000Y-23387200D01*
X133600000Y-23387200D02*
X133457143Y-23958628D01*
X133457143Y-23958628D02*
X133314286Y-24244342D01*
X133314286Y-24244342D02*
X133171428Y-24387200D01*
X133171428Y-24387200D02*
X132885714Y-24530057D01*
X132885714Y-24530057D02*
X132600000Y-24530057D01*
X132600000Y-24530057D02*
X132314286Y-24387200D01*
X132314286Y-24387200D02*
X132171428Y-24244342D01*
X132171428Y-24244342D02*
X132028571Y-23958628D01*
X132028571Y-23958628D02*
X131885714Y-23387200D01*
X131885714Y-23387200D02*
X131885714Y-22672914D01*
X131885714Y-22672914D02*
X132028571Y-22101485D01*
X132028571Y-22101485D02*
X132171428Y-21815771D01*
X132171428Y-21815771D02*
X132314286Y-21672914D01*
X132314286Y-21672914D02*
X132600000Y-21530057D01*
X135457143Y-21530057D02*
X135742857Y-21530057D01*
X135742857Y-21530057D02*
X136028571Y-21672914D01*
X136028571Y-21672914D02*
X136171429Y-21815771D01*
X136171429Y-21815771D02*
X136314286Y-22101485D01*
X136314286Y-22101485D02*
X136457143Y-22672914D01*
X136457143Y-22672914D02*
X136457143Y-23387200D01*
X136457143Y-23387200D02*
X136314286Y-23958628D01*
X136314286Y-23958628D02*
X136171429Y-24244342D01*
X136171429Y-24244342D02*
X136028571Y-24387200D01*
X136028571Y-24387200D02*
X135742857Y-24530057D01*
X135742857Y-24530057D02*
X135457143Y-24530057D01*
X135457143Y-24530057D02*
X135171429Y-24387200D01*
X135171429Y-24387200D02*
X135028571Y-24244342D01*
X135028571Y-24244342D02*
X134885714Y-23958628D01*
X134885714Y-23958628D02*
X134742857Y-23387200D01*
X134742857Y-23387200D02*
X134742857Y-22672914D01*
X134742857Y-22672914D02*
X134885714Y-22101485D01*
X134885714Y-22101485D02*
X135028571Y-21815771D01*
X135028571Y-21815771D02*
X135171429Y-21672914D01*
X135171429Y-21672914D02*
X135457143Y-21530057D01*
X138314286Y-21530057D02*
X138600000Y-21530057D01*
X138600000Y-21530057D02*
X138885714Y-21672914D01*
X138885714Y-21672914D02*
X139028572Y-21815771D01*
X139028572Y-21815771D02*
X139171429Y-22101485D01*
X139171429Y-22101485D02*
X139314286Y-22672914D01*
X139314286Y-22672914D02*
X139314286Y-23387200D01*
X139314286Y-23387200D02*
X139171429Y-23958628D01*
X139171429Y-23958628D02*
X139028572Y-24244342D01*
X139028572Y-24244342D02*
X138885714Y-24387200D01*
X138885714Y-24387200D02*
X138600000Y-24530057D01*
X138600000Y-24530057D02*
X138314286Y-24530057D01*
X138314286Y-24530057D02*
X138028572Y-24387200D01*
X138028572Y-24387200D02*
X137885714Y-24244342D01*
X137885714Y-24244342D02*
X137742857Y-23958628D01*
X137742857Y-23958628D02*
X137600000Y-23387200D01*
X137600000Y-23387200D02*
X137600000Y-22672914D01*
X137600000Y-22672914D02*
X137742857Y-22101485D01*
X137742857Y-22101485D02*
X137885714Y-21815771D01*
X137885714Y-21815771D02*
X138028572Y-21672914D01*
X138028572Y-21672914D02*
X138314286Y-21530057D01*
X141171429Y-21530057D02*
X141457143Y-21530057D01*
X141457143Y-21530057D02*
X141742857Y-21672914D01*
X141742857Y-21672914D02*
X141885715Y-21815771D01*
X141885715Y-21815771D02*
X142028572Y-22101485D01*
X142028572Y-22101485D02*
X142171429Y-22672914D01*
X142171429Y-22672914D02*
X142171429Y-23387200D01*
X142171429Y-23387200D02*
X142028572Y-23958628D01*
X142028572Y-23958628D02*
X141885715Y-24244342D01*
X141885715Y-24244342D02*
X141742857Y-24387200D01*
X141742857Y-24387200D02*
X141457143Y-24530057D01*
X141457143Y-24530057D02*
X141171429Y-24530057D01*
X141171429Y-24530057D02*
X140885715Y-24387200D01*
X140885715Y-24387200D02*
X140742857Y-24244342D01*
X140742857Y-24244342D02*
X140600000Y-23958628D01*
X140600000Y-23958628D02*
X140457143Y-23387200D01*
X140457143Y-23387200D02*
X140457143Y-22672914D01*
X140457143Y-22672914D02*
X140600000Y-22101485D01*
X140600000Y-22101485D02*
X140742857Y-21815771D01*
X140742857Y-21815771D02*
X140885715Y-21672914D01*
X140885715Y-21672914D02*
X141171429Y-21530057D01*
X145742857Y-24530057D02*
X145742857Y-22530057D01*
X145742857Y-22815771D02*
X145885714Y-22672914D01*
X145885714Y-22672914D02*
X146171429Y-22530057D01*
X146171429Y-22530057D02*
X146600000Y-22530057D01*
X146600000Y-22530057D02*
X146885714Y-22672914D01*
X146885714Y-22672914D02*
X147028572Y-22958628D01*
X147028572Y-22958628D02*
X147028572Y-24530057D01*
X147028572Y-22958628D02*
X147171429Y-22672914D01*
X147171429Y-22672914D02*
X147457143Y-22530057D01*
X147457143Y-22530057D02*
X147885714Y-22530057D01*
X147885714Y-22530057D02*
X148171429Y-22672914D01*
X148171429Y-22672914D02*
X148314286Y-22958628D01*
X148314286Y-22958628D02*
X148314286Y-24530057D01*
X149742857Y-24530057D02*
X149742857Y-22530057D01*
X149742857Y-22815771D02*
X149885714Y-22672914D01*
X149885714Y-22672914D02*
X150171429Y-22530057D01*
X150171429Y-22530057D02*
X150600000Y-22530057D01*
X150600000Y-22530057D02*
X150885714Y-22672914D01*
X150885714Y-22672914D02*
X151028572Y-22958628D01*
X151028572Y-22958628D02*
X151028572Y-24530057D01*
X151028572Y-22958628D02*
X151171429Y-22672914D01*
X151171429Y-22672914D02*
X151457143Y-22530057D01*
X151457143Y-22530057D02*
X151885714Y-22530057D01*
X151885714Y-22530057D02*
X152171429Y-22672914D01*
X152171429Y-22672914D02*
X152314286Y-22958628D01*
X152314286Y-22958628D02*
X152314286Y-24530057D01*
D10*
X124100000Y-54600000D02*
X124100000Y-25713580D01*
X153100000Y-54600000D02*
X153100000Y-25713580D01*
X124100000Y-26300000D02*
X153100000Y-26300000D01*
X124100000Y-26300000D02*
X153100000Y-26300000D01*
X124100000Y-26300000D02*
X125226504Y-25713579D01*
X124100000Y-26300000D02*
X125226504Y-26886421D01*
X153100000Y-26300000D02*
X151973496Y-26886421D01*
X153100000Y-26300000D02*
X151973496Y-25713579D01*
D11*
X181028571Y-46715771D02*
X181171428Y-46572914D01*
X181171428Y-46572914D02*
X181457143Y-46430057D01*
X181457143Y-46430057D02*
X182171428Y-46430057D01*
X182171428Y-46430057D02*
X182457143Y-46572914D01*
X182457143Y-46572914D02*
X182600000Y-46715771D01*
X182600000Y-46715771D02*
X182742857Y-47001485D01*
X182742857Y-47001485D02*
X182742857Y-47287200D01*
X182742857Y-47287200D02*
X182600000Y-47715771D01*
X182600000Y-47715771D02*
X180885714Y-49430057D01*
X180885714Y-49430057D02*
X182742857Y-49430057D01*
X184028571Y-49144342D02*
X184171428Y-49287200D01*
X184171428Y-49287200D02*
X184028571Y-49430057D01*
X184028571Y-49430057D02*
X183885714Y-49287200D01*
X183885714Y-49287200D02*
X184028571Y-49144342D01*
X184028571Y-49144342D02*
X184028571Y-49430057D01*
X186885714Y-46430057D02*
X185457142Y-46430057D01*
X185457142Y-46430057D02*
X185314285Y-47858628D01*
X185314285Y-47858628D02*
X185457142Y-47715771D01*
X185457142Y-47715771D02*
X185742857Y-47572914D01*
X185742857Y-47572914D02*
X186457142Y-47572914D01*
X186457142Y-47572914D02*
X186742857Y-47715771D01*
X186742857Y-47715771D02*
X186885714Y-47858628D01*
X186885714Y-47858628D02*
X187028571Y-48144342D01*
X187028571Y-48144342D02*
X187028571Y-48858628D01*
X187028571Y-48858628D02*
X186885714Y-49144342D01*
X186885714Y-49144342D02*
X186742857Y-49287200D01*
X186742857Y-49287200D02*
X186457142Y-49430057D01*
X186457142Y-49430057D02*
X185742857Y-49430057D01*
X185742857Y-49430057D02*
X185457142Y-49287200D01*
X185457142Y-49287200D02*
X185314285Y-49144342D01*
X189600000Y-47430057D02*
X189600000Y-49430057D01*
X188885714Y-46287200D02*
X188171428Y-48430057D01*
X188171428Y-48430057D02*
X190028571Y-48430057D01*
X193457142Y-49430057D02*
X193457142Y-47430057D01*
X193457142Y-47715771D02*
X193599999Y-47572914D01*
X193599999Y-47572914D02*
X193885714Y-47430057D01*
X193885714Y-47430057D02*
X194314285Y-47430057D01*
X194314285Y-47430057D02*
X194599999Y-47572914D01*
X194599999Y-47572914D02*
X194742857Y-47858628D01*
X194742857Y-47858628D02*
X194742857Y-49430057D01*
X194742857Y-47858628D02*
X194885714Y-47572914D01*
X194885714Y-47572914D02*
X195171428Y-47430057D01*
X195171428Y-47430057D02*
X195599999Y-47430057D01*
X195599999Y-47430057D02*
X195885714Y-47572914D01*
X195885714Y-47572914D02*
X196028571Y-47858628D01*
X196028571Y-47858628D02*
X196028571Y-49430057D01*
X197457142Y-49430057D02*
X197457142Y-47430057D01*
X197457142Y-47715771D02*
X197599999Y-47572914D01*
X197599999Y-47572914D02*
X197885714Y-47430057D01*
X197885714Y-47430057D02*
X198314285Y-47430057D01*
X198314285Y-47430057D02*
X198599999Y-47572914D01*
X198599999Y-47572914D02*
X198742857Y-47858628D01*
X198742857Y-47858628D02*
X198742857Y-49430057D01*
X198742857Y-47858628D02*
X198885714Y-47572914D01*
X198885714Y-47572914D02*
X199171428Y-47430057D01*
X199171428Y-47430057D02*
X199599999Y-47430057D01*
X199599999Y-47430057D02*
X199885714Y-47572914D01*
X199885714Y-47572914D02*
X200028571Y-47858628D01*
X200028571Y-47858628D02*
X200028571Y-49430057D01*
D10*
X191900000Y-68600000D02*
X191900000Y-50613580D01*
X189300000Y-68600000D02*
X189300000Y-50613580D01*
X191900000Y-51200000D02*
X189300000Y-51200000D01*
X191900000Y-51200000D02*
X189300000Y-51200000D01*
X191900000Y-51200000D02*
X190773496Y-51786421D01*
X191900000Y-51200000D02*
X190773496Y-50613579D01*
X189300000Y-51200000D02*
X190426504Y-50613579D01*
X189300000Y-51200000D02*
X190426504Y-51786421D01*
D11*
X186042857Y-29715771D02*
X185757142Y-29572914D01*
X185757142Y-29572914D02*
X185614285Y-29430057D01*
X185614285Y-29430057D02*
X185471428Y-29144342D01*
X185471428Y-29144342D02*
X185471428Y-29001485D01*
X185471428Y-29001485D02*
X185614285Y-28715771D01*
X185614285Y-28715771D02*
X185757142Y-28572914D01*
X185757142Y-28572914D02*
X186042857Y-28430057D01*
X186042857Y-28430057D02*
X186614285Y-28430057D01*
X186614285Y-28430057D02*
X186900000Y-28572914D01*
X186900000Y-28572914D02*
X187042857Y-28715771D01*
X187042857Y-28715771D02*
X187185714Y-29001485D01*
X187185714Y-29001485D02*
X187185714Y-29144342D01*
X187185714Y-29144342D02*
X187042857Y-29430057D01*
X187042857Y-29430057D02*
X186900000Y-29572914D01*
X186900000Y-29572914D02*
X186614285Y-29715771D01*
X186614285Y-29715771D02*
X186042857Y-29715771D01*
X186042857Y-29715771D02*
X185757142Y-29858628D01*
X185757142Y-29858628D02*
X185614285Y-30001485D01*
X185614285Y-30001485D02*
X185471428Y-30287200D01*
X185471428Y-30287200D02*
X185471428Y-30858628D01*
X185471428Y-30858628D02*
X185614285Y-31144342D01*
X185614285Y-31144342D02*
X185757142Y-31287200D01*
X185757142Y-31287200D02*
X186042857Y-31430057D01*
X186042857Y-31430057D02*
X186614285Y-31430057D01*
X186614285Y-31430057D02*
X186900000Y-31287200D01*
X186900000Y-31287200D02*
X187042857Y-31144342D01*
X187042857Y-31144342D02*
X187185714Y-30858628D01*
X187185714Y-30858628D02*
X187185714Y-30287200D01*
X187185714Y-30287200D02*
X187042857Y-30001485D01*
X187042857Y-30001485D02*
X186900000Y-29858628D01*
X186900000Y-29858628D02*
X186614285Y-29715771D01*
X188471428Y-31144342D02*
X188614285Y-31287200D01*
X188614285Y-31287200D02*
X188471428Y-31430057D01*
X188471428Y-31430057D02*
X188328571Y-31287200D01*
X188328571Y-31287200D02*
X188471428Y-31144342D01*
X188471428Y-31144342D02*
X188471428Y-31430057D01*
X190471428Y-28430057D02*
X190757142Y-28430057D01*
X190757142Y-28430057D02*
X191042856Y-28572914D01*
X191042856Y-28572914D02*
X191185714Y-28715771D01*
X191185714Y-28715771D02*
X191328571Y-29001485D01*
X191328571Y-29001485D02*
X191471428Y-29572914D01*
X191471428Y-29572914D02*
X191471428Y-30287200D01*
X191471428Y-30287200D02*
X191328571Y-30858628D01*
X191328571Y-30858628D02*
X191185714Y-31144342D01*
X191185714Y-31144342D02*
X191042856Y-31287200D01*
X191042856Y-31287200D02*
X190757142Y-31430057D01*
X190757142Y-31430057D02*
X190471428Y-31430057D01*
X190471428Y-31430057D02*
X190185714Y-31287200D01*
X190185714Y-31287200D02*
X190042856Y-31144342D01*
X190042856Y-31144342D02*
X189899999Y-30858628D01*
X189899999Y-30858628D02*
X189757142Y-30287200D01*
X189757142Y-30287200D02*
X189757142Y-29572914D01*
X189757142Y-29572914D02*
X189899999Y-29001485D01*
X189899999Y-29001485D02*
X190042856Y-28715771D01*
X190042856Y-28715771D02*
X190185714Y-28572914D01*
X190185714Y-28572914D02*
X190471428Y-28430057D01*
X193328571Y-28430057D02*
X193614285Y-28430057D01*
X193614285Y-28430057D02*
X193899999Y-28572914D01*
X193899999Y-28572914D02*
X194042857Y-28715771D01*
X194042857Y-28715771D02*
X194185714Y-29001485D01*
X194185714Y-29001485D02*
X194328571Y-29572914D01*
X194328571Y-29572914D02*
X194328571Y-30287200D01*
X194328571Y-30287200D02*
X194185714Y-30858628D01*
X194185714Y-30858628D02*
X194042857Y-31144342D01*
X194042857Y-31144342D02*
X193899999Y-31287200D01*
X193899999Y-31287200D02*
X193614285Y-31430057D01*
X193614285Y-31430057D02*
X193328571Y-31430057D01*
X193328571Y-31430057D02*
X193042857Y-31287200D01*
X193042857Y-31287200D02*
X192899999Y-31144342D01*
X192899999Y-31144342D02*
X192757142Y-30858628D01*
X192757142Y-30858628D02*
X192614285Y-30287200D01*
X192614285Y-30287200D02*
X192614285Y-29572914D01*
X192614285Y-29572914D02*
X192757142Y-29001485D01*
X192757142Y-29001485D02*
X192899999Y-28715771D01*
X192899999Y-28715771D02*
X193042857Y-28572914D01*
X193042857Y-28572914D02*
X193328571Y-28430057D01*
X196185714Y-28430057D02*
X196471428Y-28430057D01*
X196471428Y-28430057D02*
X196757142Y-28572914D01*
X196757142Y-28572914D02*
X196900000Y-28715771D01*
X196900000Y-28715771D02*
X197042857Y-29001485D01*
X197042857Y-29001485D02*
X197185714Y-29572914D01*
X197185714Y-29572914D02*
X197185714Y-30287200D01*
X197185714Y-30287200D02*
X197042857Y-30858628D01*
X197042857Y-30858628D02*
X196900000Y-31144342D01*
X196900000Y-31144342D02*
X196757142Y-31287200D01*
X196757142Y-31287200D02*
X196471428Y-31430057D01*
X196471428Y-31430057D02*
X196185714Y-31430057D01*
X196185714Y-31430057D02*
X195900000Y-31287200D01*
X195900000Y-31287200D02*
X195757142Y-31144342D01*
X195757142Y-31144342D02*
X195614285Y-30858628D01*
X195614285Y-30858628D02*
X195471428Y-30287200D01*
X195471428Y-30287200D02*
X195471428Y-29572914D01*
X195471428Y-29572914D02*
X195614285Y-29001485D01*
X195614285Y-29001485D02*
X195757142Y-28715771D01*
X195757142Y-28715771D02*
X195900000Y-28572914D01*
X195900000Y-28572914D02*
X196185714Y-28430057D01*
X199042857Y-28430057D02*
X199328571Y-28430057D01*
X199328571Y-28430057D02*
X199614285Y-28572914D01*
X199614285Y-28572914D02*
X199757143Y-28715771D01*
X199757143Y-28715771D02*
X199900000Y-29001485D01*
X199900000Y-29001485D02*
X200042857Y-29572914D01*
X200042857Y-29572914D02*
X200042857Y-30287200D01*
X200042857Y-30287200D02*
X199900000Y-30858628D01*
X199900000Y-30858628D02*
X199757143Y-31144342D01*
X199757143Y-31144342D02*
X199614285Y-31287200D01*
X199614285Y-31287200D02*
X199328571Y-31430057D01*
X199328571Y-31430057D02*
X199042857Y-31430057D01*
X199042857Y-31430057D02*
X198757143Y-31287200D01*
X198757143Y-31287200D02*
X198614285Y-31144342D01*
X198614285Y-31144342D02*
X198471428Y-30858628D01*
X198471428Y-30858628D02*
X198328571Y-30287200D01*
X198328571Y-30287200D02*
X198328571Y-29572914D01*
X198328571Y-29572914D02*
X198471428Y-29001485D01*
X198471428Y-29001485D02*
X198614285Y-28715771D01*
X198614285Y-28715771D02*
X198757143Y-28572914D01*
X198757143Y-28572914D02*
X199042857Y-28430057D01*
X203614285Y-31430057D02*
X203614285Y-29430057D01*
X203614285Y-29715771D02*
X203757142Y-29572914D01*
X203757142Y-29572914D02*
X204042857Y-29430057D01*
X204042857Y-29430057D02*
X204471428Y-29430057D01*
X204471428Y-29430057D02*
X204757142Y-29572914D01*
X204757142Y-29572914D02*
X204900000Y-29858628D01*
X204900000Y-29858628D02*
X204900000Y-31430057D01*
X204900000Y-29858628D02*
X205042857Y-29572914D01*
X205042857Y-29572914D02*
X205328571Y-29430057D01*
X205328571Y-29430057D02*
X205757142Y-29430057D01*
X205757142Y-29430057D02*
X206042857Y-29572914D01*
X206042857Y-29572914D02*
X206185714Y-29858628D01*
X206185714Y-29858628D02*
X206185714Y-31430057D01*
X207614285Y-31430057D02*
X207614285Y-29430057D01*
X207614285Y-29715771D02*
X207757142Y-29572914D01*
X207757142Y-29572914D02*
X208042857Y-29430057D01*
X208042857Y-29430057D02*
X208471428Y-29430057D01*
X208471428Y-29430057D02*
X208757142Y-29572914D01*
X208757142Y-29572914D02*
X208900000Y-29858628D01*
X208900000Y-29858628D02*
X208900000Y-31430057D01*
X208900000Y-29858628D02*
X209042857Y-29572914D01*
X209042857Y-29572914D02*
X209328571Y-29430057D01*
X209328571Y-29430057D02*
X209757142Y-29430057D01*
X209757142Y-29430057D02*
X210042857Y-29572914D01*
X210042857Y-29572914D02*
X210185714Y-29858628D01*
X210185714Y-29858628D02*
X210185714Y-31430057D01*
D10*
X201900000Y-62700000D02*
X201900000Y-32613580D01*
X193900000Y-62700000D02*
X193900000Y-32613580D01*
X201900000Y-33200000D02*
X193900000Y-33200000D01*
X201900000Y-33200000D02*
X193900000Y-33200000D01*
X201900000Y-33200000D02*
X200773496Y-33786421D01*
X201900000Y-33200000D02*
X200773496Y-32613579D01*
X193900000Y-33200000D02*
X195026504Y-32613579D01*
X193900000Y-33200000D02*
X195026504Y-33786421D01*
D11*
X158957142Y-165380057D02*
X159528571Y-165380057D01*
X159528571Y-165380057D02*
X159814285Y-165237200D01*
X159814285Y-165237200D02*
X159957142Y-165094342D01*
X159957142Y-165094342D02*
X160242857Y-164665771D01*
X160242857Y-164665771D02*
X160385714Y-164094342D01*
X160385714Y-164094342D02*
X160385714Y-162951485D01*
X160385714Y-162951485D02*
X160242857Y-162665771D01*
X160242857Y-162665771D02*
X160100000Y-162522914D01*
X160100000Y-162522914D02*
X159814285Y-162380057D01*
X159814285Y-162380057D02*
X159242857Y-162380057D01*
X159242857Y-162380057D02*
X158957142Y-162522914D01*
X158957142Y-162522914D02*
X158814285Y-162665771D01*
X158814285Y-162665771D02*
X158671428Y-162951485D01*
X158671428Y-162951485D02*
X158671428Y-163665771D01*
X158671428Y-163665771D02*
X158814285Y-163951485D01*
X158814285Y-163951485D02*
X158957142Y-164094342D01*
X158957142Y-164094342D02*
X159242857Y-164237200D01*
X159242857Y-164237200D02*
X159814285Y-164237200D01*
X159814285Y-164237200D02*
X160100000Y-164094342D01*
X160100000Y-164094342D02*
X160242857Y-163951485D01*
X160242857Y-163951485D02*
X160385714Y-163665771D01*
X161671428Y-165094342D02*
X161814285Y-165237200D01*
X161814285Y-165237200D02*
X161671428Y-165380057D01*
X161671428Y-165380057D02*
X161528571Y-165237200D01*
X161528571Y-165237200D02*
X161671428Y-165094342D01*
X161671428Y-165094342D02*
X161671428Y-165380057D01*
X163671428Y-162380057D02*
X163957142Y-162380057D01*
X163957142Y-162380057D02*
X164242856Y-162522914D01*
X164242856Y-162522914D02*
X164385714Y-162665771D01*
X164385714Y-162665771D02*
X164528571Y-162951485D01*
X164528571Y-162951485D02*
X164671428Y-163522914D01*
X164671428Y-163522914D02*
X164671428Y-164237200D01*
X164671428Y-164237200D02*
X164528571Y-164808628D01*
X164528571Y-164808628D02*
X164385714Y-165094342D01*
X164385714Y-165094342D02*
X164242856Y-165237200D01*
X164242856Y-165237200D02*
X163957142Y-165380057D01*
X163957142Y-165380057D02*
X163671428Y-165380057D01*
X163671428Y-165380057D02*
X163385714Y-165237200D01*
X163385714Y-165237200D02*
X163242856Y-165094342D01*
X163242856Y-165094342D02*
X163099999Y-164808628D01*
X163099999Y-164808628D02*
X162957142Y-164237200D01*
X162957142Y-164237200D02*
X162957142Y-163522914D01*
X162957142Y-163522914D02*
X163099999Y-162951485D01*
X163099999Y-162951485D02*
X163242856Y-162665771D01*
X163242856Y-162665771D02*
X163385714Y-162522914D01*
X163385714Y-162522914D02*
X163671428Y-162380057D01*
X166528571Y-162380057D02*
X166814285Y-162380057D01*
X166814285Y-162380057D02*
X167099999Y-162522914D01*
X167099999Y-162522914D02*
X167242857Y-162665771D01*
X167242857Y-162665771D02*
X167385714Y-162951485D01*
X167385714Y-162951485D02*
X167528571Y-163522914D01*
X167528571Y-163522914D02*
X167528571Y-164237200D01*
X167528571Y-164237200D02*
X167385714Y-164808628D01*
X167385714Y-164808628D02*
X167242857Y-165094342D01*
X167242857Y-165094342D02*
X167099999Y-165237200D01*
X167099999Y-165237200D02*
X166814285Y-165380057D01*
X166814285Y-165380057D02*
X166528571Y-165380057D01*
X166528571Y-165380057D02*
X166242857Y-165237200D01*
X166242857Y-165237200D02*
X166099999Y-165094342D01*
X166099999Y-165094342D02*
X165957142Y-164808628D01*
X165957142Y-164808628D02*
X165814285Y-164237200D01*
X165814285Y-164237200D02*
X165814285Y-163522914D01*
X165814285Y-163522914D02*
X165957142Y-162951485D01*
X165957142Y-162951485D02*
X166099999Y-162665771D01*
X166099999Y-162665771D02*
X166242857Y-162522914D01*
X166242857Y-162522914D02*
X166528571Y-162380057D01*
X169385714Y-162380057D02*
X169671428Y-162380057D01*
X169671428Y-162380057D02*
X169957142Y-162522914D01*
X169957142Y-162522914D02*
X170100000Y-162665771D01*
X170100000Y-162665771D02*
X170242857Y-162951485D01*
X170242857Y-162951485D02*
X170385714Y-163522914D01*
X170385714Y-163522914D02*
X170385714Y-164237200D01*
X170385714Y-164237200D02*
X170242857Y-164808628D01*
X170242857Y-164808628D02*
X170100000Y-165094342D01*
X170100000Y-165094342D02*
X169957142Y-165237200D01*
X169957142Y-165237200D02*
X169671428Y-165380057D01*
X169671428Y-165380057D02*
X169385714Y-165380057D01*
X169385714Y-165380057D02*
X169100000Y-165237200D01*
X169100000Y-165237200D02*
X168957142Y-165094342D01*
X168957142Y-165094342D02*
X168814285Y-164808628D01*
X168814285Y-164808628D02*
X168671428Y-164237200D01*
X168671428Y-164237200D02*
X168671428Y-163522914D01*
X168671428Y-163522914D02*
X168814285Y-162951485D01*
X168814285Y-162951485D02*
X168957142Y-162665771D01*
X168957142Y-162665771D02*
X169100000Y-162522914D01*
X169100000Y-162522914D02*
X169385714Y-162380057D01*
X172242857Y-162380057D02*
X172528571Y-162380057D01*
X172528571Y-162380057D02*
X172814285Y-162522914D01*
X172814285Y-162522914D02*
X172957143Y-162665771D01*
X172957143Y-162665771D02*
X173100000Y-162951485D01*
X173100000Y-162951485D02*
X173242857Y-163522914D01*
X173242857Y-163522914D02*
X173242857Y-164237200D01*
X173242857Y-164237200D02*
X173100000Y-164808628D01*
X173100000Y-164808628D02*
X172957143Y-165094342D01*
X172957143Y-165094342D02*
X172814285Y-165237200D01*
X172814285Y-165237200D02*
X172528571Y-165380057D01*
X172528571Y-165380057D02*
X172242857Y-165380057D01*
X172242857Y-165380057D02*
X171957143Y-165237200D01*
X171957143Y-165237200D02*
X171814285Y-165094342D01*
X171814285Y-165094342D02*
X171671428Y-164808628D01*
X171671428Y-164808628D02*
X171528571Y-164237200D01*
X171528571Y-164237200D02*
X171528571Y-163522914D01*
X171528571Y-163522914D02*
X171671428Y-162951485D01*
X171671428Y-162951485D02*
X171814285Y-162665771D01*
X171814285Y-162665771D02*
X171957143Y-162522914D01*
X171957143Y-162522914D02*
X172242857Y-162380057D01*
X176814285Y-165380057D02*
X176814285Y-163380057D01*
X176814285Y-163665771D02*
X176957142Y-163522914D01*
X176957142Y-163522914D02*
X177242857Y-163380057D01*
X177242857Y-163380057D02*
X177671428Y-163380057D01*
X177671428Y-163380057D02*
X177957142Y-163522914D01*
X177957142Y-163522914D02*
X178100000Y-163808628D01*
X178100000Y-163808628D02*
X178100000Y-165380057D01*
X178100000Y-163808628D02*
X178242857Y-163522914D01*
X178242857Y-163522914D02*
X178528571Y-163380057D01*
X178528571Y-163380057D02*
X178957142Y-163380057D01*
X178957142Y-163380057D02*
X179242857Y-163522914D01*
X179242857Y-163522914D02*
X179385714Y-163808628D01*
X179385714Y-163808628D02*
X179385714Y-165380057D01*
X180814285Y-165380057D02*
X180814285Y-163380057D01*
X180814285Y-163665771D02*
X180957142Y-163522914D01*
X180957142Y-163522914D02*
X181242857Y-163380057D01*
X181242857Y-163380057D02*
X181671428Y-163380057D01*
X181671428Y-163380057D02*
X181957142Y-163522914D01*
X181957142Y-163522914D02*
X182100000Y-163808628D01*
X182100000Y-163808628D02*
X182100000Y-165380057D01*
X182100000Y-163808628D02*
X182242857Y-163522914D01*
X182242857Y-163522914D02*
X182528571Y-163380057D01*
X182528571Y-163380057D02*
X182957142Y-163380057D01*
X182957142Y-163380057D02*
X183242857Y-163522914D01*
X183242857Y-163522914D02*
X183385714Y-163808628D01*
X183385714Y-163808628D02*
X183385714Y-165380057D01*
D10*
X185000000Y-145700000D02*
X185000000Y-163486420D01*
X176000000Y-145700000D02*
X176000000Y-163486420D01*
X185000000Y-162900000D02*
X183873496Y-163486421D01*
X185000000Y-162900000D02*
X183873496Y-162313579D01*
X176000000Y-162900000D02*
X177126504Y-162313579D01*
X176000000Y-162900000D02*
X177126504Y-163486421D01*
D11*
X90780057Y-53971428D02*
X90780057Y-52114285D01*
X90780057Y-52114285D02*
X91922914Y-53114285D01*
X91922914Y-53114285D02*
X91922914Y-52685714D01*
X91922914Y-52685714D02*
X92065771Y-52400000D01*
X92065771Y-52400000D02*
X92208628Y-52257142D01*
X92208628Y-52257142D02*
X92494342Y-52114285D01*
X92494342Y-52114285D02*
X93208628Y-52114285D01*
X93208628Y-52114285D02*
X93494342Y-52257142D01*
X93494342Y-52257142D02*
X93637200Y-52400000D01*
X93637200Y-52400000D02*
X93780057Y-52685714D01*
X93780057Y-52685714D02*
X93780057Y-53542857D01*
X93780057Y-53542857D02*
X93637200Y-53828571D01*
X93637200Y-53828571D02*
X93494342Y-53971428D01*
X93494342Y-50828571D02*
X93637200Y-50685714D01*
X93637200Y-50685714D02*
X93780057Y-50828571D01*
X93780057Y-50828571D02*
X93637200Y-50971428D01*
X93637200Y-50971428D02*
X93494342Y-50828571D01*
X93494342Y-50828571D02*
X93780057Y-50828571D01*
X91065771Y-49542857D02*
X90922914Y-49400000D01*
X90922914Y-49400000D02*
X90780057Y-49114286D01*
X90780057Y-49114286D02*
X90780057Y-48400000D01*
X90780057Y-48400000D02*
X90922914Y-48114286D01*
X90922914Y-48114286D02*
X91065771Y-47971428D01*
X91065771Y-47971428D02*
X91351485Y-47828571D01*
X91351485Y-47828571D02*
X91637200Y-47828571D01*
X91637200Y-47828571D02*
X92065771Y-47971428D01*
X92065771Y-47971428D02*
X93780057Y-49685714D01*
X93780057Y-49685714D02*
X93780057Y-47828571D01*
X90780057Y-45971428D02*
X90780057Y-45685714D01*
X90780057Y-45685714D02*
X90922914Y-45400000D01*
X90922914Y-45400000D02*
X91065771Y-45257143D01*
X91065771Y-45257143D02*
X91351485Y-45114285D01*
X91351485Y-45114285D02*
X91922914Y-44971428D01*
X91922914Y-44971428D02*
X92637200Y-44971428D01*
X92637200Y-44971428D02*
X93208628Y-45114285D01*
X93208628Y-45114285D02*
X93494342Y-45257143D01*
X93494342Y-45257143D02*
X93637200Y-45400000D01*
X93637200Y-45400000D02*
X93780057Y-45685714D01*
X93780057Y-45685714D02*
X93780057Y-45971428D01*
X93780057Y-45971428D02*
X93637200Y-46257143D01*
X93637200Y-46257143D02*
X93494342Y-46400000D01*
X93494342Y-46400000D02*
X93208628Y-46542857D01*
X93208628Y-46542857D02*
X92637200Y-46685714D01*
X92637200Y-46685714D02*
X91922914Y-46685714D01*
X91922914Y-46685714D02*
X91351485Y-46542857D01*
X91351485Y-46542857D02*
X91065771Y-46400000D01*
X91065771Y-46400000D02*
X90922914Y-46257143D01*
X90922914Y-46257143D02*
X90780057Y-45971428D01*
X90780057Y-43114285D02*
X90780057Y-42828571D01*
X90780057Y-42828571D02*
X90922914Y-42542857D01*
X90922914Y-42542857D02*
X91065771Y-42400000D01*
X91065771Y-42400000D02*
X91351485Y-42257142D01*
X91351485Y-42257142D02*
X91922914Y-42114285D01*
X91922914Y-42114285D02*
X92637200Y-42114285D01*
X92637200Y-42114285D02*
X93208628Y-42257142D01*
X93208628Y-42257142D02*
X93494342Y-42400000D01*
X93494342Y-42400000D02*
X93637200Y-42542857D01*
X93637200Y-42542857D02*
X93780057Y-42828571D01*
X93780057Y-42828571D02*
X93780057Y-43114285D01*
X93780057Y-43114285D02*
X93637200Y-43400000D01*
X93637200Y-43400000D02*
X93494342Y-43542857D01*
X93494342Y-43542857D02*
X93208628Y-43685714D01*
X93208628Y-43685714D02*
X92637200Y-43828571D01*
X92637200Y-43828571D02*
X91922914Y-43828571D01*
X91922914Y-43828571D02*
X91351485Y-43685714D01*
X91351485Y-43685714D02*
X91065771Y-43542857D01*
X91065771Y-43542857D02*
X90922914Y-43400000D01*
X90922914Y-43400000D02*
X90780057Y-43114285D01*
X90780057Y-40257142D02*
X90780057Y-39971428D01*
X90780057Y-39971428D02*
X90922914Y-39685714D01*
X90922914Y-39685714D02*
X91065771Y-39542857D01*
X91065771Y-39542857D02*
X91351485Y-39399999D01*
X91351485Y-39399999D02*
X91922914Y-39257142D01*
X91922914Y-39257142D02*
X92637200Y-39257142D01*
X92637200Y-39257142D02*
X93208628Y-39399999D01*
X93208628Y-39399999D02*
X93494342Y-39542857D01*
X93494342Y-39542857D02*
X93637200Y-39685714D01*
X93637200Y-39685714D02*
X93780057Y-39971428D01*
X93780057Y-39971428D02*
X93780057Y-40257142D01*
X93780057Y-40257142D02*
X93637200Y-40542857D01*
X93637200Y-40542857D02*
X93494342Y-40685714D01*
X93494342Y-40685714D02*
X93208628Y-40828571D01*
X93208628Y-40828571D02*
X92637200Y-40971428D01*
X92637200Y-40971428D02*
X91922914Y-40971428D01*
X91922914Y-40971428D02*
X91351485Y-40828571D01*
X91351485Y-40828571D02*
X91065771Y-40685714D01*
X91065771Y-40685714D02*
X90922914Y-40542857D01*
X90922914Y-40542857D02*
X90780057Y-40257142D01*
X93780057Y-35685714D02*
X91780057Y-35685714D01*
X92065771Y-35685714D02*
X91922914Y-35542857D01*
X91922914Y-35542857D02*
X91780057Y-35257142D01*
X91780057Y-35257142D02*
X91780057Y-34828571D01*
X91780057Y-34828571D02*
X91922914Y-34542857D01*
X91922914Y-34542857D02*
X92208628Y-34400000D01*
X92208628Y-34400000D02*
X93780057Y-34400000D01*
X92208628Y-34400000D02*
X91922914Y-34257142D01*
X91922914Y-34257142D02*
X91780057Y-33971428D01*
X91780057Y-33971428D02*
X91780057Y-33542857D01*
X91780057Y-33542857D02*
X91922914Y-33257142D01*
X91922914Y-33257142D02*
X92208628Y-33114285D01*
X92208628Y-33114285D02*
X93780057Y-33114285D01*
X93780057Y-31685714D02*
X91780057Y-31685714D01*
X92065771Y-31685714D02*
X91922914Y-31542857D01*
X91922914Y-31542857D02*
X91780057Y-31257142D01*
X91780057Y-31257142D02*
X91780057Y-30828571D01*
X91780057Y-30828571D02*
X91922914Y-30542857D01*
X91922914Y-30542857D02*
X92208628Y-30400000D01*
X92208628Y-30400000D02*
X93780057Y-30400000D01*
X92208628Y-30400000D02*
X91922914Y-30257142D01*
X91922914Y-30257142D02*
X91780057Y-29971428D01*
X91780057Y-29971428D02*
X91780057Y-29542857D01*
X91780057Y-29542857D02*
X91922914Y-29257142D01*
X91922914Y-29257142D02*
X92208628Y-29114285D01*
X92208628Y-29114285D02*
X93780057Y-29114285D01*
D10*
X110700000Y-58600000D02*
X92213580Y-58600000D01*
X110700000Y-61800000D02*
X92213580Y-61800000D01*
X92800000Y-58600000D02*
X92800000Y-61800000D01*
X92800000Y-58600000D02*
X92800000Y-61800000D01*
X92800000Y-58600000D02*
X93386421Y-59726504D01*
X92800000Y-58600000D02*
X92213579Y-59726504D01*
X92800000Y-61800000D02*
X92213579Y-60673496D01*
X92800000Y-61800000D02*
X93386421Y-60673496D01*
D11*
X87480057Y-102199999D02*
X87480057Y-100342856D01*
X87480057Y-100342856D02*
X88622914Y-101342856D01*
X88622914Y-101342856D02*
X88622914Y-100914285D01*
X88622914Y-100914285D02*
X88765771Y-100628571D01*
X88765771Y-100628571D02*
X88908628Y-100485713D01*
X88908628Y-100485713D02*
X89194342Y-100342856D01*
X89194342Y-100342856D02*
X89908628Y-100342856D01*
X89908628Y-100342856D02*
X90194342Y-100485713D01*
X90194342Y-100485713D02*
X90337200Y-100628571D01*
X90337200Y-100628571D02*
X90480057Y-100914285D01*
X90480057Y-100914285D02*
X90480057Y-101771428D01*
X90480057Y-101771428D02*
X90337200Y-102057142D01*
X90337200Y-102057142D02*
X90194342Y-102199999D01*
X87480057Y-97628570D02*
X87480057Y-99057142D01*
X87480057Y-99057142D02*
X88908628Y-99199999D01*
X88908628Y-99199999D02*
X88765771Y-99057142D01*
X88765771Y-99057142D02*
X88622914Y-98771428D01*
X88622914Y-98771428D02*
X88622914Y-98057142D01*
X88622914Y-98057142D02*
X88765771Y-97771428D01*
X88765771Y-97771428D02*
X88908628Y-97628570D01*
X88908628Y-97628570D02*
X89194342Y-97485713D01*
X89194342Y-97485713D02*
X89908628Y-97485713D01*
X89908628Y-97485713D02*
X90194342Y-97628570D01*
X90194342Y-97628570D02*
X90337200Y-97771428D01*
X90337200Y-97771428D02*
X90480057Y-98057142D01*
X90480057Y-98057142D02*
X90480057Y-98771428D01*
X90480057Y-98771428D02*
X90337200Y-99057142D01*
X90337200Y-99057142D02*
X90194342Y-99199999D01*
X90194342Y-96199999D02*
X90337200Y-96057142D01*
X90337200Y-96057142D02*
X90480057Y-96199999D01*
X90480057Y-96199999D02*
X90337200Y-96342856D01*
X90337200Y-96342856D02*
X90194342Y-96199999D01*
X90194342Y-96199999D02*
X90480057Y-96199999D01*
X87480057Y-94199999D02*
X87480057Y-93914285D01*
X87480057Y-93914285D02*
X87622914Y-93628571D01*
X87622914Y-93628571D02*
X87765771Y-93485714D01*
X87765771Y-93485714D02*
X88051485Y-93342856D01*
X88051485Y-93342856D02*
X88622914Y-93199999D01*
X88622914Y-93199999D02*
X89337200Y-93199999D01*
X89337200Y-93199999D02*
X89908628Y-93342856D01*
X89908628Y-93342856D02*
X90194342Y-93485714D01*
X90194342Y-93485714D02*
X90337200Y-93628571D01*
X90337200Y-93628571D02*
X90480057Y-93914285D01*
X90480057Y-93914285D02*
X90480057Y-94199999D01*
X90480057Y-94199999D02*
X90337200Y-94485714D01*
X90337200Y-94485714D02*
X90194342Y-94628571D01*
X90194342Y-94628571D02*
X89908628Y-94771428D01*
X89908628Y-94771428D02*
X89337200Y-94914285D01*
X89337200Y-94914285D02*
X88622914Y-94914285D01*
X88622914Y-94914285D02*
X88051485Y-94771428D01*
X88051485Y-94771428D02*
X87765771Y-94628571D01*
X87765771Y-94628571D02*
X87622914Y-94485714D01*
X87622914Y-94485714D02*
X87480057Y-94199999D01*
X87480057Y-91342856D02*
X87480057Y-91057142D01*
X87480057Y-91057142D02*
X87622914Y-90771428D01*
X87622914Y-90771428D02*
X87765771Y-90628571D01*
X87765771Y-90628571D02*
X88051485Y-90485713D01*
X88051485Y-90485713D02*
X88622914Y-90342856D01*
X88622914Y-90342856D02*
X89337200Y-90342856D01*
X89337200Y-90342856D02*
X89908628Y-90485713D01*
X89908628Y-90485713D02*
X90194342Y-90628571D01*
X90194342Y-90628571D02*
X90337200Y-90771428D01*
X90337200Y-90771428D02*
X90480057Y-91057142D01*
X90480057Y-91057142D02*
X90480057Y-91342856D01*
X90480057Y-91342856D02*
X90337200Y-91628571D01*
X90337200Y-91628571D02*
X90194342Y-91771428D01*
X90194342Y-91771428D02*
X89908628Y-91914285D01*
X89908628Y-91914285D02*
X89337200Y-92057142D01*
X89337200Y-92057142D02*
X88622914Y-92057142D01*
X88622914Y-92057142D02*
X88051485Y-91914285D01*
X88051485Y-91914285D02*
X87765771Y-91771428D01*
X87765771Y-91771428D02*
X87622914Y-91628571D01*
X87622914Y-91628571D02*
X87480057Y-91342856D01*
X87480057Y-88485713D02*
X87480057Y-88199999D01*
X87480057Y-88199999D02*
X87622914Y-87914285D01*
X87622914Y-87914285D02*
X87765771Y-87771428D01*
X87765771Y-87771428D02*
X88051485Y-87628570D01*
X88051485Y-87628570D02*
X88622914Y-87485713D01*
X88622914Y-87485713D02*
X89337200Y-87485713D01*
X89337200Y-87485713D02*
X89908628Y-87628570D01*
X89908628Y-87628570D02*
X90194342Y-87771428D01*
X90194342Y-87771428D02*
X90337200Y-87914285D01*
X90337200Y-87914285D02*
X90480057Y-88199999D01*
X90480057Y-88199999D02*
X90480057Y-88485713D01*
X90480057Y-88485713D02*
X90337200Y-88771428D01*
X90337200Y-88771428D02*
X90194342Y-88914285D01*
X90194342Y-88914285D02*
X89908628Y-89057142D01*
X89908628Y-89057142D02*
X89337200Y-89199999D01*
X89337200Y-89199999D02*
X88622914Y-89199999D01*
X88622914Y-89199999D02*
X88051485Y-89057142D01*
X88051485Y-89057142D02*
X87765771Y-88914285D01*
X87765771Y-88914285D02*
X87622914Y-88771428D01*
X87622914Y-88771428D02*
X87480057Y-88485713D01*
X87480057Y-85628570D02*
X87480057Y-85342856D01*
X87480057Y-85342856D02*
X87622914Y-85057142D01*
X87622914Y-85057142D02*
X87765771Y-84914285D01*
X87765771Y-84914285D02*
X88051485Y-84771427D01*
X88051485Y-84771427D02*
X88622914Y-84628570D01*
X88622914Y-84628570D02*
X89337200Y-84628570D01*
X89337200Y-84628570D02*
X89908628Y-84771427D01*
X89908628Y-84771427D02*
X90194342Y-84914285D01*
X90194342Y-84914285D02*
X90337200Y-85057142D01*
X90337200Y-85057142D02*
X90480057Y-85342856D01*
X90480057Y-85342856D02*
X90480057Y-85628570D01*
X90480057Y-85628570D02*
X90337200Y-85914285D01*
X90337200Y-85914285D02*
X90194342Y-86057142D01*
X90194342Y-86057142D02*
X89908628Y-86199999D01*
X89908628Y-86199999D02*
X89337200Y-86342856D01*
X89337200Y-86342856D02*
X88622914Y-86342856D01*
X88622914Y-86342856D02*
X88051485Y-86199999D01*
X88051485Y-86199999D02*
X87765771Y-86057142D01*
X87765771Y-86057142D02*
X87622914Y-85914285D01*
X87622914Y-85914285D02*
X87480057Y-85628570D01*
X90480057Y-81057142D02*
X88480057Y-81057142D01*
X88765771Y-81057142D02*
X88622914Y-80914285D01*
X88622914Y-80914285D02*
X88480057Y-80628570D01*
X88480057Y-80628570D02*
X88480057Y-80199999D01*
X88480057Y-80199999D02*
X88622914Y-79914285D01*
X88622914Y-79914285D02*
X88908628Y-79771428D01*
X88908628Y-79771428D02*
X90480057Y-79771428D01*
X88908628Y-79771428D02*
X88622914Y-79628570D01*
X88622914Y-79628570D02*
X88480057Y-79342856D01*
X88480057Y-79342856D02*
X88480057Y-78914285D01*
X88480057Y-78914285D02*
X88622914Y-78628570D01*
X88622914Y-78628570D02*
X88908628Y-78485713D01*
X88908628Y-78485713D02*
X90480057Y-78485713D01*
X90480057Y-77057142D02*
X88480057Y-77057142D01*
X88765771Y-77057142D02*
X88622914Y-76914285D01*
X88622914Y-76914285D02*
X88480057Y-76628570D01*
X88480057Y-76628570D02*
X88480057Y-76199999D01*
X88480057Y-76199999D02*
X88622914Y-75914285D01*
X88622914Y-75914285D02*
X88908628Y-75771428D01*
X88908628Y-75771428D02*
X90480057Y-75771428D01*
X88908628Y-75771428D02*
X88622914Y-75628570D01*
X88622914Y-75628570D02*
X88480057Y-75342856D01*
X88480057Y-75342856D02*
X88480057Y-74914285D01*
X88480057Y-74914285D02*
X88622914Y-74628570D01*
X88622914Y-74628570D02*
X88908628Y-74485713D01*
X88908628Y-74485713D02*
X90480057Y-74485713D01*
D10*
X105600000Y-91100000D02*
X95113580Y-91100000D01*
X105600000Y-56100000D02*
X95113580Y-56100000D01*
X95700000Y-91100000D02*
X95700000Y-56100000D01*
X95700000Y-91100000D02*
X95700000Y-56100000D01*
X95700000Y-91100000D02*
X95113579Y-89973496D01*
X95700000Y-91100000D02*
X96286421Y-89973496D01*
X95700000Y-56100000D02*
X96286421Y-57226504D01*
X95700000Y-56100000D02*
X95113579Y-57226504D01*
D11*
X141715771Y-68528571D02*
X141572914Y-68385714D01*
X141572914Y-68385714D02*
X141430057Y-68100000D01*
X141430057Y-68100000D02*
X141430057Y-67385714D01*
X141430057Y-67385714D02*
X141572914Y-67100000D01*
X141572914Y-67100000D02*
X141715771Y-66957142D01*
X141715771Y-66957142D02*
X142001485Y-66814285D01*
X142001485Y-66814285D02*
X142287200Y-66814285D01*
X142287200Y-66814285D02*
X142715771Y-66957142D01*
X142715771Y-66957142D02*
X144430057Y-68671428D01*
X144430057Y-68671428D02*
X144430057Y-66814285D01*
X144144342Y-65528571D02*
X144287200Y-65385714D01*
X144287200Y-65385714D02*
X144430057Y-65528571D01*
X144430057Y-65528571D02*
X144287200Y-65671428D01*
X144287200Y-65671428D02*
X144144342Y-65528571D01*
X144144342Y-65528571D02*
X144430057Y-65528571D01*
X141430057Y-63528571D02*
X141430057Y-63242857D01*
X141430057Y-63242857D02*
X141572914Y-62957143D01*
X141572914Y-62957143D02*
X141715771Y-62814286D01*
X141715771Y-62814286D02*
X142001485Y-62671428D01*
X142001485Y-62671428D02*
X142572914Y-62528571D01*
X142572914Y-62528571D02*
X143287200Y-62528571D01*
X143287200Y-62528571D02*
X143858628Y-62671428D01*
X143858628Y-62671428D02*
X144144342Y-62814286D01*
X144144342Y-62814286D02*
X144287200Y-62957143D01*
X144287200Y-62957143D02*
X144430057Y-63242857D01*
X144430057Y-63242857D02*
X144430057Y-63528571D01*
X144430057Y-63528571D02*
X144287200Y-63814286D01*
X144287200Y-63814286D02*
X144144342Y-63957143D01*
X144144342Y-63957143D02*
X143858628Y-64100000D01*
X143858628Y-64100000D02*
X143287200Y-64242857D01*
X143287200Y-64242857D02*
X142572914Y-64242857D01*
X142572914Y-64242857D02*
X142001485Y-64100000D01*
X142001485Y-64100000D02*
X141715771Y-63957143D01*
X141715771Y-63957143D02*
X141572914Y-63814286D01*
X141572914Y-63814286D02*
X141430057Y-63528571D01*
X141430057Y-60671428D02*
X141430057Y-60385714D01*
X141430057Y-60385714D02*
X141572914Y-60100000D01*
X141572914Y-60100000D02*
X141715771Y-59957143D01*
X141715771Y-59957143D02*
X142001485Y-59814285D01*
X142001485Y-59814285D02*
X142572914Y-59671428D01*
X142572914Y-59671428D02*
X143287200Y-59671428D01*
X143287200Y-59671428D02*
X143858628Y-59814285D01*
X143858628Y-59814285D02*
X144144342Y-59957143D01*
X144144342Y-59957143D02*
X144287200Y-60100000D01*
X144287200Y-60100000D02*
X144430057Y-60385714D01*
X144430057Y-60385714D02*
X144430057Y-60671428D01*
X144430057Y-60671428D02*
X144287200Y-60957143D01*
X144287200Y-60957143D02*
X144144342Y-61100000D01*
X144144342Y-61100000D02*
X143858628Y-61242857D01*
X143858628Y-61242857D02*
X143287200Y-61385714D01*
X143287200Y-61385714D02*
X142572914Y-61385714D01*
X142572914Y-61385714D02*
X142001485Y-61242857D01*
X142001485Y-61242857D02*
X141715771Y-61100000D01*
X141715771Y-61100000D02*
X141572914Y-60957143D01*
X141572914Y-60957143D02*
X141430057Y-60671428D01*
X141430057Y-57814285D02*
X141430057Y-57528571D01*
X141430057Y-57528571D02*
X141572914Y-57242857D01*
X141572914Y-57242857D02*
X141715771Y-57100000D01*
X141715771Y-57100000D02*
X142001485Y-56957142D01*
X142001485Y-56957142D02*
X142572914Y-56814285D01*
X142572914Y-56814285D02*
X143287200Y-56814285D01*
X143287200Y-56814285D02*
X143858628Y-56957142D01*
X143858628Y-56957142D02*
X144144342Y-57100000D01*
X144144342Y-57100000D02*
X144287200Y-57242857D01*
X144287200Y-57242857D02*
X144430057Y-57528571D01*
X144430057Y-57528571D02*
X144430057Y-57814285D01*
X144430057Y-57814285D02*
X144287200Y-58100000D01*
X144287200Y-58100000D02*
X144144342Y-58242857D01*
X144144342Y-58242857D02*
X143858628Y-58385714D01*
X143858628Y-58385714D02*
X143287200Y-58528571D01*
X143287200Y-58528571D02*
X142572914Y-58528571D01*
X142572914Y-58528571D02*
X142001485Y-58385714D01*
X142001485Y-58385714D02*
X141715771Y-58242857D01*
X141715771Y-58242857D02*
X141572914Y-58100000D01*
X141572914Y-58100000D02*
X141430057Y-57814285D01*
X141430057Y-54957142D02*
X141430057Y-54671428D01*
X141430057Y-54671428D02*
X141572914Y-54385714D01*
X141572914Y-54385714D02*
X141715771Y-54242857D01*
X141715771Y-54242857D02*
X142001485Y-54099999D01*
X142001485Y-54099999D02*
X142572914Y-53957142D01*
X142572914Y-53957142D02*
X143287200Y-53957142D01*
X143287200Y-53957142D02*
X143858628Y-54099999D01*
X143858628Y-54099999D02*
X144144342Y-54242857D01*
X144144342Y-54242857D02*
X144287200Y-54385714D01*
X144287200Y-54385714D02*
X144430057Y-54671428D01*
X144430057Y-54671428D02*
X144430057Y-54957142D01*
X144430057Y-54957142D02*
X144287200Y-55242857D01*
X144287200Y-55242857D02*
X144144342Y-55385714D01*
X144144342Y-55385714D02*
X143858628Y-55528571D01*
X143858628Y-55528571D02*
X143287200Y-55671428D01*
X143287200Y-55671428D02*
X142572914Y-55671428D01*
X142572914Y-55671428D02*
X142001485Y-55528571D01*
X142001485Y-55528571D02*
X141715771Y-55385714D01*
X141715771Y-55385714D02*
X141572914Y-55242857D01*
X141572914Y-55242857D02*
X141430057Y-54957142D01*
X144430057Y-50385714D02*
X142430057Y-50385714D01*
X142715771Y-50385714D02*
X142572914Y-50242857D01*
X142572914Y-50242857D02*
X142430057Y-49957142D01*
X142430057Y-49957142D02*
X142430057Y-49528571D01*
X142430057Y-49528571D02*
X142572914Y-49242857D01*
X142572914Y-49242857D02*
X142858628Y-49100000D01*
X142858628Y-49100000D02*
X144430057Y-49100000D01*
X142858628Y-49100000D02*
X142572914Y-48957142D01*
X142572914Y-48957142D02*
X142430057Y-48671428D01*
X142430057Y-48671428D02*
X142430057Y-48242857D01*
X142430057Y-48242857D02*
X142572914Y-47957142D01*
X142572914Y-47957142D02*
X142858628Y-47814285D01*
X142858628Y-47814285D02*
X144430057Y-47814285D01*
X144430057Y-46385714D02*
X142430057Y-46385714D01*
X142715771Y-46385714D02*
X142572914Y-46242857D01*
X142572914Y-46242857D02*
X142430057Y-45957142D01*
X142430057Y-45957142D02*
X142430057Y-45528571D01*
X142430057Y-45528571D02*
X142572914Y-45242857D01*
X142572914Y-45242857D02*
X142858628Y-45100000D01*
X142858628Y-45100000D02*
X144430057Y-45100000D01*
X142858628Y-45100000D02*
X142572914Y-44957142D01*
X142572914Y-44957142D02*
X142430057Y-44671428D01*
X142430057Y-44671428D02*
X142430057Y-44242857D01*
X142430057Y-44242857D02*
X142572914Y-43957142D01*
X142572914Y-43957142D02*
X142858628Y-43814285D01*
X142858628Y-43814285D02*
X144430057Y-43814285D01*
D10*
X152600000Y-57100000D02*
X145613580Y-57100000D01*
X152600000Y-55100000D02*
X145613580Y-55100000D01*
X146200000Y-57100000D02*
X146200000Y-55100000D01*
X146200000Y-57100000D02*
X146200000Y-55100000D01*
X146200000Y-57100000D02*
X145613579Y-55973496D01*
X146200000Y-57100000D02*
X146786421Y-55973496D01*
X146200000Y-55100000D02*
X146786421Y-56226504D01*
X146200000Y-55100000D02*
X145613579Y-56226504D01*
D11*
X221880057Y-150042856D02*
X221880057Y-151757142D01*
X221880057Y-150899999D02*
X218880057Y-150899999D01*
X218880057Y-150899999D02*
X219308628Y-151185713D01*
X219308628Y-151185713D02*
X219594342Y-151471428D01*
X219594342Y-151471428D02*
X219737200Y-151757142D01*
X218880057Y-148185713D02*
X218880057Y-147899999D01*
X218880057Y-147899999D02*
X219022914Y-147614285D01*
X219022914Y-147614285D02*
X219165771Y-147471428D01*
X219165771Y-147471428D02*
X219451485Y-147328570D01*
X219451485Y-147328570D02*
X220022914Y-147185713D01*
X220022914Y-147185713D02*
X220737200Y-147185713D01*
X220737200Y-147185713D02*
X221308628Y-147328570D01*
X221308628Y-147328570D02*
X221594342Y-147471428D01*
X221594342Y-147471428D02*
X221737200Y-147614285D01*
X221737200Y-147614285D02*
X221880057Y-147899999D01*
X221880057Y-147899999D02*
X221880057Y-148185713D01*
X221880057Y-148185713D02*
X221737200Y-148471428D01*
X221737200Y-148471428D02*
X221594342Y-148614285D01*
X221594342Y-148614285D02*
X221308628Y-148757142D01*
X221308628Y-148757142D02*
X220737200Y-148899999D01*
X220737200Y-148899999D02*
X220022914Y-148899999D01*
X220022914Y-148899999D02*
X219451485Y-148757142D01*
X219451485Y-148757142D02*
X219165771Y-148614285D01*
X219165771Y-148614285D02*
X219022914Y-148471428D01*
X219022914Y-148471428D02*
X218880057Y-148185713D01*
X221594342Y-145899999D02*
X221737200Y-145757142D01*
X221737200Y-145757142D02*
X221880057Y-145899999D01*
X221880057Y-145899999D02*
X221737200Y-146042856D01*
X221737200Y-146042856D02*
X221594342Y-145899999D01*
X221594342Y-145899999D02*
X221880057Y-145899999D01*
X218880057Y-143899999D02*
X218880057Y-143614285D01*
X218880057Y-143614285D02*
X219022914Y-143328571D01*
X219022914Y-143328571D02*
X219165771Y-143185714D01*
X219165771Y-143185714D02*
X219451485Y-143042856D01*
X219451485Y-143042856D02*
X220022914Y-142899999D01*
X220022914Y-142899999D02*
X220737200Y-142899999D01*
X220737200Y-142899999D02*
X221308628Y-143042856D01*
X221308628Y-143042856D02*
X221594342Y-143185714D01*
X221594342Y-143185714D02*
X221737200Y-143328571D01*
X221737200Y-143328571D02*
X221880057Y-143614285D01*
X221880057Y-143614285D02*
X221880057Y-143899999D01*
X221880057Y-143899999D02*
X221737200Y-144185714D01*
X221737200Y-144185714D02*
X221594342Y-144328571D01*
X221594342Y-144328571D02*
X221308628Y-144471428D01*
X221308628Y-144471428D02*
X220737200Y-144614285D01*
X220737200Y-144614285D02*
X220022914Y-144614285D01*
X220022914Y-144614285D02*
X219451485Y-144471428D01*
X219451485Y-144471428D02*
X219165771Y-144328571D01*
X219165771Y-144328571D02*
X219022914Y-144185714D01*
X219022914Y-144185714D02*
X218880057Y-143899999D01*
X218880057Y-141042856D02*
X218880057Y-140757142D01*
X218880057Y-140757142D02*
X219022914Y-140471428D01*
X219022914Y-140471428D02*
X219165771Y-140328571D01*
X219165771Y-140328571D02*
X219451485Y-140185713D01*
X219451485Y-140185713D02*
X220022914Y-140042856D01*
X220022914Y-140042856D02*
X220737200Y-140042856D01*
X220737200Y-140042856D02*
X221308628Y-140185713D01*
X221308628Y-140185713D02*
X221594342Y-140328571D01*
X221594342Y-140328571D02*
X221737200Y-140471428D01*
X221737200Y-140471428D02*
X221880057Y-140757142D01*
X221880057Y-140757142D02*
X221880057Y-141042856D01*
X221880057Y-141042856D02*
X221737200Y-141328571D01*
X221737200Y-141328571D02*
X221594342Y-141471428D01*
X221594342Y-141471428D02*
X221308628Y-141614285D01*
X221308628Y-141614285D02*
X220737200Y-141757142D01*
X220737200Y-141757142D02*
X220022914Y-141757142D01*
X220022914Y-141757142D02*
X219451485Y-141614285D01*
X219451485Y-141614285D02*
X219165771Y-141471428D01*
X219165771Y-141471428D02*
X219022914Y-141328571D01*
X219022914Y-141328571D02*
X218880057Y-141042856D01*
X218880057Y-138185713D02*
X218880057Y-137899999D01*
X218880057Y-137899999D02*
X219022914Y-137614285D01*
X219022914Y-137614285D02*
X219165771Y-137471428D01*
X219165771Y-137471428D02*
X219451485Y-137328570D01*
X219451485Y-137328570D02*
X220022914Y-137185713D01*
X220022914Y-137185713D02*
X220737200Y-137185713D01*
X220737200Y-137185713D02*
X221308628Y-137328570D01*
X221308628Y-137328570D02*
X221594342Y-137471428D01*
X221594342Y-137471428D02*
X221737200Y-137614285D01*
X221737200Y-137614285D02*
X221880057Y-137899999D01*
X221880057Y-137899999D02*
X221880057Y-138185713D01*
X221880057Y-138185713D02*
X221737200Y-138471428D01*
X221737200Y-138471428D02*
X221594342Y-138614285D01*
X221594342Y-138614285D02*
X221308628Y-138757142D01*
X221308628Y-138757142D02*
X220737200Y-138899999D01*
X220737200Y-138899999D02*
X220022914Y-138899999D01*
X220022914Y-138899999D02*
X219451485Y-138757142D01*
X219451485Y-138757142D02*
X219165771Y-138614285D01*
X219165771Y-138614285D02*
X219022914Y-138471428D01*
X219022914Y-138471428D02*
X218880057Y-138185713D01*
X218880057Y-135328570D02*
X218880057Y-135042856D01*
X218880057Y-135042856D02*
X219022914Y-134757142D01*
X219022914Y-134757142D02*
X219165771Y-134614285D01*
X219165771Y-134614285D02*
X219451485Y-134471427D01*
X219451485Y-134471427D02*
X220022914Y-134328570D01*
X220022914Y-134328570D02*
X220737200Y-134328570D01*
X220737200Y-134328570D02*
X221308628Y-134471427D01*
X221308628Y-134471427D02*
X221594342Y-134614285D01*
X221594342Y-134614285D02*
X221737200Y-134757142D01*
X221737200Y-134757142D02*
X221880057Y-135042856D01*
X221880057Y-135042856D02*
X221880057Y-135328570D01*
X221880057Y-135328570D02*
X221737200Y-135614285D01*
X221737200Y-135614285D02*
X221594342Y-135757142D01*
X221594342Y-135757142D02*
X221308628Y-135899999D01*
X221308628Y-135899999D02*
X220737200Y-136042856D01*
X220737200Y-136042856D02*
X220022914Y-136042856D01*
X220022914Y-136042856D02*
X219451485Y-135899999D01*
X219451485Y-135899999D02*
X219165771Y-135757142D01*
X219165771Y-135757142D02*
X219022914Y-135614285D01*
X219022914Y-135614285D02*
X218880057Y-135328570D01*
X221880057Y-130757142D02*
X219880057Y-130757142D01*
X220165771Y-130757142D02*
X220022914Y-130614285D01*
X220022914Y-130614285D02*
X219880057Y-130328570D01*
X219880057Y-130328570D02*
X219880057Y-129899999D01*
X219880057Y-129899999D02*
X220022914Y-129614285D01*
X220022914Y-129614285D02*
X220308628Y-129471428D01*
X220308628Y-129471428D02*
X221880057Y-129471428D01*
X220308628Y-129471428D02*
X220022914Y-129328570D01*
X220022914Y-129328570D02*
X219880057Y-129042856D01*
X219880057Y-129042856D02*
X219880057Y-128614285D01*
X219880057Y-128614285D02*
X220022914Y-128328570D01*
X220022914Y-128328570D02*
X220308628Y-128185713D01*
X220308628Y-128185713D02*
X221880057Y-128185713D01*
X221880057Y-126757142D02*
X219880057Y-126757142D01*
X220165771Y-126757142D02*
X220022914Y-126614285D01*
X220022914Y-126614285D02*
X219880057Y-126328570D01*
X219880057Y-126328570D02*
X219880057Y-125899999D01*
X219880057Y-125899999D02*
X220022914Y-125614285D01*
X220022914Y-125614285D02*
X220308628Y-125471428D01*
X220308628Y-125471428D02*
X221880057Y-125471428D01*
X220308628Y-125471428D02*
X220022914Y-125328570D01*
X220022914Y-125328570D02*
X219880057Y-125042856D01*
X219880057Y-125042856D02*
X219880057Y-124614285D01*
X219880057Y-124614285D02*
X220022914Y-124328570D01*
X220022914Y-124328570D02*
X220308628Y-124185713D01*
X220308628Y-124185713D02*
X221880057Y-124185713D01*
D10*
X202500000Y-134300000D02*
X217686420Y-134300000D01*
X202500000Y-144300000D02*
X217686420Y-144300000D01*
X217100000Y-134300000D02*
X217100000Y-144300000D01*
X217100000Y-134300000D02*
X217100000Y-144300000D01*
X217100000Y-134300000D02*
X217686421Y-135426504D01*
X217100000Y-134300000D02*
X216513579Y-135426504D01*
X217100000Y-144300000D02*
X216513579Y-143173496D01*
X217100000Y-144300000D02*
X217686421Y-143173496D01*
D11*
X188557143Y-164680057D02*
X186842857Y-164680057D01*
X187700000Y-164680057D02*
X187700000Y-161680057D01*
X187700000Y-161680057D02*
X187414286Y-162108628D01*
X187414286Y-162108628D02*
X187128571Y-162394342D01*
X187128571Y-162394342D02*
X186842857Y-162537200D01*
X189557143Y-161680057D02*
X191557143Y-161680057D01*
X191557143Y-161680057D02*
X190271429Y-164680057D01*
X192700000Y-164394342D02*
X192842857Y-164537200D01*
X192842857Y-164537200D02*
X192700000Y-164680057D01*
X192700000Y-164680057D02*
X192557143Y-164537200D01*
X192557143Y-164537200D02*
X192700000Y-164394342D01*
X192700000Y-164394342D02*
X192700000Y-164680057D01*
X194700000Y-161680057D02*
X194985714Y-161680057D01*
X194985714Y-161680057D02*
X195271428Y-161822914D01*
X195271428Y-161822914D02*
X195414286Y-161965771D01*
X195414286Y-161965771D02*
X195557143Y-162251485D01*
X195557143Y-162251485D02*
X195700000Y-162822914D01*
X195700000Y-162822914D02*
X195700000Y-163537200D01*
X195700000Y-163537200D02*
X195557143Y-164108628D01*
X195557143Y-164108628D02*
X195414286Y-164394342D01*
X195414286Y-164394342D02*
X195271428Y-164537200D01*
X195271428Y-164537200D02*
X194985714Y-164680057D01*
X194985714Y-164680057D02*
X194700000Y-164680057D01*
X194700000Y-164680057D02*
X194414286Y-164537200D01*
X194414286Y-164537200D02*
X194271428Y-164394342D01*
X194271428Y-164394342D02*
X194128571Y-164108628D01*
X194128571Y-164108628D02*
X193985714Y-163537200D01*
X193985714Y-163537200D02*
X193985714Y-162822914D01*
X193985714Y-162822914D02*
X194128571Y-162251485D01*
X194128571Y-162251485D02*
X194271428Y-161965771D01*
X194271428Y-161965771D02*
X194414286Y-161822914D01*
X194414286Y-161822914D02*
X194700000Y-161680057D01*
X197557143Y-161680057D02*
X197842857Y-161680057D01*
X197842857Y-161680057D02*
X198128571Y-161822914D01*
X198128571Y-161822914D02*
X198271429Y-161965771D01*
X198271429Y-161965771D02*
X198414286Y-162251485D01*
X198414286Y-162251485D02*
X198557143Y-162822914D01*
X198557143Y-162822914D02*
X198557143Y-163537200D01*
X198557143Y-163537200D02*
X198414286Y-164108628D01*
X198414286Y-164108628D02*
X198271429Y-164394342D01*
X198271429Y-164394342D02*
X198128571Y-164537200D01*
X198128571Y-164537200D02*
X197842857Y-164680057D01*
X197842857Y-164680057D02*
X197557143Y-164680057D01*
X197557143Y-164680057D02*
X197271429Y-164537200D01*
X197271429Y-164537200D02*
X197128571Y-164394342D01*
X197128571Y-164394342D02*
X196985714Y-164108628D01*
X196985714Y-164108628D02*
X196842857Y-163537200D01*
X196842857Y-163537200D02*
X196842857Y-162822914D01*
X196842857Y-162822914D02*
X196985714Y-162251485D01*
X196985714Y-162251485D02*
X197128571Y-161965771D01*
X197128571Y-161965771D02*
X197271429Y-161822914D01*
X197271429Y-161822914D02*
X197557143Y-161680057D01*
X200414286Y-161680057D02*
X200700000Y-161680057D01*
X200700000Y-161680057D02*
X200985714Y-161822914D01*
X200985714Y-161822914D02*
X201128572Y-161965771D01*
X201128572Y-161965771D02*
X201271429Y-162251485D01*
X201271429Y-162251485D02*
X201414286Y-162822914D01*
X201414286Y-162822914D02*
X201414286Y-163537200D01*
X201414286Y-163537200D02*
X201271429Y-164108628D01*
X201271429Y-164108628D02*
X201128572Y-164394342D01*
X201128572Y-164394342D02*
X200985714Y-164537200D01*
X200985714Y-164537200D02*
X200700000Y-164680057D01*
X200700000Y-164680057D02*
X200414286Y-164680057D01*
X200414286Y-164680057D02*
X200128572Y-164537200D01*
X200128572Y-164537200D02*
X199985714Y-164394342D01*
X199985714Y-164394342D02*
X199842857Y-164108628D01*
X199842857Y-164108628D02*
X199700000Y-163537200D01*
X199700000Y-163537200D02*
X199700000Y-162822914D01*
X199700000Y-162822914D02*
X199842857Y-162251485D01*
X199842857Y-162251485D02*
X199985714Y-161965771D01*
X199985714Y-161965771D02*
X200128572Y-161822914D01*
X200128572Y-161822914D02*
X200414286Y-161680057D01*
X203271429Y-161680057D02*
X203557143Y-161680057D01*
X203557143Y-161680057D02*
X203842857Y-161822914D01*
X203842857Y-161822914D02*
X203985715Y-161965771D01*
X203985715Y-161965771D02*
X204128572Y-162251485D01*
X204128572Y-162251485D02*
X204271429Y-162822914D01*
X204271429Y-162822914D02*
X204271429Y-163537200D01*
X204271429Y-163537200D02*
X204128572Y-164108628D01*
X204128572Y-164108628D02*
X203985715Y-164394342D01*
X203985715Y-164394342D02*
X203842857Y-164537200D01*
X203842857Y-164537200D02*
X203557143Y-164680057D01*
X203557143Y-164680057D02*
X203271429Y-164680057D01*
X203271429Y-164680057D02*
X202985715Y-164537200D01*
X202985715Y-164537200D02*
X202842857Y-164394342D01*
X202842857Y-164394342D02*
X202700000Y-164108628D01*
X202700000Y-164108628D02*
X202557143Y-163537200D01*
X202557143Y-163537200D02*
X202557143Y-162822914D01*
X202557143Y-162822914D02*
X202700000Y-162251485D01*
X202700000Y-162251485D02*
X202842857Y-161965771D01*
X202842857Y-161965771D02*
X202985715Y-161822914D01*
X202985715Y-161822914D02*
X203271429Y-161680057D01*
X207842857Y-164680057D02*
X207842857Y-162680057D01*
X207842857Y-162965771D02*
X207985714Y-162822914D01*
X207985714Y-162822914D02*
X208271429Y-162680057D01*
X208271429Y-162680057D02*
X208700000Y-162680057D01*
X208700000Y-162680057D02*
X208985714Y-162822914D01*
X208985714Y-162822914D02*
X209128572Y-163108628D01*
X209128572Y-163108628D02*
X209128572Y-164680057D01*
X209128572Y-163108628D02*
X209271429Y-162822914D01*
X209271429Y-162822914D02*
X209557143Y-162680057D01*
X209557143Y-162680057D02*
X209985714Y-162680057D01*
X209985714Y-162680057D02*
X210271429Y-162822914D01*
X210271429Y-162822914D02*
X210414286Y-163108628D01*
X210414286Y-163108628D02*
X210414286Y-164680057D01*
X211842857Y-164680057D02*
X211842857Y-162680057D01*
X211842857Y-162965771D02*
X211985714Y-162822914D01*
X211985714Y-162822914D02*
X212271429Y-162680057D01*
X212271429Y-162680057D02*
X212700000Y-162680057D01*
X212700000Y-162680057D02*
X212985714Y-162822914D01*
X212985714Y-162822914D02*
X213128572Y-163108628D01*
X213128572Y-163108628D02*
X213128572Y-164680057D01*
X213128572Y-163108628D02*
X213271429Y-162822914D01*
X213271429Y-162822914D02*
X213557143Y-162680057D01*
X213557143Y-162680057D02*
X213985714Y-162680057D01*
X213985714Y-162680057D02*
X214271429Y-162822914D01*
X214271429Y-162822914D02*
X214414286Y-163108628D01*
X214414286Y-163108628D02*
X214414286Y-164680057D01*
D10*
X185000000Y-144800000D02*
X185000000Y-159486420D01*
X202000000Y-144800000D02*
X202000000Y-159486420D01*
X185000000Y-158900000D02*
X202000000Y-158900000D01*
X185000000Y-158900000D02*
X202000000Y-158900000D01*
X185000000Y-158900000D02*
X186126504Y-158313579D01*
X185000000Y-158900000D02*
X186126504Y-159486421D01*
X202000000Y-158900000D02*
X200873496Y-159486421D01*
X202000000Y-158900000D02*
X200873496Y-158313579D01*
D11*
X215530057Y-73992856D02*
X215530057Y-75707142D01*
X215530057Y-74849999D02*
X212530057Y-74849999D01*
X212530057Y-74849999D02*
X212958628Y-75135713D01*
X212958628Y-75135713D02*
X213244342Y-75421428D01*
X213244342Y-75421428D02*
X213387200Y-75707142D01*
X215530057Y-71135713D02*
X215530057Y-72849999D01*
X215530057Y-71992856D02*
X212530057Y-71992856D01*
X212530057Y-71992856D02*
X212958628Y-72278570D01*
X212958628Y-72278570D02*
X213244342Y-72564285D01*
X213244342Y-72564285D02*
X213387200Y-72849999D01*
X215244342Y-69849999D02*
X215387200Y-69707142D01*
X215387200Y-69707142D02*
X215530057Y-69849999D01*
X215530057Y-69849999D02*
X215387200Y-69992856D01*
X215387200Y-69992856D02*
X215244342Y-69849999D01*
X215244342Y-69849999D02*
X215530057Y-69849999D01*
X212530057Y-66992856D02*
X212530057Y-68421428D01*
X212530057Y-68421428D02*
X213958628Y-68564285D01*
X213958628Y-68564285D02*
X213815771Y-68421428D01*
X213815771Y-68421428D02*
X213672914Y-68135714D01*
X213672914Y-68135714D02*
X213672914Y-67421428D01*
X213672914Y-67421428D02*
X213815771Y-67135714D01*
X213815771Y-67135714D02*
X213958628Y-66992856D01*
X213958628Y-66992856D02*
X214244342Y-66849999D01*
X214244342Y-66849999D02*
X214958628Y-66849999D01*
X214958628Y-66849999D02*
X215244342Y-66992856D01*
X215244342Y-66992856D02*
X215387200Y-67135714D01*
X215387200Y-67135714D02*
X215530057Y-67421428D01*
X215530057Y-67421428D02*
X215530057Y-68135714D01*
X215530057Y-68135714D02*
X215387200Y-68421428D01*
X215387200Y-68421428D02*
X215244342Y-68564285D01*
X212530057Y-64992856D02*
X212530057Y-64707142D01*
X212530057Y-64707142D02*
X212672914Y-64421428D01*
X212672914Y-64421428D02*
X212815771Y-64278571D01*
X212815771Y-64278571D02*
X213101485Y-64135713D01*
X213101485Y-64135713D02*
X213672914Y-63992856D01*
X213672914Y-63992856D02*
X214387200Y-63992856D01*
X214387200Y-63992856D02*
X214958628Y-64135713D01*
X214958628Y-64135713D02*
X215244342Y-64278571D01*
X215244342Y-64278571D02*
X215387200Y-64421428D01*
X215387200Y-64421428D02*
X215530057Y-64707142D01*
X215530057Y-64707142D02*
X215530057Y-64992856D01*
X215530057Y-64992856D02*
X215387200Y-65278571D01*
X215387200Y-65278571D02*
X215244342Y-65421428D01*
X215244342Y-65421428D02*
X214958628Y-65564285D01*
X214958628Y-65564285D02*
X214387200Y-65707142D01*
X214387200Y-65707142D02*
X213672914Y-65707142D01*
X213672914Y-65707142D02*
X213101485Y-65564285D01*
X213101485Y-65564285D02*
X212815771Y-65421428D01*
X212815771Y-65421428D02*
X212672914Y-65278571D01*
X212672914Y-65278571D02*
X212530057Y-64992856D01*
X212530057Y-62135713D02*
X212530057Y-61849999D01*
X212530057Y-61849999D02*
X212672914Y-61564285D01*
X212672914Y-61564285D02*
X212815771Y-61421428D01*
X212815771Y-61421428D02*
X213101485Y-61278570D01*
X213101485Y-61278570D02*
X213672914Y-61135713D01*
X213672914Y-61135713D02*
X214387200Y-61135713D01*
X214387200Y-61135713D02*
X214958628Y-61278570D01*
X214958628Y-61278570D02*
X215244342Y-61421428D01*
X215244342Y-61421428D02*
X215387200Y-61564285D01*
X215387200Y-61564285D02*
X215530057Y-61849999D01*
X215530057Y-61849999D02*
X215530057Y-62135713D01*
X215530057Y-62135713D02*
X215387200Y-62421428D01*
X215387200Y-62421428D02*
X215244342Y-62564285D01*
X215244342Y-62564285D02*
X214958628Y-62707142D01*
X214958628Y-62707142D02*
X214387200Y-62849999D01*
X214387200Y-62849999D02*
X213672914Y-62849999D01*
X213672914Y-62849999D02*
X213101485Y-62707142D01*
X213101485Y-62707142D02*
X212815771Y-62564285D01*
X212815771Y-62564285D02*
X212672914Y-62421428D01*
X212672914Y-62421428D02*
X212530057Y-62135713D01*
X212530057Y-59278570D02*
X212530057Y-58992856D01*
X212530057Y-58992856D02*
X212672914Y-58707142D01*
X212672914Y-58707142D02*
X212815771Y-58564285D01*
X212815771Y-58564285D02*
X213101485Y-58421427D01*
X213101485Y-58421427D02*
X213672914Y-58278570D01*
X213672914Y-58278570D02*
X214387200Y-58278570D01*
X214387200Y-58278570D02*
X214958628Y-58421427D01*
X214958628Y-58421427D02*
X215244342Y-58564285D01*
X215244342Y-58564285D02*
X215387200Y-58707142D01*
X215387200Y-58707142D02*
X215530057Y-58992856D01*
X215530057Y-58992856D02*
X215530057Y-59278570D01*
X215530057Y-59278570D02*
X215387200Y-59564285D01*
X215387200Y-59564285D02*
X215244342Y-59707142D01*
X215244342Y-59707142D02*
X214958628Y-59849999D01*
X214958628Y-59849999D02*
X214387200Y-59992856D01*
X214387200Y-59992856D02*
X213672914Y-59992856D01*
X213672914Y-59992856D02*
X213101485Y-59849999D01*
X213101485Y-59849999D02*
X212815771Y-59707142D01*
X212815771Y-59707142D02*
X212672914Y-59564285D01*
X212672914Y-59564285D02*
X212530057Y-59278570D01*
X215530057Y-54707142D02*
X213530057Y-54707142D01*
X213815771Y-54707142D02*
X213672914Y-54564285D01*
X213672914Y-54564285D02*
X213530057Y-54278570D01*
X213530057Y-54278570D02*
X213530057Y-53849999D01*
X213530057Y-53849999D02*
X213672914Y-53564285D01*
X213672914Y-53564285D02*
X213958628Y-53421428D01*
X213958628Y-53421428D02*
X215530057Y-53421428D01*
X213958628Y-53421428D02*
X213672914Y-53278570D01*
X213672914Y-53278570D02*
X213530057Y-52992856D01*
X213530057Y-52992856D02*
X213530057Y-52564285D01*
X213530057Y-52564285D02*
X213672914Y-52278570D01*
X213672914Y-52278570D02*
X213958628Y-52135713D01*
X213958628Y-52135713D02*
X215530057Y-52135713D01*
X215530057Y-50707142D02*
X213530057Y-50707142D01*
X213815771Y-50707142D02*
X213672914Y-50564285D01*
X213672914Y-50564285D02*
X213530057Y-50278570D01*
X213530057Y-50278570D02*
X213530057Y-49849999D01*
X213530057Y-49849999D02*
X213672914Y-49564285D01*
X213672914Y-49564285D02*
X213958628Y-49421428D01*
X213958628Y-49421428D02*
X215530057Y-49421428D01*
X213958628Y-49421428D02*
X213672914Y-49278570D01*
X213672914Y-49278570D02*
X213530057Y-48992856D01*
X213530057Y-48992856D02*
X213530057Y-48564285D01*
X213530057Y-48564285D02*
X213672914Y-48278570D01*
X213672914Y-48278570D02*
X213958628Y-48135713D01*
X213958628Y-48135713D02*
X215530057Y-48135713D01*
D10*
X202500000Y-56100000D02*
X217886420Y-56100000D01*
X202500000Y-67600000D02*
X217886420Y-67600000D01*
X217300000Y-56100000D02*
X217300000Y-67600000D01*
X217300000Y-56100000D02*
X217300000Y-67600000D01*
X217300000Y-56100000D02*
X217886421Y-57226504D01*
X217300000Y-56100000D02*
X216713579Y-57226504D01*
X217300000Y-67600000D02*
X216713579Y-66473496D01*
X217300000Y-67600000D02*
X217886421Y-66473496D01*
D12*
X165000000Y-21172257D02*
X166857143Y-21172257D01*
X166857143Y-21172257D02*
X165857143Y-22315114D01*
X165857143Y-22315114D02*
X166285714Y-22315114D01*
X166285714Y-22315114D02*
X166571429Y-22457971D01*
X166571429Y-22457971D02*
X166714286Y-22600828D01*
X166714286Y-22600828D02*
X166857143Y-22886542D01*
X166857143Y-22886542D02*
X166857143Y-23600828D01*
X166857143Y-23600828D02*
X166714286Y-23886542D01*
X166714286Y-23886542D02*
X166571429Y-24029400D01*
X166571429Y-24029400D02*
X166285714Y-24172257D01*
X166285714Y-24172257D02*
X165428571Y-24172257D01*
X165428571Y-24172257D02*
X165142857Y-24029400D01*
X165142857Y-24029400D02*
X165000000Y-23886542D01*
X168714286Y-21172257D02*
X169000000Y-21172257D01*
X169000000Y-21172257D02*
X169285714Y-21315114D01*
X169285714Y-21315114D02*
X169428572Y-21457971D01*
X169428572Y-21457971D02*
X169571429Y-21743685D01*
X169571429Y-21743685D02*
X169714286Y-22315114D01*
X169714286Y-22315114D02*
X169714286Y-23029400D01*
X169714286Y-23029400D02*
X169571429Y-23600828D01*
X169571429Y-23600828D02*
X169428572Y-23886542D01*
X169428572Y-23886542D02*
X169285714Y-24029400D01*
X169285714Y-24029400D02*
X169000000Y-24172257D01*
X169000000Y-24172257D02*
X168714286Y-24172257D01*
X168714286Y-24172257D02*
X168428572Y-24029400D01*
X168428572Y-24029400D02*
X168285714Y-23886542D01*
X168285714Y-23886542D02*
X168142857Y-23600828D01*
X168142857Y-23600828D02*
X168000000Y-23029400D01*
X168000000Y-23029400D02*
X168000000Y-22315114D01*
X168000000Y-22315114D02*
X168142857Y-21743685D01*
X168142857Y-21743685D02*
X168285714Y-21457971D01*
X168285714Y-21457971D02*
X168428572Y-21315114D01*
X168428572Y-21315114D02*
X168714286Y-21172257D01*
X171000000Y-23886542D02*
X171142857Y-24029400D01*
X171142857Y-24029400D02*
X171000000Y-24172257D01*
X171000000Y-24172257D02*
X170857143Y-24029400D01*
X170857143Y-24029400D02*
X171000000Y-23886542D01*
X171000000Y-23886542D02*
X171000000Y-24172257D01*
X173000000Y-21172257D02*
X173285714Y-21172257D01*
X173285714Y-21172257D02*
X173571428Y-21315114D01*
X173571428Y-21315114D02*
X173714286Y-21457971D01*
X173714286Y-21457971D02*
X173857143Y-21743685D01*
X173857143Y-21743685D02*
X174000000Y-22315114D01*
X174000000Y-22315114D02*
X174000000Y-23029400D01*
X174000000Y-23029400D02*
X173857143Y-23600828D01*
X173857143Y-23600828D02*
X173714286Y-23886542D01*
X173714286Y-23886542D02*
X173571428Y-24029400D01*
X173571428Y-24029400D02*
X173285714Y-24172257D01*
X173285714Y-24172257D02*
X173000000Y-24172257D01*
X173000000Y-24172257D02*
X172714286Y-24029400D01*
X172714286Y-24029400D02*
X172571428Y-23886542D01*
X172571428Y-23886542D02*
X172428571Y-23600828D01*
X172428571Y-23600828D02*
X172285714Y-23029400D01*
X172285714Y-23029400D02*
X172285714Y-22315114D01*
X172285714Y-22315114D02*
X172428571Y-21743685D01*
X172428571Y-21743685D02*
X172571428Y-21457971D01*
X172571428Y-21457971D02*
X172714286Y-21315114D01*
X172714286Y-21315114D02*
X173000000Y-21172257D01*
X175857143Y-21172257D02*
X176142857Y-21172257D01*
X176142857Y-21172257D02*
X176428571Y-21315114D01*
X176428571Y-21315114D02*
X176571429Y-21457971D01*
X176571429Y-21457971D02*
X176714286Y-21743685D01*
X176714286Y-21743685D02*
X176857143Y-22315114D01*
X176857143Y-22315114D02*
X176857143Y-23029400D01*
X176857143Y-23029400D02*
X176714286Y-23600828D01*
X176714286Y-23600828D02*
X176571429Y-23886542D01*
X176571429Y-23886542D02*
X176428571Y-24029400D01*
X176428571Y-24029400D02*
X176142857Y-24172257D01*
X176142857Y-24172257D02*
X175857143Y-24172257D01*
X175857143Y-24172257D02*
X175571429Y-24029400D01*
X175571429Y-24029400D02*
X175428571Y-23886542D01*
X175428571Y-23886542D02*
X175285714Y-23600828D01*
X175285714Y-23600828D02*
X175142857Y-23029400D01*
X175142857Y-23029400D02*
X175142857Y-22315114D01*
X175142857Y-22315114D02*
X175285714Y-21743685D01*
X175285714Y-21743685D02*
X175428571Y-21457971D01*
X175428571Y-21457971D02*
X175571429Y-21315114D01*
X175571429Y-21315114D02*
X175857143Y-21172257D01*
X178714286Y-21172257D02*
X179000000Y-21172257D01*
X179000000Y-21172257D02*
X179285714Y-21315114D01*
X179285714Y-21315114D02*
X179428572Y-21457971D01*
X179428572Y-21457971D02*
X179571429Y-21743685D01*
X179571429Y-21743685D02*
X179714286Y-22315114D01*
X179714286Y-22315114D02*
X179714286Y-23029400D01*
X179714286Y-23029400D02*
X179571429Y-23600828D01*
X179571429Y-23600828D02*
X179428572Y-23886542D01*
X179428572Y-23886542D02*
X179285714Y-24029400D01*
X179285714Y-24029400D02*
X179000000Y-24172257D01*
X179000000Y-24172257D02*
X178714286Y-24172257D01*
X178714286Y-24172257D02*
X178428572Y-24029400D01*
X178428572Y-24029400D02*
X178285714Y-23886542D01*
X178285714Y-23886542D02*
X178142857Y-23600828D01*
X178142857Y-23600828D02*
X178000000Y-23029400D01*
X178000000Y-23029400D02*
X178000000Y-22315114D01*
X178000000Y-22315114D02*
X178142857Y-21743685D01*
X178142857Y-21743685D02*
X178285714Y-21457971D01*
X178285714Y-21457971D02*
X178428572Y-21315114D01*
X178428572Y-21315114D02*
X178714286Y-21172257D01*
X181571429Y-21172257D02*
X181857143Y-21172257D01*
X181857143Y-21172257D02*
X182142857Y-21315114D01*
X182142857Y-21315114D02*
X182285715Y-21457971D01*
X182285715Y-21457971D02*
X182428572Y-21743685D01*
X182428572Y-21743685D02*
X182571429Y-22315114D01*
X182571429Y-22315114D02*
X182571429Y-23029400D01*
X182571429Y-23029400D02*
X182428572Y-23600828D01*
X182428572Y-23600828D02*
X182285715Y-23886542D01*
X182285715Y-23886542D02*
X182142857Y-24029400D01*
X182142857Y-24029400D02*
X181857143Y-24172257D01*
X181857143Y-24172257D02*
X181571429Y-24172257D01*
X181571429Y-24172257D02*
X181285715Y-24029400D01*
X181285715Y-24029400D02*
X181142857Y-23886542D01*
X181142857Y-23886542D02*
X181000000Y-23600828D01*
X181000000Y-23600828D02*
X180857143Y-23029400D01*
X180857143Y-23029400D02*
X180857143Y-22315114D01*
X180857143Y-22315114D02*
X181000000Y-21743685D01*
X181000000Y-21743685D02*
X181142857Y-21457971D01*
X181142857Y-21457971D02*
X181285715Y-21315114D01*
X181285715Y-21315114D02*
X181571429Y-21172257D01*
X186142857Y-24172257D02*
X186142857Y-22172257D01*
X186142857Y-22457971D02*
X186285714Y-22315114D01*
X186285714Y-22315114D02*
X186571429Y-22172257D01*
X186571429Y-22172257D02*
X187000000Y-22172257D01*
X187000000Y-22172257D02*
X187285714Y-22315114D01*
X187285714Y-22315114D02*
X187428572Y-22600828D01*
X187428572Y-22600828D02*
X187428572Y-24172257D01*
X187428572Y-22600828D02*
X187571429Y-22315114D01*
X187571429Y-22315114D02*
X187857143Y-22172257D01*
X187857143Y-22172257D02*
X188285714Y-22172257D01*
X188285714Y-22172257D02*
X188571429Y-22315114D01*
X188571429Y-22315114D02*
X188714286Y-22600828D01*
X188714286Y-22600828D02*
X188714286Y-24172257D01*
X190142857Y-24172257D02*
X190142857Y-22172257D01*
X190142857Y-22457971D02*
X190285714Y-22315114D01*
X190285714Y-22315114D02*
X190571429Y-22172257D01*
X190571429Y-22172257D02*
X191000000Y-22172257D01*
X191000000Y-22172257D02*
X191285714Y-22315114D01*
X191285714Y-22315114D02*
X191428572Y-22600828D01*
X191428572Y-22600828D02*
X191428572Y-24172257D01*
X191428572Y-22600828D02*
X191571429Y-22315114D01*
X191571429Y-22315114D02*
X191857143Y-22172257D01*
X191857143Y-22172257D02*
X192285714Y-22172257D01*
X192285714Y-22172257D02*
X192571429Y-22315114D01*
X192571429Y-22315114D02*
X192714286Y-22600828D01*
X192714286Y-22600828D02*
X192714286Y-24172257D01*
D10*
X164000000Y-54600000D02*
X164000000Y-25513580D01*
X194000000Y-54600000D02*
X194000000Y-25513580D01*
X164000000Y-26100000D02*
X194000000Y-26100000D01*
X164000000Y-26100000D02*
X194000000Y-26100000D01*
X164000000Y-26100000D02*
X165126504Y-25513579D01*
X164000000Y-26100000D02*
X165126504Y-26686421D01*
X194000000Y-26100000D02*
X192873496Y-26686421D01*
X194000000Y-26100000D02*
X192873496Y-25513579D01*
D11*
X179530057Y-113278571D02*
X179530057Y-113849999D01*
X179530057Y-113849999D02*
X179672914Y-114135713D01*
X179672914Y-114135713D02*
X179815771Y-114278571D01*
X179815771Y-114278571D02*
X180244342Y-114564285D01*
X180244342Y-114564285D02*
X180815771Y-114707142D01*
X180815771Y-114707142D02*
X181958628Y-114707142D01*
X181958628Y-114707142D02*
X182244342Y-114564285D01*
X182244342Y-114564285D02*
X182387200Y-114421428D01*
X182387200Y-114421428D02*
X182530057Y-114135713D01*
X182530057Y-114135713D02*
X182530057Y-113564285D01*
X182530057Y-113564285D02*
X182387200Y-113278571D01*
X182387200Y-113278571D02*
X182244342Y-113135713D01*
X182244342Y-113135713D02*
X181958628Y-112992856D01*
X181958628Y-112992856D02*
X181244342Y-112992856D01*
X181244342Y-112992856D02*
X180958628Y-113135713D01*
X180958628Y-113135713D02*
X180815771Y-113278571D01*
X180815771Y-113278571D02*
X180672914Y-113564285D01*
X180672914Y-113564285D02*
X180672914Y-114135713D01*
X180672914Y-114135713D02*
X180815771Y-114421428D01*
X180815771Y-114421428D02*
X180958628Y-114564285D01*
X180958628Y-114564285D02*
X181244342Y-114707142D01*
X179530057Y-111992856D02*
X179530057Y-110135713D01*
X179530057Y-110135713D02*
X180672914Y-111135713D01*
X180672914Y-111135713D02*
X180672914Y-110707142D01*
X180672914Y-110707142D02*
X180815771Y-110421428D01*
X180815771Y-110421428D02*
X180958628Y-110278570D01*
X180958628Y-110278570D02*
X181244342Y-110135713D01*
X181244342Y-110135713D02*
X181958628Y-110135713D01*
X181958628Y-110135713D02*
X182244342Y-110278570D01*
X182244342Y-110278570D02*
X182387200Y-110421428D01*
X182387200Y-110421428D02*
X182530057Y-110707142D01*
X182530057Y-110707142D02*
X182530057Y-111564285D01*
X182530057Y-111564285D02*
X182387200Y-111849999D01*
X182387200Y-111849999D02*
X182244342Y-111992856D01*
X182244342Y-108849999D02*
X182387200Y-108707142D01*
X182387200Y-108707142D02*
X182530057Y-108849999D01*
X182530057Y-108849999D02*
X182387200Y-108992856D01*
X182387200Y-108992856D02*
X182244342Y-108849999D01*
X182244342Y-108849999D02*
X182530057Y-108849999D01*
X179530057Y-105992856D02*
X179530057Y-107421428D01*
X179530057Y-107421428D02*
X180958628Y-107564285D01*
X180958628Y-107564285D02*
X180815771Y-107421428D01*
X180815771Y-107421428D02*
X180672914Y-107135714D01*
X180672914Y-107135714D02*
X180672914Y-106421428D01*
X180672914Y-106421428D02*
X180815771Y-106135714D01*
X180815771Y-106135714D02*
X180958628Y-105992856D01*
X180958628Y-105992856D02*
X181244342Y-105849999D01*
X181244342Y-105849999D02*
X181958628Y-105849999D01*
X181958628Y-105849999D02*
X182244342Y-105992856D01*
X182244342Y-105992856D02*
X182387200Y-106135714D01*
X182387200Y-106135714D02*
X182530057Y-106421428D01*
X182530057Y-106421428D02*
X182530057Y-107135714D01*
X182530057Y-107135714D02*
X182387200Y-107421428D01*
X182387200Y-107421428D02*
X182244342Y-107564285D01*
X179530057Y-103992856D02*
X179530057Y-103707142D01*
X179530057Y-103707142D02*
X179672914Y-103421428D01*
X179672914Y-103421428D02*
X179815771Y-103278571D01*
X179815771Y-103278571D02*
X180101485Y-103135713D01*
X180101485Y-103135713D02*
X180672914Y-102992856D01*
X180672914Y-102992856D02*
X181387200Y-102992856D01*
X181387200Y-102992856D02*
X181958628Y-103135713D01*
X181958628Y-103135713D02*
X182244342Y-103278571D01*
X182244342Y-103278571D02*
X182387200Y-103421428D01*
X182387200Y-103421428D02*
X182530057Y-103707142D01*
X182530057Y-103707142D02*
X182530057Y-103992856D01*
X182530057Y-103992856D02*
X182387200Y-104278571D01*
X182387200Y-104278571D02*
X182244342Y-104421428D01*
X182244342Y-104421428D02*
X181958628Y-104564285D01*
X181958628Y-104564285D02*
X181387200Y-104707142D01*
X181387200Y-104707142D02*
X180672914Y-104707142D01*
X180672914Y-104707142D02*
X180101485Y-104564285D01*
X180101485Y-104564285D02*
X179815771Y-104421428D01*
X179815771Y-104421428D02*
X179672914Y-104278571D01*
X179672914Y-104278571D02*
X179530057Y-103992856D01*
X179530057Y-101135713D02*
X179530057Y-100849999D01*
X179530057Y-100849999D02*
X179672914Y-100564285D01*
X179672914Y-100564285D02*
X179815771Y-100421428D01*
X179815771Y-100421428D02*
X180101485Y-100278570D01*
X180101485Y-100278570D02*
X180672914Y-100135713D01*
X180672914Y-100135713D02*
X181387200Y-100135713D01*
X181387200Y-100135713D02*
X181958628Y-100278570D01*
X181958628Y-100278570D02*
X182244342Y-100421428D01*
X182244342Y-100421428D02*
X182387200Y-100564285D01*
X182387200Y-100564285D02*
X182530057Y-100849999D01*
X182530057Y-100849999D02*
X182530057Y-101135713D01*
X182530057Y-101135713D02*
X182387200Y-101421428D01*
X182387200Y-101421428D02*
X182244342Y-101564285D01*
X182244342Y-101564285D02*
X181958628Y-101707142D01*
X181958628Y-101707142D02*
X181387200Y-101849999D01*
X181387200Y-101849999D02*
X180672914Y-101849999D01*
X180672914Y-101849999D02*
X180101485Y-101707142D01*
X180101485Y-101707142D02*
X179815771Y-101564285D01*
X179815771Y-101564285D02*
X179672914Y-101421428D01*
X179672914Y-101421428D02*
X179530057Y-101135713D01*
X179530057Y-98278570D02*
X179530057Y-97992856D01*
X179530057Y-97992856D02*
X179672914Y-97707142D01*
X179672914Y-97707142D02*
X179815771Y-97564285D01*
X179815771Y-97564285D02*
X180101485Y-97421427D01*
X180101485Y-97421427D02*
X180672914Y-97278570D01*
X180672914Y-97278570D02*
X181387200Y-97278570D01*
X181387200Y-97278570D02*
X181958628Y-97421427D01*
X181958628Y-97421427D02*
X182244342Y-97564285D01*
X182244342Y-97564285D02*
X182387200Y-97707142D01*
X182387200Y-97707142D02*
X182530057Y-97992856D01*
X182530057Y-97992856D02*
X182530057Y-98278570D01*
X182530057Y-98278570D02*
X182387200Y-98564285D01*
X182387200Y-98564285D02*
X182244342Y-98707142D01*
X182244342Y-98707142D02*
X181958628Y-98849999D01*
X181958628Y-98849999D02*
X181387200Y-98992856D01*
X181387200Y-98992856D02*
X180672914Y-98992856D01*
X180672914Y-98992856D02*
X180101485Y-98849999D01*
X180101485Y-98849999D02*
X179815771Y-98707142D01*
X179815771Y-98707142D02*
X179672914Y-98564285D01*
X179672914Y-98564285D02*
X179530057Y-98278570D01*
X182530057Y-93707142D02*
X180530057Y-93707142D01*
X180815771Y-93707142D02*
X180672914Y-93564285D01*
X180672914Y-93564285D02*
X180530057Y-93278570D01*
X180530057Y-93278570D02*
X180530057Y-92849999D01*
X180530057Y-92849999D02*
X180672914Y-92564285D01*
X180672914Y-92564285D02*
X180958628Y-92421428D01*
X180958628Y-92421428D02*
X182530057Y-92421428D01*
X180958628Y-92421428D02*
X180672914Y-92278570D01*
X180672914Y-92278570D02*
X180530057Y-91992856D01*
X180530057Y-91992856D02*
X180530057Y-91564285D01*
X180530057Y-91564285D02*
X180672914Y-91278570D01*
X180672914Y-91278570D02*
X180958628Y-91135713D01*
X180958628Y-91135713D02*
X182530057Y-91135713D01*
X182530057Y-89707142D02*
X180530057Y-89707142D01*
X180815771Y-89707142D02*
X180672914Y-89564285D01*
X180672914Y-89564285D02*
X180530057Y-89278570D01*
X180530057Y-89278570D02*
X180530057Y-88849999D01*
X180530057Y-88849999D02*
X180672914Y-88564285D01*
X180672914Y-88564285D02*
X180958628Y-88421428D01*
X180958628Y-88421428D02*
X182530057Y-88421428D01*
X180958628Y-88421428D02*
X180672914Y-88278570D01*
X180672914Y-88278570D02*
X180530057Y-87992856D01*
X180530057Y-87992856D02*
X180530057Y-87564285D01*
X180530057Y-87564285D02*
X180672914Y-87278570D01*
X180672914Y-87278570D02*
X180958628Y-87135713D01*
X180958628Y-87135713D02*
X182530057Y-87135713D01*
D10*
X188800000Y-69100000D02*
X183713580Y-69100000D01*
X188800000Y-132600000D02*
X183713580Y-132600000D01*
X184300000Y-69100000D02*
X184300000Y-132600000D01*
X184300000Y-69100000D02*
X184300000Y-132600000D01*
X184300000Y-69100000D02*
X184886421Y-70226504D01*
X184300000Y-69100000D02*
X183713579Y-70226504D01*
X184300000Y-132600000D02*
X183713579Y-131473496D01*
X184300000Y-132600000D02*
X184886421Y-131473496D01*
D11*
X206515771Y-71407142D02*
X206372914Y-71692857D01*
X206372914Y-71692857D02*
X206230057Y-71835714D01*
X206230057Y-71835714D02*
X205944342Y-71978571D01*
X205944342Y-71978571D02*
X205801485Y-71978571D01*
X205801485Y-71978571D02*
X205515771Y-71835714D01*
X205515771Y-71835714D02*
X205372914Y-71692857D01*
X205372914Y-71692857D02*
X205230057Y-71407142D01*
X205230057Y-71407142D02*
X205230057Y-70835714D01*
X205230057Y-70835714D02*
X205372914Y-70550000D01*
X205372914Y-70550000D02*
X205515771Y-70407142D01*
X205515771Y-70407142D02*
X205801485Y-70264285D01*
X205801485Y-70264285D02*
X205944342Y-70264285D01*
X205944342Y-70264285D02*
X206230057Y-70407142D01*
X206230057Y-70407142D02*
X206372914Y-70550000D01*
X206372914Y-70550000D02*
X206515771Y-70835714D01*
X206515771Y-70835714D02*
X206515771Y-71407142D01*
X206515771Y-71407142D02*
X206658628Y-71692857D01*
X206658628Y-71692857D02*
X206801485Y-71835714D01*
X206801485Y-71835714D02*
X207087200Y-71978571D01*
X207087200Y-71978571D02*
X207658628Y-71978571D01*
X207658628Y-71978571D02*
X207944342Y-71835714D01*
X207944342Y-71835714D02*
X208087200Y-71692857D01*
X208087200Y-71692857D02*
X208230057Y-71407142D01*
X208230057Y-71407142D02*
X208230057Y-70835714D01*
X208230057Y-70835714D02*
X208087200Y-70550000D01*
X208087200Y-70550000D02*
X207944342Y-70407142D01*
X207944342Y-70407142D02*
X207658628Y-70264285D01*
X207658628Y-70264285D02*
X207087200Y-70264285D01*
X207087200Y-70264285D02*
X206801485Y-70407142D01*
X206801485Y-70407142D02*
X206658628Y-70550000D01*
X206658628Y-70550000D02*
X206515771Y-70835714D01*
X207944342Y-68978571D02*
X208087200Y-68835714D01*
X208087200Y-68835714D02*
X208230057Y-68978571D01*
X208230057Y-68978571D02*
X208087200Y-69121428D01*
X208087200Y-69121428D02*
X207944342Y-68978571D01*
X207944342Y-68978571D02*
X208230057Y-68978571D01*
X208230057Y-67407143D02*
X208230057Y-66835714D01*
X208230057Y-66835714D02*
X208087200Y-66550000D01*
X208087200Y-66550000D02*
X207944342Y-66407143D01*
X207944342Y-66407143D02*
X207515771Y-66121428D01*
X207515771Y-66121428D02*
X206944342Y-65978571D01*
X206944342Y-65978571D02*
X205801485Y-65978571D01*
X205801485Y-65978571D02*
X205515771Y-66121428D01*
X205515771Y-66121428D02*
X205372914Y-66264286D01*
X205372914Y-66264286D02*
X205230057Y-66550000D01*
X205230057Y-66550000D02*
X205230057Y-67121428D01*
X205230057Y-67121428D02*
X205372914Y-67407143D01*
X205372914Y-67407143D02*
X205515771Y-67550000D01*
X205515771Y-67550000D02*
X205801485Y-67692857D01*
X205801485Y-67692857D02*
X206515771Y-67692857D01*
X206515771Y-67692857D02*
X206801485Y-67550000D01*
X206801485Y-67550000D02*
X206944342Y-67407143D01*
X206944342Y-67407143D02*
X207087200Y-67121428D01*
X207087200Y-67121428D02*
X207087200Y-66550000D01*
X207087200Y-66550000D02*
X206944342Y-66264286D01*
X206944342Y-66264286D02*
X206801485Y-66121428D01*
X206801485Y-66121428D02*
X206515771Y-65978571D01*
X205230057Y-64121428D02*
X205230057Y-63835714D01*
X205230057Y-63835714D02*
X205372914Y-63550000D01*
X205372914Y-63550000D02*
X205515771Y-63407143D01*
X205515771Y-63407143D02*
X205801485Y-63264285D01*
X205801485Y-63264285D02*
X206372914Y-63121428D01*
X206372914Y-63121428D02*
X207087200Y-63121428D01*
X207087200Y-63121428D02*
X207658628Y-63264285D01*
X207658628Y-63264285D02*
X207944342Y-63407143D01*
X207944342Y-63407143D02*
X208087200Y-63550000D01*
X208087200Y-63550000D02*
X208230057Y-63835714D01*
X208230057Y-63835714D02*
X208230057Y-64121428D01*
X208230057Y-64121428D02*
X208087200Y-64407143D01*
X208087200Y-64407143D02*
X207944342Y-64550000D01*
X207944342Y-64550000D02*
X207658628Y-64692857D01*
X207658628Y-64692857D02*
X207087200Y-64835714D01*
X207087200Y-64835714D02*
X206372914Y-64835714D01*
X206372914Y-64835714D02*
X205801485Y-64692857D01*
X205801485Y-64692857D02*
X205515771Y-64550000D01*
X205515771Y-64550000D02*
X205372914Y-64407143D01*
X205372914Y-64407143D02*
X205230057Y-64121428D01*
X205230057Y-61264285D02*
X205230057Y-60978571D01*
X205230057Y-60978571D02*
X205372914Y-60692857D01*
X205372914Y-60692857D02*
X205515771Y-60550000D01*
X205515771Y-60550000D02*
X205801485Y-60407142D01*
X205801485Y-60407142D02*
X206372914Y-60264285D01*
X206372914Y-60264285D02*
X207087200Y-60264285D01*
X207087200Y-60264285D02*
X207658628Y-60407142D01*
X207658628Y-60407142D02*
X207944342Y-60550000D01*
X207944342Y-60550000D02*
X208087200Y-60692857D01*
X208087200Y-60692857D02*
X208230057Y-60978571D01*
X208230057Y-60978571D02*
X208230057Y-61264285D01*
X208230057Y-61264285D02*
X208087200Y-61550000D01*
X208087200Y-61550000D02*
X207944342Y-61692857D01*
X207944342Y-61692857D02*
X207658628Y-61835714D01*
X207658628Y-61835714D02*
X207087200Y-61978571D01*
X207087200Y-61978571D02*
X206372914Y-61978571D01*
X206372914Y-61978571D02*
X205801485Y-61835714D01*
X205801485Y-61835714D02*
X205515771Y-61692857D01*
X205515771Y-61692857D02*
X205372914Y-61550000D01*
X205372914Y-61550000D02*
X205230057Y-61264285D01*
X205230057Y-58407142D02*
X205230057Y-58121428D01*
X205230057Y-58121428D02*
X205372914Y-57835714D01*
X205372914Y-57835714D02*
X205515771Y-57692857D01*
X205515771Y-57692857D02*
X205801485Y-57549999D01*
X205801485Y-57549999D02*
X206372914Y-57407142D01*
X206372914Y-57407142D02*
X207087200Y-57407142D01*
X207087200Y-57407142D02*
X207658628Y-57549999D01*
X207658628Y-57549999D02*
X207944342Y-57692857D01*
X207944342Y-57692857D02*
X208087200Y-57835714D01*
X208087200Y-57835714D02*
X208230057Y-58121428D01*
X208230057Y-58121428D02*
X208230057Y-58407142D01*
X208230057Y-58407142D02*
X208087200Y-58692857D01*
X208087200Y-58692857D02*
X207944342Y-58835714D01*
X207944342Y-58835714D02*
X207658628Y-58978571D01*
X207658628Y-58978571D02*
X207087200Y-59121428D01*
X207087200Y-59121428D02*
X206372914Y-59121428D01*
X206372914Y-59121428D02*
X205801485Y-58978571D01*
X205801485Y-58978571D02*
X205515771Y-58835714D01*
X205515771Y-58835714D02*
X205372914Y-58692857D01*
X205372914Y-58692857D02*
X205230057Y-58407142D01*
X208230057Y-53835714D02*
X206230057Y-53835714D01*
X206515771Y-53835714D02*
X206372914Y-53692857D01*
X206372914Y-53692857D02*
X206230057Y-53407142D01*
X206230057Y-53407142D02*
X206230057Y-52978571D01*
X206230057Y-52978571D02*
X206372914Y-52692857D01*
X206372914Y-52692857D02*
X206658628Y-52550000D01*
X206658628Y-52550000D02*
X208230057Y-52550000D01*
X206658628Y-52550000D02*
X206372914Y-52407142D01*
X206372914Y-52407142D02*
X206230057Y-52121428D01*
X206230057Y-52121428D02*
X206230057Y-51692857D01*
X206230057Y-51692857D02*
X206372914Y-51407142D01*
X206372914Y-51407142D02*
X206658628Y-51264285D01*
X206658628Y-51264285D02*
X208230057Y-51264285D01*
X208230057Y-49835714D02*
X206230057Y-49835714D01*
X206515771Y-49835714D02*
X206372914Y-49692857D01*
X206372914Y-49692857D02*
X206230057Y-49407142D01*
X206230057Y-49407142D02*
X206230057Y-48978571D01*
X206230057Y-48978571D02*
X206372914Y-48692857D01*
X206372914Y-48692857D02*
X206658628Y-48550000D01*
X206658628Y-48550000D02*
X208230057Y-48550000D01*
X206658628Y-48550000D02*
X206372914Y-48407142D01*
X206372914Y-48407142D02*
X206230057Y-48121428D01*
X206230057Y-48121428D02*
X206230057Y-47692857D01*
X206230057Y-47692857D02*
X206372914Y-47407142D01*
X206372914Y-47407142D02*
X206658628Y-47264285D01*
X206658628Y-47264285D02*
X208230057Y-47264285D01*
D10*
X197400000Y-64000000D02*
X210586420Y-64000000D01*
X197400000Y-55100000D02*
X210586420Y-55100000D01*
X210000000Y-64000000D02*
X210000000Y-55100000D01*
X210000000Y-64000000D02*
X210000000Y-55100000D01*
X210000000Y-64000000D02*
X209413579Y-62873496D01*
X210000000Y-64000000D02*
X210586421Y-62873496D01*
X210000000Y-55100000D02*
X210586421Y-56226504D01*
X210000000Y-55100000D02*
X209413579Y-56226504D01*
D11*
X199928571Y-114880057D02*
X201785714Y-114880057D01*
X201785714Y-114880057D02*
X200785714Y-116022914D01*
X200785714Y-116022914D02*
X201214285Y-116022914D01*
X201214285Y-116022914D02*
X201500000Y-116165771D01*
X201500000Y-116165771D02*
X201642857Y-116308628D01*
X201642857Y-116308628D02*
X201785714Y-116594342D01*
X201785714Y-116594342D02*
X201785714Y-117308628D01*
X201785714Y-117308628D02*
X201642857Y-117594342D01*
X201642857Y-117594342D02*
X201500000Y-117737200D01*
X201500000Y-117737200D02*
X201214285Y-117880057D01*
X201214285Y-117880057D02*
X200357142Y-117880057D01*
X200357142Y-117880057D02*
X200071428Y-117737200D01*
X200071428Y-117737200D02*
X199928571Y-117594342D01*
X203071428Y-117594342D02*
X203214285Y-117737200D01*
X203214285Y-117737200D02*
X203071428Y-117880057D01*
X203071428Y-117880057D02*
X202928571Y-117737200D01*
X202928571Y-117737200D02*
X203071428Y-117594342D01*
X203071428Y-117594342D02*
X203071428Y-117880057D01*
X205071428Y-114880057D02*
X205357142Y-114880057D01*
X205357142Y-114880057D02*
X205642856Y-115022914D01*
X205642856Y-115022914D02*
X205785714Y-115165771D01*
X205785714Y-115165771D02*
X205928571Y-115451485D01*
X205928571Y-115451485D02*
X206071428Y-116022914D01*
X206071428Y-116022914D02*
X206071428Y-116737200D01*
X206071428Y-116737200D02*
X205928571Y-117308628D01*
X205928571Y-117308628D02*
X205785714Y-117594342D01*
X205785714Y-117594342D02*
X205642856Y-117737200D01*
X205642856Y-117737200D02*
X205357142Y-117880057D01*
X205357142Y-117880057D02*
X205071428Y-117880057D01*
X205071428Y-117880057D02*
X204785714Y-117737200D01*
X204785714Y-117737200D02*
X204642856Y-117594342D01*
X204642856Y-117594342D02*
X204499999Y-117308628D01*
X204499999Y-117308628D02*
X204357142Y-116737200D01*
X204357142Y-116737200D02*
X204357142Y-116022914D01*
X204357142Y-116022914D02*
X204499999Y-115451485D01*
X204499999Y-115451485D02*
X204642856Y-115165771D01*
X204642856Y-115165771D02*
X204785714Y-115022914D01*
X204785714Y-115022914D02*
X205071428Y-114880057D01*
X207928571Y-114880057D02*
X208214285Y-114880057D01*
X208214285Y-114880057D02*
X208499999Y-115022914D01*
X208499999Y-115022914D02*
X208642857Y-115165771D01*
X208642857Y-115165771D02*
X208785714Y-115451485D01*
X208785714Y-115451485D02*
X208928571Y-116022914D01*
X208928571Y-116022914D02*
X208928571Y-116737200D01*
X208928571Y-116737200D02*
X208785714Y-117308628D01*
X208785714Y-117308628D02*
X208642857Y-117594342D01*
X208642857Y-117594342D02*
X208499999Y-117737200D01*
X208499999Y-117737200D02*
X208214285Y-117880057D01*
X208214285Y-117880057D02*
X207928571Y-117880057D01*
X207928571Y-117880057D02*
X207642857Y-117737200D01*
X207642857Y-117737200D02*
X207499999Y-117594342D01*
X207499999Y-117594342D02*
X207357142Y-117308628D01*
X207357142Y-117308628D02*
X207214285Y-116737200D01*
X207214285Y-116737200D02*
X207214285Y-116022914D01*
X207214285Y-116022914D02*
X207357142Y-115451485D01*
X207357142Y-115451485D02*
X207499999Y-115165771D01*
X207499999Y-115165771D02*
X207642857Y-115022914D01*
X207642857Y-115022914D02*
X207928571Y-114880057D01*
X210785714Y-114880057D02*
X211071428Y-114880057D01*
X211071428Y-114880057D02*
X211357142Y-115022914D01*
X211357142Y-115022914D02*
X211500000Y-115165771D01*
X211500000Y-115165771D02*
X211642857Y-115451485D01*
X211642857Y-115451485D02*
X211785714Y-116022914D01*
X211785714Y-116022914D02*
X211785714Y-116737200D01*
X211785714Y-116737200D02*
X211642857Y-117308628D01*
X211642857Y-117308628D02*
X211500000Y-117594342D01*
X211500000Y-117594342D02*
X211357142Y-117737200D01*
X211357142Y-117737200D02*
X211071428Y-117880057D01*
X211071428Y-117880057D02*
X210785714Y-117880057D01*
X210785714Y-117880057D02*
X210500000Y-117737200D01*
X210500000Y-117737200D02*
X210357142Y-117594342D01*
X210357142Y-117594342D02*
X210214285Y-117308628D01*
X210214285Y-117308628D02*
X210071428Y-116737200D01*
X210071428Y-116737200D02*
X210071428Y-116022914D01*
X210071428Y-116022914D02*
X210214285Y-115451485D01*
X210214285Y-115451485D02*
X210357142Y-115165771D01*
X210357142Y-115165771D02*
X210500000Y-115022914D01*
X210500000Y-115022914D02*
X210785714Y-114880057D01*
X213642857Y-114880057D02*
X213928571Y-114880057D01*
X213928571Y-114880057D02*
X214214285Y-115022914D01*
X214214285Y-115022914D02*
X214357143Y-115165771D01*
X214357143Y-115165771D02*
X214500000Y-115451485D01*
X214500000Y-115451485D02*
X214642857Y-116022914D01*
X214642857Y-116022914D02*
X214642857Y-116737200D01*
X214642857Y-116737200D02*
X214500000Y-117308628D01*
X214500000Y-117308628D02*
X214357143Y-117594342D01*
X214357143Y-117594342D02*
X214214285Y-117737200D01*
X214214285Y-117737200D02*
X213928571Y-117880057D01*
X213928571Y-117880057D02*
X213642857Y-117880057D01*
X213642857Y-117880057D02*
X213357143Y-117737200D01*
X213357143Y-117737200D02*
X213214285Y-117594342D01*
X213214285Y-117594342D02*
X213071428Y-117308628D01*
X213071428Y-117308628D02*
X212928571Y-116737200D01*
X212928571Y-116737200D02*
X212928571Y-116022914D01*
X212928571Y-116022914D02*
X213071428Y-115451485D01*
X213071428Y-115451485D02*
X213214285Y-115165771D01*
X213214285Y-115165771D02*
X213357143Y-115022914D01*
X213357143Y-115022914D02*
X213642857Y-114880057D01*
X218214285Y-117880057D02*
X218214285Y-115880057D01*
X218214285Y-116165771D02*
X218357142Y-116022914D01*
X218357142Y-116022914D02*
X218642857Y-115880057D01*
X218642857Y-115880057D02*
X219071428Y-115880057D01*
X219071428Y-115880057D02*
X219357142Y-116022914D01*
X219357142Y-116022914D02*
X219500000Y-116308628D01*
X219500000Y-116308628D02*
X219500000Y-117880057D01*
X219500000Y-116308628D02*
X219642857Y-116022914D01*
X219642857Y-116022914D02*
X219928571Y-115880057D01*
X219928571Y-115880057D02*
X220357142Y-115880057D01*
X220357142Y-115880057D02*
X220642857Y-116022914D01*
X220642857Y-116022914D02*
X220785714Y-116308628D01*
X220785714Y-116308628D02*
X220785714Y-117880057D01*
X222214285Y-117880057D02*
X222214285Y-115880057D01*
X222214285Y-116165771D02*
X222357142Y-116022914D01*
X222357142Y-116022914D02*
X222642857Y-115880057D01*
X222642857Y-115880057D02*
X223071428Y-115880057D01*
X223071428Y-115880057D02*
X223357142Y-116022914D01*
X223357142Y-116022914D02*
X223500000Y-116308628D01*
X223500000Y-116308628D02*
X223500000Y-117880057D01*
X223500000Y-116308628D02*
X223642857Y-116022914D01*
X223642857Y-116022914D02*
X223928571Y-115880057D01*
X223928571Y-115880057D02*
X224357142Y-115880057D01*
X224357142Y-115880057D02*
X224642857Y-116022914D01*
X224642857Y-116022914D02*
X224785714Y-116308628D01*
X224785714Y-116308628D02*
X224785714Y-117880057D01*
D10*
X202000000Y-133800000D02*
X202000000Y-119213580D01*
X199000000Y-119213580D02*
X199000000Y-133800000D01*
X202000000Y-119800000D02*
X199000000Y-119800000D01*
X202000000Y-119800000D02*
X199000000Y-119800000D01*
X202000000Y-119800000D02*
X200873496Y-120386421D01*
X202000000Y-119800000D02*
X200873496Y-119213579D01*
X199000000Y-119800000D02*
X200126504Y-119213579D01*
X199000000Y-119800000D02*
X200126504Y-120386421D01*
M02*
