%TF.GenerationSoftware,KiCad,Pcbnew,8.0.0*%
%TF.CreationDate,2024-06-21T11:16:24+02:00*%
%TF.ProjectId,lora,6c6f7261-2e6b-4696-9361-645f70636258,rev?*%
%TF.SameCoordinates,Original*%
%TF.FileFunction,Copper,L1,Top*%
%TF.FilePolarity,Positive*%
%FSLAX46Y46*%
G04 Gerber Fmt 4.6, Leading zero omitted, Abs format (unit mm)*
G04 Created by KiCad (PCBNEW 8.0.0) date 2024-06-21 11:16:24*
%MOMM*%
%LPD*%
G01*
G04 APERTURE LIST*
%TA.AperFunction,ComponentPad*%
%ADD10R,1.700000X1.700000*%
%TD*%
%TA.AperFunction,ComponentPad*%
%ADD11O,1.700000X1.700000*%
%TD*%
%TA.AperFunction,ComponentPad*%
%ADD12R,1.508000X1.508000*%
%TD*%
%TA.AperFunction,ComponentPad*%
%ADD13C,1.508000*%
%TD*%
%TA.AperFunction,ViaPad*%
%ADD14C,1.200000*%
%TD*%
%TA.AperFunction,Conductor*%
%ADD15C,0.900000*%
%TD*%
G04 APERTURE END LIST*
D10*
%TO.P,U2,1,1*%
%TO.N,Net-(U3-GND_1)*%
X189300000Y-69100000D03*
D11*
%TO.P,U2,2,2*%
%TO.N,unconnected-(U2-Pad2)*%
X189300000Y-71640000D03*
%TO.P,U2,3,3*%
%TO.N,unconnected-(U2-Pad3)*%
X189300000Y-74180000D03*
%TO.P,U2,4,4*%
%TO.N,unconnected-(U2-Pad4)*%
X189300000Y-76720000D03*
%TO.P,U2,5,5*%
%TO.N,unconnected-(U2-Pad5)*%
X189300000Y-79260000D03*
%TO.P,U2,6,6*%
%TO.N,unconnected-(U2-Pad6)*%
X189300000Y-81800000D03*
%TO.P,U2,7,7*%
%TO.N,Net-(U3-5V_1)*%
X189300000Y-84340000D03*
%TO.P,U2,8,8*%
%TO.N,unconnected-(U2-Pad8)*%
X189300000Y-86880000D03*
%TO.P,U2,9,9*%
%TO.N,unconnected-(U2-Pad9)*%
X189300000Y-89420000D03*
%TO.P,U2,10,10*%
%TO.N,unconnected-(U2-Pad10)*%
X189300000Y-91960000D03*
%TO.P,U2,11,11*%
%TO.N,unconnected-(U2-Pad11)*%
X189300000Y-94500000D03*
%TO.P,U2,12,12*%
%TO.N,unconnected-(U2-Pad12)*%
X189300000Y-97040000D03*
%TO.P,U2,13,13*%
%TO.N,unconnected-(U2-Pad13)*%
X189300000Y-99580000D03*
%TO.P,U2,14,14*%
%TO.N,unconnected-(U2-Pad14)*%
X189300000Y-102120000D03*
%TO.P,U2,15,15*%
%TO.N,unconnected-(U2-Pad15)*%
X189300000Y-104660000D03*
%TO.P,U2,16,16*%
%TO.N,Net-(U3-GPIO3_SCL)*%
X189300000Y-107200000D03*
%TO.P,U2,17,17*%
%TO.N,unconnected-(U2-Pad17)*%
X189300000Y-109740000D03*
%TO.P,U2,18,18*%
%TO.N,unconnected-(U2-Pad18)*%
X189300000Y-112280000D03*
%TO.P,U2,19,19*%
%TO.N,unconnected-(U2-Pad19)*%
X189300000Y-114820000D03*
%TO.P,U2,20,20*%
%TO.N,unconnected-(U2-Pad20)*%
X189300000Y-117360000D03*
%TO.P,U2,21,21*%
%TO.N,unconnected-(U2-Pad21)*%
X189300000Y-119900000D03*
%TO.P,U2,22,22*%
%TO.N,unconnected-(U2-Pad22)*%
X189300000Y-122440000D03*
%TO.P,U2,23,23*%
%TO.N,unconnected-(U2-Pad23)*%
X189300000Y-124980000D03*
%TO.P,U2,24,24*%
%TO.N,unconnected-(U2-Pad24)*%
X189300000Y-127520000D03*
%TO.P,U2,25,25*%
%TO.N,unconnected-(U2-Pad25)*%
X189300000Y-130060000D03*
%TO.P,U2,26,26*%
%TO.N,unconnected-(U2-Pad26)*%
X189300000Y-132600000D03*
%TO.P,U2,27,27*%
%TO.N,unconnected-(U2-Pad27)*%
X191840000Y-132600000D03*
%TO.P,U2,28,28*%
%TO.N,unconnected-(U2-Pad28)*%
X191840000Y-130060000D03*
%TO.P,U2,29,29*%
%TO.N,unconnected-(U2-Pad29)*%
X191840000Y-127520000D03*
%TO.P,U2,30,30*%
%TO.N,unconnected-(U2-Pad30)*%
X191840000Y-124980000D03*
%TO.P,U2,31,31*%
%TO.N,unconnected-(U2-Pad31)*%
X191840000Y-122440000D03*
%TO.P,U2,32,32*%
%TO.N,unconnected-(U2-Pad32)*%
X191840000Y-119900000D03*
%TO.P,U2,33,33*%
%TO.N,unconnected-(U2-Pad33)*%
X191840000Y-117360000D03*
%TO.P,U2,34,34*%
%TO.N,unconnected-(U2-Pad34)*%
X191840000Y-114820000D03*
%TO.P,U2,35,35*%
%TO.N,unconnected-(U2-Pad35)*%
X191840000Y-112280000D03*
%TO.P,U2,36,36*%
%TO.N,unconnected-(U2-Pad36)*%
X191840000Y-109740000D03*
%TO.P,U2,37,37*%
%TO.N,Net-(U3-GPIO2_SDA)*%
X191840000Y-107200000D03*
%TO.P,U2,38,38*%
%TO.N,unconnected-(U2-Pad38)*%
X191840000Y-104660000D03*
%TO.P,U2,39,39*%
%TO.N,unconnected-(U2-Pad39)*%
X191840000Y-102120000D03*
%TO.P,U2,40,40*%
%TO.N,unconnected-(U2-Pad40)*%
X191840000Y-99580000D03*
%TO.P,U2,41,41*%
%TO.N,unconnected-(U2-Pad41)*%
X191840000Y-97040000D03*
%TO.P,U2,42,42*%
%TO.N,unconnected-(U2-Pad42)*%
X191840000Y-94500000D03*
%TO.P,U2,43,43*%
%TO.N,unconnected-(U2-Pad43)*%
X191840000Y-91960000D03*
%TO.P,U2,44,44*%
%TO.N,unconnected-(U2-Pad44)*%
X191840000Y-89420000D03*
%TO.P,U2,45,45*%
%TO.N,unconnected-(U2-Pad45)*%
X191840000Y-86880000D03*
%TO.P,U2,46,46*%
%TO.N,unconnected-(U2-Pad46)*%
X191840000Y-84340000D03*
%TO.P,U2,47,47*%
%TO.N,unconnected-(U2-Pad47)*%
X191840000Y-81800000D03*
%TO.P,U2,48,48*%
%TO.N,unconnected-(U2-Pad48)*%
X191840000Y-79260000D03*
%TO.P,U2,49,49*%
%TO.N,unconnected-(U2-Pad49)*%
X191840000Y-76720000D03*
%TO.P,U2,50,50*%
%TO.N,unconnected-(U2-Pad50)*%
X191840000Y-74180000D03*
%TO.P,U2,51,51*%
%TO.N,unconnected-(U2-Pad51)*%
X191840000Y-71640000D03*
%TO.P,U2,52,52*%
%TO.N,unconnected-(U2-Pad52)*%
X191840000Y-69100000D03*
%TD*%
D12*
%TO.P,U3,1,3V3_1*%
%TO.N,unconnected-(U3-3V3_1-Pad1)*%
X173500000Y-85180000D03*
D13*
%TO.P,U3,2,5V_1*%
%TO.N,Net-(U3-5V_1)*%
X176040000Y-85180000D03*
%TO.P,U3,3,GPIO2_SDA*%
%TO.N,Net-(U3-GPIO2_SDA)*%
X173500000Y-87720000D03*
%TO.P,U3,4,5V_2*%
%TO.N,unconnected-(U3-5V_2-Pad4)*%
X176040000Y-87720000D03*
%TO.P,U3,5,GPIO3_SCL*%
%TO.N,Net-(U3-GPIO3_SCL)*%
X173500000Y-90260000D03*
%TO.P,U3,6,GND_8*%
%TO.N,unconnected-(U3-GND_8-Pad6)*%
X176040000Y-90260000D03*
%TO.P,U3,7,GPIO4_GPCKL0*%
%TO.N,unconnected-(U3-GPIO4_GPCKL0-Pad7)*%
X173500000Y-92800000D03*
%TO.P,U3,8,TXD0_GPIO14*%
%TO.N,unconnected-(U3-TXD0_GPIO14-Pad8)*%
X176040000Y-92800000D03*
%TO.P,U3,9,GND_1*%
%TO.N,Net-(U3-GND_1)*%
X173500000Y-95340000D03*
%TO.P,U3,10,RXD0_GPIO15*%
%TO.N,unconnected-(U3-RXD0_GPIO15-Pad10)*%
X176040000Y-95340000D03*
%TO.P,U3,11,GPIO17_GEN0*%
%TO.N,unconnected-(U3-GPIO17_GEN0-Pad11)*%
X173500000Y-97880000D03*
%TO.P,U3,12,GPIO18*%
%TO.N,unconnected-(U3-GPIO18-Pad12)*%
X176040000Y-97880000D03*
%TO.P,U3,13,GPIO27_GEN2*%
%TO.N,unconnected-(U3-GPIO27_GEN2-Pad13)*%
X173500000Y-100420000D03*
%TO.P,U3,14,GND_4*%
%TO.N,unconnected-(U3-GND_4-Pad14)*%
X176040000Y-100420000D03*
%TO.P,U3,15,GPIO22_GEN3*%
%TO.N,unconnected-(U3-GPIO22_GEN3-Pad15)*%
X173500000Y-102960000D03*
%TO.P,U3,16,GEN4_GPIO23*%
%TO.N,unconnected-(U3-GEN4_GPIO23-Pad16)*%
X176040000Y-102960000D03*
%TO.P,U3,17,3V3_2*%
%TO.N,unconnected-(U3-3V3_2-Pad17)*%
X173500000Y-105500000D03*
%TO.P,U3,18,GEN5_GPIO24*%
%TO.N,unconnected-(U3-GEN5_GPIO24-Pad18)*%
X176040000Y-105500000D03*
%TO.P,U3,19,GPIO10_MOSI*%
%TO.N,unconnected-(U3-GPIO10_MOSI-Pad19)*%
X173500000Y-108040000D03*
%TO.P,U3,20,GND_5*%
%TO.N,unconnected-(U3-GND_5-Pad20)*%
X176040000Y-108040000D03*
%TO.P,U3,21,GPIO9_MISO*%
%TO.N,unconnected-(U3-GPIO9_MISO-Pad21)*%
X173500000Y-110580000D03*
%TO.P,U3,22,GEN_6GPIO25*%
%TO.N,unconnected-(U3-GEN_6GPIO25-Pad22)*%
X176040000Y-110580000D03*
%TO.P,U3,23,GPIO11_SCLK*%
%TO.N,unconnected-(U3-GPIO11_SCLK-Pad23)*%
X173500000Y-113120000D03*
%TO.P,U3,24,~{CE0}_GPIO8*%
%TO.N,unconnected-(U3-~{CE0}_GPIO8-Pad24)*%
X176040000Y-113120000D03*
%TO.P,U3,25,GND_2*%
%TO.N,unconnected-(U3-GND_2-Pad25)*%
X173500000Y-115660000D03*
%TO.P,U3,26,~{CE1}_GPIO7*%
%TO.N,unconnected-(U3-~{CE1}_GPIO7-Pad26)*%
X176040000Y-115660000D03*
%TO.P,U3,27,ID_SD*%
%TO.N,unconnected-(U3-ID_SD-Pad27)*%
X173500000Y-118200000D03*
%TO.P,U3,28,ID_SC*%
%TO.N,unconnected-(U3-ID_SC-Pad28)*%
X176040000Y-118200000D03*
%TO.P,U3,29,GPIO5*%
%TO.N,unconnected-(U3-GPIO5-Pad29)*%
X173500000Y-120740000D03*
%TO.P,U3,30,GND_6*%
%TO.N,unconnected-(U3-GND_6-Pad30)*%
X176040000Y-120740000D03*
%TO.P,U3,31,GPIO6*%
%TO.N,unconnected-(U3-GPIO6-Pad31)*%
X173500000Y-123280000D03*
%TO.P,U3,32,GPIO12*%
%TO.N,unconnected-(U3-GPIO12-Pad32)*%
X176040000Y-123280000D03*
%TO.P,U3,33,GPIO13*%
%TO.N,unconnected-(U3-GPIO13-Pad33)*%
X173500000Y-125820000D03*
%TO.P,U3,34,GND_7*%
%TO.N,unconnected-(U3-GND_7-Pad34)*%
X176040000Y-125820000D03*
%TO.P,U3,35,GPIO19*%
%TO.N,unconnected-(U3-GPIO19-Pad35)*%
X173500000Y-128360000D03*
%TO.P,U3,36,GPIO16*%
%TO.N,unconnected-(U3-GPIO16-Pad36)*%
X176040000Y-128360000D03*
%TO.P,U3,37,GPIO26*%
%TO.N,unconnected-(U3-GPIO26-Pad37)*%
X173500000Y-130900000D03*
%TO.P,U3,38,GPIO20*%
%TO.N,unconnected-(U3-GPIO20-Pad38)*%
X176040000Y-130900000D03*
%TO.P,U3,39,GND_3*%
%TO.N,unconnected-(U3-GND_3-Pad39)*%
X173500000Y-133440000D03*
%TO.P,U3,40,GPIO21*%
%TO.N,unconnected-(U3-GPIO21-Pad40)*%
X176040000Y-133440000D03*
%TD*%
D14*
%TO.N,Net-(U3-GND_1)*%
X161500000Y-93900000D03*
%TO.N,Net-(U3-5V_1)*%
X183480000Y-84280000D03*
%TO.N,Net-(U3-GPIO3_SCL)*%
X180600000Y-117340000D03*
%TO.N,Net-(U3-GPIO2_SDA)*%
X187900000Y-59700000D03*
%TD*%
D15*
%TO.N,Net-(U3-GND_1)*%
X161510976Y-69189024D02*
X167400000Y-63300000D01*
X176600000Y-63300000D02*
X182340000Y-69040000D01*
X161510976Y-93940000D02*
X161510976Y-93910976D01*
X161500000Y-93900000D02*
X161510976Y-93889024D01*
X161510976Y-93889024D02*
X161510976Y-69189024D01*
X182340000Y-69040000D02*
X189290000Y-69040000D01*
X161510976Y-93910976D02*
X161500000Y-93900000D01*
X167400000Y-63300000D02*
X176600000Y-63300000D01*
%TO.N,Net-(U3-5V_1)*%
X189290000Y-84280000D02*
X183480000Y-84280000D01*
%TO.N,Net-(U3-GPIO3_SCL)*%
X180640000Y-117300000D02*
X180600000Y-117340000D01*
X180640000Y-107140000D02*
X180640000Y-117300000D01*
X189290000Y-107140000D02*
X180640000Y-107140000D01*
%TO.N,Net-(U3-GPIO2_SDA)*%
X187900000Y-59700000D02*
X196200000Y-68000000D01*
X191830000Y-107140000D02*
X196060000Y-107140000D01*
X196200000Y-68000000D02*
X196200000Y-107000000D01*
X196060000Y-107140000D02*
X196200000Y-107000000D01*
%TD*%
M02*
