%TF.GenerationSoftware,KiCad,Pcbnew,8.0.0*%
%TF.CreationDate,2024-06-21T11:16:24+02:00*%
%TF.ProjectId,lora,6c6f7261-2e6b-4696-9361-645f70636258,rev?*%
%TF.SameCoordinates,Original*%
%TF.FileFunction,Legend,Top*%
%TF.FilePolarity,Positive*%
%FSLAX46Y46*%
G04 Gerber Fmt 4.6, Leading zero omitted, Abs format (unit mm)*
G04 Created by KiCad (PCBNEW 8.0.0) date 2024-06-21 11:16:24*
%MOMM*%
%LPD*%
G01*
G04 APERTURE LIST*
%ADD10C,0.100000*%
%ADD11C,0.150000*%
%ADD12C,0.120000*%
%ADD13C,0.200000*%
G04 APERTURE END LIST*
D10*
X124850000Y-76740000D02*
X175350000Y-76740000D01*
X114100000Y-137800000D02*
G75*
G02*
X114147231Y-138652769I500000J-400000D01*
G01*
X178350000Y-79740000D02*
X178350000Y-138740000D01*
X121850000Y-79740000D02*
G75*
G02*
X124850000Y-76740000I3000000J0D01*
G01*
X178350000Y-138740000D02*
G75*
G02*
X175350000Y-141740000I-3000000J0D01*
G01*
X175350000Y-76740000D02*
G75*
G02*
X178350000Y-79740000I0J-3000000D01*
G01*
X114100000Y-140100000D02*
X114100000Y-137800000D01*
X115100000Y-138700000D02*
G75*
G02*
X114100000Y-140084846I-1000100J-331300D01*
G01*
X124850000Y-141740000D02*
G75*
G02*
X121850000Y-138740000I0J3000000D01*
G01*
X193850000Y-139100000D02*
X193350000Y-139100000D01*
X121850000Y-138740000D02*
X121850000Y-79740000D01*
X175350000Y-141740000D02*
X124850000Y-141740000D01*
X193600000Y-138100000D02*
X194100000Y-140100000D01*
X193100000Y-140100000D02*
X193600000Y-138100000D01*
D11*
X189808095Y-66224819D02*
X189808095Y-67034342D01*
X189808095Y-67034342D02*
X189855714Y-67129580D01*
X189855714Y-67129580D02*
X189903333Y-67177200D01*
X189903333Y-67177200D02*
X189998571Y-67224819D01*
X189998571Y-67224819D02*
X190189047Y-67224819D01*
X190189047Y-67224819D02*
X190284285Y-67177200D01*
X190284285Y-67177200D02*
X190331904Y-67129580D01*
X190331904Y-67129580D02*
X190379523Y-67034342D01*
X190379523Y-67034342D02*
X190379523Y-66224819D01*
X190808095Y-66320057D02*
X190855714Y-66272438D01*
X190855714Y-66272438D02*
X190950952Y-66224819D01*
X190950952Y-66224819D02*
X191189047Y-66224819D01*
X191189047Y-66224819D02*
X191284285Y-66272438D01*
X191284285Y-66272438D02*
X191331904Y-66320057D01*
X191331904Y-66320057D02*
X191379523Y-66415295D01*
X191379523Y-66415295D02*
X191379523Y-66510533D01*
X191379523Y-66510533D02*
X191331904Y-66653390D01*
X191331904Y-66653390D02*
X190760476Y-67224819D01*
X190760476Y-67224819D02*
X191379523Y-67224819D01*
X181653804Y-82503344D02*
X182464857Y-82503344D01*
X182464857Y-82503344D02*
X182560275Y-82455635D01*
X182560275Y-82455635D02*
X182607985Y-82407926D01*
X182607985Y-82407926D02*
X182655694Y-82312508D01*
X182655694Y-82312508D02*
X182655694Y-82121672D01*
X182655694Y-82121672D02*
X182607985Y-82026254D01*
X182607985Y-82026254D02*
X182560275Y-81978545D01*
X182560275Y-81978545D02*
X182464857Y-81930836D01*
X182464857Y-81930836D02*
X181653804Y-81930836D01*
X181653804Y-81549163D02*
X181653804Y-80928946D01*
X181653804Y-80928946D02*
X182035476Y-81262909D01*
X182035476Y-81262909D02*
X182035476Y-81119782D01*
X182035476Y-81119782D02*
X182083185Y-81024364D01*
X182083185Y-81024364D02*
X182130894Y-80976655D01*
X182130894Y-80976655D02*
X182226312Y-80928946D01*
X182226312Y-80928946D02*
X182464857Y-80928946D01*
X182464857Y-80928946D02*
X182560275Y-80976655D01*
X182560275Y-80976655D02*
X182607985Y-81024364D01*
X182607985Y-81024364D02*
X182655694Y-81119782D01*
X182655694Y-81119782D02*
X182655694Y-81406036D01*
X182655694Y-81406036D02*
X182607985Y-81501454D01*
X182607985Y-81501454D02*
X182560275Y-81549163D01*
D12*
%TO.C,U2*%
X187970000Y-67770000D02*
X189300000Y-67770000D01*
X187970000Y-69100000D02*
X187970000Y-67770000D01*
X187970000Y-70370000D02*
X187970000Y-133930000D01*
X187970000Y-70370000D02*
X190570000Y-70370000D01*
X187970000Y-133930000D02*
X193170000Y-133930000D01*
X190570000Y-67770000D02*
X193170000Y-67770000D01*
X190570000Y-70370000D02*
X190570000Y-67770000D01*
X193170000Y-67770000D02*
X193170000Y-133930000D01*
D13*
%TO.C,U3*%
X171060000Y-85180000D02*
G75*
G02*
X170860000Y-85180000I-100000J0D01*
G01*
X170860000Y-85180000D02*
G75*
G02*
X171060000Y-85180000I100000J0D01*
G01*
%TD*%
M02*
