%TF.GenerationSoftware,KiCad,Pcbnew,8.0.0*%
%TF.CreationDate,2024-06-21T11:16:24+02:00*%
%TF.ProjectId,lora,6c6f7261-2e6b-4696-9361-645f70636258,rev?*%
%TF.SameCoordinates,Original*%
%TF.FileFunction,Soldermask,Bot*%
%TF.FilePolarity,Negative*%
%FSLAX46Y46*%
G04 Gerber Fmt 4.6, Leading zero omitted, Abs format (unit mm)*
G04 Created by KiCad (PCBNEW 8.0.0) date 2024-06-21 11:16:24*
%MOMM*%
%LPD*%
G01*
G04 APERTURE LIST*
G04 Aperture macros list*
%AMRoundRect*
0 Rectangle with rounded corners*
0 $1 Rounding radius*
0 $2 $3 $4 $5 $6 $7 $8 $9 X,Y pos of 4 corners*
0 Add a 4 corners polygon primitive as box body*
4,1,4,$2,$3,$4,$5,$6,$7,$8,$9,$2,$3,0*
0 Add four circle primitives for the rounded corners*
1,1,$1+$1,$2,$3*
1,1,$1+$1,$4,$5*
1,1,$1+$1,$6,$7*
1,1,$1+$1,$8,$9*
0 Add four rect primitives between the rounded corners*
20,1,$1+$1,$2,$3,$4,$5,0*
20,1,$1+$1,$4,$5,$6,$7,0*
20,1,$1+$1,$6,$7,$8,$9,0*
20,1,$1+$1,$8,$9,$2,$3,0*%
G04 Aperture macros list end*
%ADD10R,1.700000X1.700000*%
%ADD11O,1.700000X1.700000*%
%ADD12C,2.750000*%
%ADD13RoundRect,0.102000X-0.754000X0.754000X-0.754000X-0.754000X0.754000X-0.754000X0.754000X0.754000X0*%
%ADD14C,1.712000*%
G04 APERTURE END LIST*
D10*
%TO.C,U2*%
X189300000Y-69100000D03*
D11*
X189300000Y-71640000D03*
X189300000Y-74180000D03*
X189300000Y-76720000D03*
X189300000Y-79260000D03*
X189300000Y-81800000D03*
X189300000Y-84340000D03*
X189300000Y-86880000D03*
X189300000Y-89420000D03*
X189300000Y-91960000D03*
X189300000Y-94500000D03*
X189300000Y-97040000D03*
X189300000Y-99580000D03*
X189300000Y-102120000D03*
X189300000Y-104660000D03*
X189300000Y-107200000D03*
X189300000Y-109740000D03*
X189300000Y-112280000D03*
X189300000Y-114820000D03*
X189300000Y-117360000D03*
X189300000Y-119900000D03*
X189300000Y-122440000D03*
X189300000Y-124980000D03*
X189300000Y-127520000D03*
X189300000Y-130060000D03*
X189300000Y-132600000D03*
X191840000Y-132600000D03*
X191840000Y-130060000D03*
X191840000Y-127520000D03*
X191840000Y-124980000D03*
X191840000Y-122440000D03*
X191840000Y-119900000D03*
X191840000Y-117360000D03*
X191840000Y-114820000D03*
X191840000Y-112280000D03*
X191840000Y-109740000D03*
X191840000Y-107200000D03*
X191840000Y-104660000D03*
X191840000Y-102120000D03*
X191840000Y-99580000D03*
X191840000Y-97040000D03*
X191840000Y-94500000D03*
X191840000Y-91960000D03*
X191840000Y-89420000D03*
X191840000Y-86880000D03*
X191840000Y-84340000D03*
X191840000Y-81800000D03*
X191840000Y-79260000D03*
X191840000Y-76720000D03*
X191840000Y-74180000D03*
X191840000Y-71640000D03*
X191840000Y-69100000D03*
%TD*%
D12*
%TO.C,U3*%
X174770000Y-80310000D03*
X151770000Y-80310000D03*
X174770000Y-138310000D03*
X151770000Y-138310000D03*
D13*
X173500000Y-85180000D03*
D14*
X176040000Y-85180000D03*
X173500000Y-87720000D03*
X176040000Y-87720000D03*
X173500000Y-90260000D03*
X176040000Y-90260000D03*
X173500000Y-92800000D03*
X176040000Y-92800000D03*
X173500000Y-95340000D03*
X176040000Y-95340000D03*
X173500000Y-97880000D03*
X176040000Y-97880000D03*
X173500000Y-100420000D03*
X176040000Y-100420000D03*
X173500000Y-102960000D03*
X176040000Y-102960000D03*
X173500000Y-105500000D03*
X176040000Y-105500000D03*
X173500000Y-108040000D03*
X176040000Y-108040000D03*
X173500000Y-110580000D03*
X176040000Y-110580000D03*
X173500000Y-113120000D03*
X176040000Y-113120000D03*
X173500000Y-115660000D03*
X176040000Y-115660000D03*
X173500000Y-118200000D03*
X176040000Y-118200000D03*
X173500000Y-120740000D03*
X176040000Y-120740000D03*
X173500000Y-123280000D03*
X176040000Y-123280000D03*
X173500000Y-125820000D03*
X176040000Y-125820000D03*
X173500000Y-128360000D03*
X176040000Y-128360000D03*
X173500000Y-130900000D03*
X176040000Y-130900000D03*
X173500000Y-133440000D03*
X176040000Y-133440000D03*
%TD*%
M02*
