M48
; DRILL file {KiCad 8.0.0} date 2024-03-07T15:34:10+0100
; FORMAT={-:-/ absolute / inch / decimal}
; #@! TF.CreationDate,2024-03-07T15:34:10+01:00
; #@! TF.GenerationSoftware,Kicad,Pcbnew,8.0.0
; #@! TF.FileFunction,Plated,1,2,PTH
FMAT,2
INCH
; #@! TA.AperFunction,Plated,PTH,ViaDrill
T1C0.0276
; #@! TA.AperFunction,Plated,PTH,ComponentDrill
T2C0.0394
%
G90
G05
T1
X3.743Y-3.319
X4.142Y-3.32
T2
X3.0217Y-1.7669
X3.0217Y-1.8669
X3.0217Y-1.9669
X3.0217Y-2.0669
X3.0217Y-2.1669
X3.0217Y-2.2669
X3.0217Y-2.3669
X3.0217Y-2.4669
X3.0217Y-2.5669
X3.0217Y-2.6669
X3.0217Y-2.7669
X3.0217Y-2.8669
X3.0217Y-2.9669
X3.0217Y-3.0669
X3.0217Y-3.1669
X3.0217Y-3.2669
X3.0217Y-3.3669
X3.0217Y-3.4669
X3.0217Y-3.5669
X3.0217Y-3.6669
X3.1217Y-1.7669
X3.1217Y-1.8669
X3.1217Y-1.9669
X3.1217Y-2.0669
X3.1217Y-2.1669
X3.1217Y-2.2669
X3.1217Y-2.3669
X3.1217Y-2.4669
X3.1217Y-2.5669
X3.1217Y-2.6669
X3.1217Y-2.7669
X3.1217Y-2.8669
X3.1217Y-2.9669
X3.1217Y-3.0669
X3.1217Y-3.1669
X3.1217Y-3.2669
X3.1217Y-3.3669
X3.1217Y-3.4669
X3.1217Y-3.5669
X3.1217Y-3.6669
X5.2425Y-1.5236
X5.2425Y-1.6236
X5.2425Y-1.7236
X5.2425Y-1.8236
X5.2425Y-1.9236
X5.2425Y-2.0236
X5.2425Y-2.1236
X5.2425Y-2.2236
X5.2425Y-2.3236
X5.2425Y-2.4236
X5.2425Y-2.5236
X5.2425Y-2.6236
X5.2425Y-2.7236
X5.2425Y-2.8236
X5.2425Y-2.9236
X5.2425Y-3.0236
X5.2425Y-3.1236
X5.2425Y-3.2236
X5.2425Y-3.3236
X5.2425Y-3.4236
X5.2425Y-3.5236
X5.2425Y-3.6236
X5.2425Y-3.7236
X5.2425Y-3.8236
X5.2425Y-3.9236
X5.2425Y-4.0236
X5.3425Y-1.5236
X5.3425Y-1.6236
X5.3425Y-1.7236
X5.3425Y-1.8236
X5.3425Y-1.9236
X5.3425Y-2.0236
X5.3425Y-2.1236
X5.3425Y-2.2236
X5.3425Y-2.3236
X5.3425Y-2.4236
X5.3425Y-2.5236
X5.3425Y-2.6236
X5.3425Y-2.7236
X5.3425Y-2.8236
X5.3425Y-2.9236
X5.3425Y-3.0236
X5.3425Y-3.1236
X5.3425Y-3.2236
X5.3425Y-3.3236
X5.3425Y-3.4236
X5.3425Y-3.5236
X5.3425Y-3.6236
X5.3425Y-3.7236
X5.3425Y-3.8236
X5.3425Y-3.9236
X5.3425Y-4.0236
M30
