%TF.GenerationSoftware,KiCad,Pcbnew,8.0.0*%
%TF.CreationDate,2024-03-07T15:34:19+01:00*%
%TF.ProjectId,lora,6c6f7261-2e6b-4696-9361-645f70636258,rev?*%
%TF.SameCoordinates,Original*%
%TF.FileFunction,Legend,Top*%
%TF.FilePolarity,Positive*%
%FSLAX46Y46*%
G04 Gerber Fmt 4.6, Leading zero omitted, Abs format (unit mm)*
G04 Created by KiCad (PCBNEW 8.0.0) date 2024-03-07 15:34:19*
%MOMM*%
%LPD*%
G01*
G04 APERTURE LIST*
%ADD10C,0.100000*%
%ADD11C,0.150000*%
%ADD12C,0.120000*%
G04 APERTURE END LIST*
D10*
X80815000Y-39525000D02*
G75*
G02*
X75215000Y-39525000I-2800000J0D01*
G01*
X75215000Y-39525000D02*
G75*
G02*
X80815000Y-39525000I2800000J0D01*
G01*
X61515000Y-101025000D02*
X78515000Y-101025000D01*
X58515000Y-68525000D02*
X58515000Y-39025000D01*
X58515000Y-68525000D02*
X58515000Y-98025000D01*
X137750000Y-108000000D02*
X137250000Y-108000000D01*
X61515000Y-101025000D02*
G75*
G02*
X58515000Y-98025000I0J3000000D01*
G01*
X81515000Y-98025000D02*
G75*
G02*
X78515000Y-101025000I-3000000J0D01*
G01*
X137500000Y-107000000D02*
X138000000Y-109000000D01*
X58000000Y-109000000D02*
X58000000Y-106700000D01*
X81515000Y-39025000D02*
X81515000Y-98025000D01*
X58000000Y-106700000D02*
G75*
G02*
X58047231Y-107552769I500000J-400000D01*
G01*
X80815000Y-97525000D02*
G75*
G02*
X75215000Y-97525000I-2800000J0D01*
G01*
X75215000Y-97525000D02*
G75*
G02*
X80815000Y-97525000I2800000J0D01*
G01*
X61515000Y-36025000D02*
X78515000Y-36025000D01*
X58515000Y-39025000D02*
G75*
G02*
X61515000Y-36025000I3000000J0D01*
G01*
X137000000Y-109000000D02*
X137500000Y-107000000D01*
X59000000Y-107600000D02*
G75*
G02*
X58000000Y-108984751I-1000000J-331300D01*
G01*
X64815000Y-97525000D02*
G75*
G02*
X59215000Y-97525000I-2800000J0D01*
G01*
X59215000Y-97525000D02*
G75*
G02*
X64815000Y-97525000I2800000J0D01*
G01*
X78515000Y-36025000D02*
G75*
G02*
X81515000Y-39025000I0J-3000000D01*
G01*
D11*
X133668095Y-35824819D02*
X133668095Y-36634342D01*
X133668095Y-36634342D02*
X133715714Y-36729580D01*
X133715714Y-36729580D02*
X133763333Y-36777200D01*
X133763333Y-36777200D02*
X133858571Y-36824819D01*
X133858571Y-36824819D02*
X134049047Y-36824819D01*
X134049047Y-36824819D02*
X134144285Y-36777200D01*
X134144285Y-36777200D02*
X134191904Y-36729580D01*
X134191904Y-36729580D02*
X134239523Y-36634342D01*
X134239523Y-36634342D02*
X134239523Y-35824819D01*
X135239523Y-36824819D02*
X134668095Y-36824819D01*
X134953809Y-36824819D02*
X134953809Y-35824819D01*
X134953809Y-35824819D02*
X134858571Y-35967676D01*
X134858571Y-35967676D02*
X134763333Y-36062914D01*
X134763333Y-36062914D02*
X134668095Y-36110533D01*
D12*
%TO.C,U1*%
X131830000Y-37370000D02*
X133160000Y-37370000D01*
X131830000Y-38700000D02*
X131830000Y-37370000D01*
X131830000Y-39970000D02*
X131830000Y-103530000D01*
X131830000Y-39970000D02*
X134430000Y-39970000D01*
X131830000Y-103530000D02*
X137030000Y-103530000D01*
X134430000Y-37370000D02*
X137030000Y-37370000D01*
X134430000Y-39970000D02*
X134430000Y-37370000D01*
X137030000Y-37370000D02*
X137030000Y-103530000D01*
%TO.C,U2*%
X80620000Y-43550000D02*
X80620000Y-94470000D01*
X78020000Y-46150000D02*
X78020000Y-43550000D01*
X78020000Y-43550000D02*
X80620000Y-43550000D01*
X75420000Y-94470000D02*
X80620000Y-94470000D01*
X75420000Y-46150000D02*
X78020000Y-46150000D01*
X75420000Y-46150000D02*
X75420000Y-94470000D01*
X75420000Y-44880000D02*
X75420000Y-43550000D01*
X75420000Y-43550000D02*
X76750000Y-43550000D01*
%TD*%
M02*
