%TF.GenerationSoftware,KiCad,Pcbnew,8.0.0*%
%TF.CreationDate,2024-03-07T15:34:19+01:00*%
%TF.ProjectId,lora,6c6f7261-2e6b-4696-9361-645f70636258,rev?*%
%TF.SameCoordinates,Original*%
%TF.FileFunction,Profile,NP*%
%FSLAX46Y46*%
G04 Gerber Fmt 4.6, Leading zero omitted, Abs format (unit mm)*
G04 Created by KiCad (PCBNEW 8.0.0) date 2024-03-07 15:34:19*
%MOMM*%
%LPD*%
G01*
G04 APERTURE LIST*
%TA.AperFunction,Profile*%
%ADD10C,0.050000*%
%TD*%
G04 APERTURE END LIST*
D10*
X58000000Y-116100000D02*
X58000000Y-115100000D01*
X50000000Y-92600000D02*
X53000000Y-92600000D01*
X56700000Y-30100000D02*
G75*
G02*
X53500000Y-30100000I-1600000J0D01*
G01*
X53500000Y-30100000D02*
G75*
G02*
X56700000Y-30100000I1600000J0D01*
G01*
X145900000Y-26000000D02*
X145900000Y-27000000D01*
X128900000Y-115200000D02*
X128900000Y-116100000D01*
X137900000Y-25000000D02*
X137900000Y-26000000D01*
X53000000Y-92600000D02*
X53000000Y-60000000D01*
X119900000Y-114100000D02*
X80500000Y-114100000D01*
X97000000Y-27000000D02*
X107900000Y-27000000D01*
X145900000Y-27000000D02*
X145900000Y-38500000D01*
X137900000Y-26000000D02*
X145900000Y-26000000D01*
X68000000Y-25000000D02*
X97000000Y-25000000D01*
X119900000Y-116100000D02*
X119900000Y-114100000D01*
X142900000Y-105200000D02*
X145900000Y-105200000D01*
X142400000Y-33900000D02*
G75*
G02*
X139200000Y-33900000I-1600000J0D01*
G01*
X139200000Y-33900000D02*
G75*
G02*
X142400000Y-33900000I1600000J0D01*
G01*
X50000000Y-60000000D02*
X50000000Y-26000000D01*
X145900000Y-38500000D02*
X142900000Y-38500000D01*
X107900000Y-27000000D02*
X107900000Y-25000000D01*
X68000000Y-26000000D02*
X68000000Y-25000000D01*
X142400000Y-108500000D02*
G75*
G02*
X139200000Y-108500000I-1600000J0D01*
G01*
X139200000Y-108500000D02*
G75*
G02*
X142400000Y-108500000I1600000J0D01*
G01*
X107900000Y-25000000D02*
X137900000Y-25000000D01*
X145900000Y-105200000D02*
X145900000Y-115200000D01*
X80500000Y-114100000D02*
X80500000Y-116100000D01*
X128900000Y-116100000D02*
X119900000Y-116100000D01*
X50000000Y-115100000D02*
X50000000Y-92600000D01*
X142900000Y-38500000D02*
X142900000Y-105200000D01*
X80500000Y-116100000D02*
X58000000Y-116100000D01*
X97000000Y-25000000D02*
X97000000Y-27000000D01*
X58000000Y-115100000D02*
X50000000Y-115100000D01*
X56700000Y-111000000D02*
G75*
G02*
X53500000Y-111000000I-1600000J0D01*
G01*
X53500000Y-111000000D02*
G75*
G02*
X56700000Y-111000000I1600000J0D01*
G01*
X53000000Y-60000000D02*
X50000000Y-60000000D01*
X50000000Y-26000000D02*
X68000000Y-26000000D01*
X145900000Y-115200000D02*
X128900000Y-115200000D01*
M02*
